<?xml version="1.0" encoding="utf-8"?>
<svg viewBox="456.972 7.072 25.925 371.348" width="25.925" height="371.348" xmlns="http://www.w3.org/2000/svg" xmlns:xlink="http://www.w3.org/1999/xlink">
  <defs>
    <linearGradient id="linearGradient4042" gradientUnits="userSpaceOnUse" gradientTransform="matrix(0.51196841,0,0,1.1162079,291.14135,591.28971)" x1="402.99673" y1="170.35316" x2="411.742" y2="170.35316" xlink:href="#linearGradient4323-2-96"/>
    <linearGradient id="linearGradient4323-2-96">
      <stop style="stop-color:#000000;stop-opacity:1;" offset="0" id="stop4325-7-4"/>
      <stop style="stop-color:#000000;stop-opacity:0;" offset="1" id="stop4327-6-1"/>
    </linearGradient>
    <linearGradient id="linearGradient4044" gradientUnits="userSpaceOnUse" gradientTransform="matrix(0.50445536,0,0,1.1162077,-712.76879,591.15427)" x1="402.99673" y1="170.35316" x2="411.742" y2="170.35316" xlink:href="#linearGradient4323-7-4-2"/>
    <linearGradient id="linearGradient4323-7-4-2">
      <stop style="stop-color:#000000;stop-opacity:1;" offset="0" id="stop4325-4-2-6"/>
      <stop style="stop-color:#000000;stop-opacity:0;" offset="1" id="stop4327-0-3-3"/>
    </linearGradient>
    <linearGradient id="linearGradient4046" gradientUnits="userSpaceOnUse" x1="220.50983" y1="800.78748" x2="234.62511" y2="800.78748" xlink:href="#linearGradient5358-60-8"/>
    <linearGradient id="linearGradient5358-60-8">
      <stop style="stop-color:#e6e6e6;stop-opacity:1" offset="0" id="stop5360-1-5"/>
      <stop style="stop-color:#f9f9f9;stop-opacity:1" offset="1" id="stop5362-26-1"/>
    </linearGradient>
    <linearGradient id="linearGradient4048" gradientUnits="userSpaceOnUse" x1="220.50983" y1="800.78748" x2="234.62511" y2="800.78748" xlink:href="#linearGradient5358-60-8"/>
    <linearGradient id="linearGradient4052" gradientUnits="userSpaceOnUse" x1="219.64507" y1="801.16248" x2="237.12511" y2="801.16248" xlink:href="#linearGradient5358-60-8"/>
    <linearGradient id="linearGradient4054" gradientUnits="userSpaceOnUse" x1="219.64507" y1="801.16248" x2="237.12511" y2="801.16248" xlink:href="#linearGradient5358-60-8"/>
  </defs>
  <g id="g10857" transform="matrix(1, 0, 0, 1, -33.530629, -636.737427)">
    <g transform="matrix(1,0,0,0.99006992,-5e-5,7.081733)" id="g10495">
      <rect y="713.33398" x="494.12125" height="293.5" width="18.667433" id="rect10487" style="display:inline;fill:#ffffff;fill-opacity:1;stroke:none"/>
      <g id="g10493">
        <rect style="opacity:0.03365383;fill:url(#linearGradient4042);fill-opacity:1;stroke:#ffffff;stroke-width:0.42188567;stroke-linecap:round;stroke-linejoin:round;stroke-miterlimit:4;stroke-dasharray:none;stroke-opacity:0" id="rect10489" width="9.2365761" height="293.1781" x="494.33502" y="713.50616" ry="0"/>
        <rect style="opacity:0.03365383;fill:url(#linearGradient4044);fill-opacity:1;stroke:#ffffff;stroke-width:0.42194599;stroke-linecap:round;stroke-linejoin:round;stroke-miterlimit:4;stroke-dasharray:none;stroke-opacity:0" id="rect10491" width="9.1010303" height="293.17804" x="-512.55688" y="713.37079" ry="0" transform="scale(-1,1)"/>
      </g>
    </g>
    <rect style="fill:#f7f7f7;fill-opacity:1;stroke:none" id="rect10497" width="0.48061165" height="0.47508737" x="512.82025" y="1004.3157"/>
    <rect style="fill:#f7f7f7;fill-opacity:1;stroke:none" id="rect10499" width="0.4765625" height="0.453125" x="493.57025" y="1004.3309"/>
    <path style="fill:#f7f7f7;fill-opacity:1;stroke:none" d="m 494.98606,1008.772 c -0.0307,-0.055 -0.0788,-0.1942 -0.0788,-0.2287 v -0.026 h 1.69504 1.69504 l 0.0125,0.058 c 0.0253,0.1175 0.025,0.1436 -0.002,0.1906 l -0.0257,0.044 h -1.63554 -1.63554 l -0.0247,-0.044 v 0 z" id="path10501"/>
    <path style="fill:#f7f7f7;fill-opacity:1;stroke:none" d="m 498.77569,1008.7524 c -0.0288,-0.057 -0.0788,-0.1998 -0.0788,-0.2249 0,-0.01 0.72677,-0.01 1.74687,-0.01 h 1.74687 l -0.007,0.03 c -0.0164,0.07 -0.0434,0.1471 -0.0713,0.2028 l -0.0297,0.059 h -1.63737 -1.63738 l -0.0321,-0.064 z" id="path10503"/>
    <path style="fill:#f7f7f7;fill-opacity:1;stroke:none" d="m 502.48655,1008.8843 c 0,0 0.0116,-0.039 0.0258,-0.075 0.0233,-0.059 0.0497,-0.1582 0.0685,-0.256 l 0.007,-0.036 h 0.87673 c 0.82554,0 0.87706,0 0.8822,0.019 0.003,0.011 0.009,0.042 0.0131,0.069 0.004,0.027 0.0244,0.1013 0.045,0.1644 0.0206,0.063 0.0374,0.1165 0.0374,0.1188 0,0 -0.44001,0 -0.9778,0 -0.53779,0 -0.9778,0 -0.9778,-0.01 z" id="path10505"/>
    <path style="fill:#f7f7f7;fill-opacity:1;stroke:none" d="m 504.81924,1008.7524 c -0.0288,-0.057 -0.0788,-0.1998 -0.0788,-0.2249 0,-0.01 0.72627,-0.01 1.74567,-0.01 1.30129,0 1.74567,0 1.74567,0.013 0,0.028 -0.046,0.1621 -0.075,0.2194 l -0.0308,0.061 h -1.63737 -1.63737 l -0.0321,-0.064 z" id="path10507"/>
    <path style="fill:#f7f7f7;fill-opacity:1;stroke:none" d="m 508.62915,1008.78 c -0.0337,-0.055 -0.0358,-0.075 -0.017,-0.1664 0.01,-0.046 0.0174,-0.087 0.0174,-0.09 0,0 0.76576,-0.01 1.70169,-0.01 h 1.70169 l -0.007,0.03 c -0.0143,0.061 -0.0507,0.1623 -0.0771,0.2145 l -0.0271,0.053 h -1.63516 -1.63516 l -0.0222,-0.036 z" id="path10509"/>
    <path id="path10511" d="m 494.15349,1003.8851 18.567,0.031 0.01,3.2741 -0.69771,1.7511 -17.16749,-0.053 -0.69728,-1.7526 z" style="display:inline;fill:#101010;fill-opacity:1;stroke:none;stroke-width:1.84199035"/>
    <path style="fill:none;stroke:#000000;stroke-width:0.40000001;stroke-miterlimit:4;stroke-dasharray:none" d="m 494.14179,1003.9373 h 18.64629" id="path10513"/>
    <path style="fill:#f2f2f2;stroke:#000000;stroke-width:0.40000001;stroke-miterlimit:4;stroke-dasharray:none" d="m 495.03191,991.6911 0.0459,-0.1412 0.0789,-0.1551 0.10886,-0.1616 0.13582,-0.1606 0.15977,-0.1523 0.18069,-0.1367 0.1986,-0.1136 0.21351,-0.083 0.2254,-0.045 0.23426,-10e-5 0.24013,0.052 0.24298,0.1124 0.40335,1.0552 0.42294,1.1662 0.42294,1.1662 0.42294,1.1662 0.42294,1.1663 0.42295,1.1662 0.42294,1.1662 0.42294,1.1662 0.42294,1.1662 0.42294,1.1663 0.42294,1.1662 0.42294,1.1662 0.10676,0.2834 0.0202,0.035 0.0219,0.033 0.0235,0.03 0.025,0.028 0.0264,0.026 0.0276,0.024 0.0287,0.021 0.0297,0.019 0.0305,0.017 0.0312,0.015 0.0318,0.013 0.0323,0.011 0.0326,0.01 0.0326,0.01 h 0.0325 0.0322 0.0316 l 0.0308,3e-4 h 0.0299 0.0287 0.0273 0.0257 0.0239 0.0397 l 0.0527,-0.024 0.0519,-0.05 0.0506,-0.074 0.0489,-0.094 0.0467,-0.1127 0.0441,-0.1279 0.041,-0.1405 0.0374,-0.1505 0.0334,-0.1575 0.0289,-0.162 0.024,-0.1637 -0.19319,-1.8235 -0.44874,-3.8154 -0.44875,-3.8155 -0.44875,-3.8154 -0.44875,-3.8154 -0.44875,-3.8155 -0.44874,-3.81537 -0.44875,-3.81544 -0.44875,-3.81544 -0.44875,-3.81543 -0.44874,-3.81544 -0.44875,-3.81543 -0.29426,-2.58374 -0.002,-0.25078 -0.002,-0.25078 -0.002,-0.25079 -0.002,-0.25078 -0.002,-0.25078 -0.002,-0.25078 -0.002,-0.25078 -0.002,-0.25078 -0.002,-0.25078 -0.002,-0.25078 -0.002,-0.25078 -0.01,-0.31389 -0.0355,-0.48792 -0.0365,-0.44217 -0.0374,-0.39951 -0.0383,-0.36 -0.0392,-0.3236 -0.0401,-0.29032 -0.0409,-0.26016 -0.0417,-0.23312 -0.0425,-0.20921 -0.0433,-0.1884 -0.044,-0.17074 -0.0447,-0.15618 -0.0454,-0.14411 -0.046,-0.1328 -0.0467,-0.12195 -0.0474,-0.11155 -0.0481,-0.10163 -0.0488,-0.0922 -0.0496,-0.0832 -0.0503,-0.0746 -0.051,-0.0665 -0.0517,-0.0589 -0.0525,-0.0517 -0.0532,-0.045 -0.0539,-0.0387 -0.0547,-0.0325 -0.0554,-0.0263 -0.0561,-0.0201 -0.0568,-0.014 -0.0575,-0.008 -0.0582,-0.002 -0.0589,0.004 -0.0595,0.0102 -0.0601,0.0162 -0.0608,0.0221 -0.0614,0.028 -0.062,0.0339 -0.0626,0.0401 -0.0634,0.0466 -0.0641,0.0533 -0.065,0.0604 -0.0659,0.0678 -0.0668,0.0755 -0.0679,0.0835 -0.069,0.0918 -0.0701,0.10038 -0.0713,0.10929 -0.0726,0.11851 -0.0739,0.12792 -0.075,0.13674 -0.0757,0.14458 -0.0761,0.15147 -0.0761,0.15738 -0.0757,0.16234 -0.075,0.16633 -0.074,0.16935 -0.0726,0.17142 -0.0708,0.1725 -0.0687,0.17264 -0.0662,0.17181 -0.0634,0.17009 -0.0604,0.16832 -0.0572,0.16702 -0.0538,0.16618 -0.0503,0.16583 -0.0466,0.16593 -0.0427,0.16651 -0.0386,0.16756 -0.0344,0.16908 -0.0301,0.17106" id="path10515"/>
    <path style="fill:#f2f2f2;stroke:#000000;stroke-width:0.40000001;stroke-linecap:round;stroke-miterlimit:4;stroke-dasharray:none" d="m 495.03191,991.6911 -0.0374,0.2152 -0.037,0.2194 -0.0366,0.2237 -0.0362,0.2276 -0.0359,0.2315 -0.0355,0.2352 -0.0352,0.2388 -0.0348,0.2423 -0.0345,0.2455 -0.0342,0.2487 -0.0339,0.2517 -0.0336,0.2546 -0.0333,0.2573 -0.033,0.2598 -0.0327,0.2623 -0.0325,0.2646 -0.0322,0.2667 -0.032,0.2687 -0.0317,0.2706 -0.0315,0.2723 -0.0313,0.2739 -0.0311,0.2752 -0.0617,0.5543 -0.061,0.5583 -0.0604,0.561 -0.11937,1.1261 -0.0591,0.5626 -0.0589,0.5609 -0.0587,0.5579 -0.0586,0.5539 -0.0293,0.2751 -0.0293,0.2735 -0.0293,0.2721 -0.0293,0.2702 -0.0293,0.2684 -0.0294,0.2664 -0.0294,0.2641 -0.0295,0.2619 -0.0296,0.2594 -0.0297,0.2569 -0.0149,0.1274 -0.004,0.032 -0.002,0.016 -9.3e-4,0.01 h -5.5e-4 -9.2e-4 l -0.007,0.017 -0.008,0.014 -0.008,0.012 -0.008,0.01 -0.008,0.01 -0.008,0.01 h -0.008 -0.008 -0.0163 -0.0164 -0.0165 l -0.0331,-0.016 -0.065,-0.037 -0.063,-0.038 -0.061,-0.038 -0.0591,-0.038 -0.0572,-0.039 -0.0553,-0.039 -0.0535,-0.04 -0.0517,-0.04 -0.05,-0.04 -0.0483,-0.041 -0.0466,-0.041 -0.045,-0.042 -0.0434,-0.042 -0.0418,-0.042 -0.0403,-0.042 -0.0388,-0.043 -0.0373,-0.043 -0.0704,-0.087 -0.0649,-0.088 -0.0598,-0.089 -0.0549,-0.09 -0.0504,-0.091 -0.0461,-0.091 -0.0421,-0.092 -0.0383,-0.092 -0.0349,-0.093 -0.0318,-0.093 -0.0289,-0.093 -0.0263,-0.094 -0.024,-0.094 -0.022,-0.094 -0.0202,-0.093 -0.0188,-0.093 -0.009,-0.047 -0.004,-0.023 -0.002,-0.012 h -2.7e-4 l -1.4e-4,-7e-4 -7e-5,-4e-4 2.2e-4,-0.01 0.002,-0.056 0.004,-0.1127 0.24084,-7.213 0.48167,-14.4258 0.48168,-14.42586 0.24084,-7.21294 0.0602,-1.80323 0.015,-0.45081 9.4e-4,-0.0282 1.2e-4,-0.004 5e-5,-0.002 10e-6,-10e-5 6e-5,-3.7e-4 1.1e-4,-7.5e-4 4.6e-4,-0.003 9e-4,-0.006 0.002,-0.0119 0.007,-0.0474 0.0145,-0.0931 0.0145,-0.0907 0.0145,-0.0885 0.0145,-0.0864 0.0146,-0.0844 0.0146,-0.0825 0.0147,-0.0808 0.0148,-0.0791 0.0149,-0.0776 0.0151,-0.0761 0.0306,-0.14848 0.0313,-0.14414 0.0322,-0.1407 0.0332,-0.13818 0.0343,-0.13656 0.0356,-0.13584 0.037,-0.13605 0.0385,-0.13711 0.0404,-0.13876 0.0428,-0.14081 0.0457,-0.14323 0.0491,-0.14604 0.0529,-0.14925 0.0281,-0.0759 0.0292,-0.0769 0.0304,-0.0779 0.0317,-0.0789 0.033,-0.08 0.0344,-0.0812 0.0358,-0.0823 0.0374,-0.0836 0.0389,-0.0849 0.0406,-0.0862 0.0422,-0.0876 0.044,-0.089 0.0458,-0.0905 0.0477,-0.092" id="path10517"/>
    <path style="fill:#f2f2f2;stroke:#000000;stroke-width:0.40000001;stroke-miterlimit:4;stroke-dasharray:none" d="m 511.89796,991.6911 -0.0459,-0.1412 -0.0789,-0.1551 -0.10887,-0.1616 -0.13582,-0.1606 -0.15976,-0.1523 -0.18069,-0.1367 -0.19861,-0.1136 -0.21351,-0.083 -0.22539,-0.045 -0.23427,-10e-5 -0.24013,0.052 -0.24297,0.1124 -0.40336,1.0552 -0.42294,1.1662 -0.42294,1.1662 -0.42294,1.1662 -0.42294,1.1663 -0.42294,1.1662 -0.42294,1.1662 -0.42294,1.1662 -0.42294,1.1662 -0.42294,1.1663 -0.42294,1.1662 -0.42294,1.1662 -0.10677,0.2834 -0.0202,0.035 -0.0219,0.033 -0.0236,0.03 -0.025,0.028 -0.0264,0.026 -0.0276,0.024 -0.0287,0.021 -0.0297,0.019 -0.0305,0.017 -0.0312,0.015 -0.0318,0.013 -0.0323,0.011 -0.0326,0.01 -0.0326,0.01 h -0.0325 -0.0322 -0.0316 l -0.0308,3e-4 h -0.0299 -0.0287 -0.0273 -0.0257 -0.0239 -0.0397 l -0.0527,-0.024 -0.0519,-0.05 -0.0506,-0.074 -0.0489,-0.094 -0.0467,-0.1127 -0.0441,-0.1279 -0.041,-0.1405 -0.0374,-0.1505 -0.0334,-0.1575 -0.0289,-0.162 -0.024,-0.1637 0.19318,-1.8235 0.44875,-3.8154 0.44875,-3.8155 0.44875,-3.8154 0.44874,-3.8154 0.44875,-3.8155 0.44875,-3.81537 0.44875,-3.81544 0.44874,-3.81544 0.44875,-3.81543 0.44875,-3.81544 0.44875,-3.81543 0.29425,-2.58374 0.002,-0.25078 0.002,-0.25078 0.002,-0.25079 0.002,-0.25078 0.002,-0.25078 0.002,-0.25078 0.002,-0.25078 0.002,-0.25078 0.002,-0.25078 0.002,-0.25078 0.002,-0.25078 0.01,-0.31389 0.0355,-0.48792 0.0365,-0.44217 0.0374,-0.39951 0.0383,-0.36 0.0392,-0.3236 0.0401,-0.29032 0.0409,-0.26016 0.0417,-0.23312 0.0425,-0.20921 0.0433,-0.1884 0.044,-0.17074 0.0447,-0.15618 0.0454,-0.14411 0.046,-0.1328 0.0467,-0.12195 0.0474,-0.11155 0.0481,-0.10163 0.0488,-0.0922 0.0495,-0.0832 0.0503,-0.0746 0.051,-0.0665 0.0517,-0.0589 0.0525,-0.0517 0.0532,-0.045 0.054,-0.0387 0.0547,-0.0325 0.0554,-0.0263 0.0561,-0.0201 0.0568,-0.014 0.0575,-0.008 0.0582,-0.002 0.0588,0.004 0.0595,0.0102 0.0601,0.0162 0.0608,0.0221 0.0614,0.028 0.062,0.0339 0.0626,0.0401 0.0634,0.0466 0.0641,0.0533 0.065,0.0604 0.0659,0.0678 0.0668,0.0755 0.0679,0.0835 0.069,0.0918 0.0701,0.10038 0.0713,0.10929 0.0726,0.11851 0.0739,0.12792 0.075,0.13674 0.0757,0.14458 0.076,0.15147 0.0761,0.15738 0.0757,0.16234 0.075,0.16633 0.074,0.16935 0.0726,0.17142 0.0708,0.1725 0.0687,0.17264 0.0662,0.17181 0.0634,0.17009 0.0604,0.16832 0.0572,0.16702 0.0538,0.16618 0.0503,0.16583 0.0466,0.16593 0.0427,0.16651 0.0387,0.16756 0.0344,0.16908 0.0301,0.17106" id="path10519"/>
    <path style="fill:#f2f2f2;stroke:#000000;stroke-width:0.40000001;stroke-linecap:round;stroke-linejoin:miter;stroke-miterlimit:4;stroke-dasharray:none" d="m 511.89796,991.6911 0.0374,0.2152 0.037,0.2194 0.0366,0.2237 0.0362,0.2276 0.0359,0.2315 0.0355,0.2352 0.0352,0.2388 0.0348,0.2423 0.0345,0.2455 0.0342,0.2487 0.0339,0.2517 0.0336,0.2546 0.0333,0.2573 0.033,0.2598 0.0327,0.2623 0.0325,0.2646 0.0322,0.2667 0.032,0.2687 0.0317,0.2706 0.0315,0.2723 0.0313,0.2739 0.0311,0.2752 0.0617,0.5543 0.061,0.5583 0.0604,0.561 0.11936,1.1261 0.0591,0.5626 0.0589,0.5609 0.0587,0.5579 0.0586,0.5539 0.0293,0.2751 0.0293,0.2735 0.0293,0.2721 0.0293,0.2702 0.0293,0.2684 0.0294,0.2664 0.0294,0.2641 0.0295,0.2619 0.0296,0.2594 0.0297,0.2569 0.0149,0.1274 0.004,0.032 0.002,0.016 9.3e-4,0.01 h 5.4e-4 9.2e-4 l 0.007,0.017 0.008,0.014 0.008,0.012 0.008,0.01 0.008,0.01 0.008,0.01 h 0.008 0.008 0.0163 0.0164 0.0165 l 0.0331,-0.016 0.065,-0.037 0.063,-0.038 0.061,-0.038 0.0591,-0.038 0.0572,-0.039 0.0553,-0.039 0.0535,-0.04 0.0517,-0.04 0.05,-0.04 0.0483,-0.041 0.0466,-0.041 0.045,-0.042 0.0434,-0.042 0.0418,-0.042 0.0403,-0.042 0.0388,-0.043 0.0373,-0.043 0.0704,-0.087 0.0649,-0.088 0.0598,-0.089 0.0549,-0.09 0.0504,-0.091 0.0461,-0.091 0.0421,-0.092 0.0383,-0.092 0.0349,-0.093 0.0317,-0.093 0.0289,-0.093 0.0263,-0.094 0.024,-0.094 0.022,-0.094 0.0202,-0.093 0.0188,-0.093 0.009,-0.047 0.004,-0.023 0.002,-0.012 h 2.7e-4 l 1.3e-4,-7e-4 7e-5,-4e-4 -2.1e-4,-0.01 -0.002,-0.056 -0.004,-0.1127 -0.24083,-7.213 -0.48168,-14.4258 -0.48167,-14.42586 -0.24084,-7.21294 -0.0602,-1.80323 -0.015,-0.45081 -9.4e-4,-0.0282 -1.2e-4,-0.004 -6e-5,-0.002 -10e-6,-10e-5 -6e-5,-3.7e-4 -1.1e-4,-7.5e-4 -4.5e-4,-0.003 -9.1e-4,-0.006 -0.002,-0.0119 -0.007,-0.0474 -0.0145,-0.0931 -0.0145,-0.0907 -0.0145,-0.0885 -0.0145,-0.0864 -0.0146,-0.0844 -0.0146,-0.0825 -0.0147,-0.0808 -0.0148,-0.0791 -0.0149,-0.0776 -0.0151,-0.0761 -0.0306,-0.14848 -0.0313,-0.14414 -0.0322,-0.1407 -0.0332,-0.13818 -0.0343,-0.13656 -0.0356,-0.13584 -0.037,-0.13605 -0.0385,-0.13711 -0.0404,-0.13876 -0.0428,-0.14081 -0.0457,-0.14323 -0.0491,-0.14604 -0.0529,-0.14925 -0.0281,-0.0759 -0.0292,-0.0769 -0.0304,-0.0779 -0.0317,-0.0789 -0.033,-0.08 -0.0344,-0.0812 -0.0358,-0.0823 -0.0374,-0.0836 -0.0389,-0.0849 -0.0406,-0.0862 -0.0423,-0.0876 -0.044,-0.089 -0.0458,-0.0905 -0.0477,-0.092" id="path10521"/>
    <g id="g10535" transform="translate(48.997563,-18.004782)">
      <g id="g10527">
        <path style="display:inline;fill:#333333;fill-opacity:1;stroke:#ffffff;stroke-width:0.40000001;stroke-linecap:round;stroke-linejoin:round;stroke-miterlimit:4;stroke-dasharray:none;stroke-opacity:0" d="m 449.43411,1029.5953 c -0.19221,-0.4763 -0.44593,-1.0302 -0.69899,-1.5264 l -0.0984,-0.1929 0.0407,-0.076 c 0.0711,-0.1322 0.23444,-0.4191 0.33302,-0.5844 l 0.0351,-0.058 h 0.19788 c 0.1088,0 0.32721,0 0.48525,10e-5 h 0.28734 l 0.038,0.063 c 0.0846,0.141 0.30202,0.523 0.35397,0.6218 l 0.0178,0.034 -0.0514,0.099 c -0.27591,0.5303 -0.55213,1.1317 -0.77421,1.6857 l -0.0373,0.093 h -0.0324 -0.0324 l -0.0638,-0.1582 v 0 z" id="path10523"/>
        <path style="fill:#333333;fill-opacity:1;stroke:#ffffff;stroke-width:0.40000001;stroke-linecap:round;stroke-linejoin:round;stroke-miterlimit:4;stroke-dasharray:none;stroke-opacity:0" d="m 459.24045,1029.4445 c -0.19221,-0.4763 -0.44593,-1.0302 -0.69899,-1.5264 l -0.0984,-0.1929 0.0407,-0.076 c 0.0711,-0.1322 0.23444,-0.4191 0.33302,-0.5844 l 0.0351,-0.058 h 0.19788 c 0.1088,0 0.32721,0 0.48525,10e-5 h 0.28734 l 0.038,0.063 c 0.0846,0.141 0.30202,0.523 0.35397,0.6218 l 0.0178,0.034 -0.0514,0.099 c -0.27591,0.5303 -0.55213,1.1317 -0.77421,1.6857 l -0.0373,0.093 h -0.0324 -0.0324 l -0.0638,-0.1582 v 0 z" id="path10525"/>
      </g>
      <path id="path10529" d="m 453.36218,1028.9034 c 0.0796,-0.1563 0.22845,-0.4341 0.33063,-0.6173 l 0.1858,-0.3328 -0.21886,-0.3876 -0.21885,-0.3877 h -0.37607 c -0.32082,0 -0.37606,-0.011 -0.37606,-0.041 0,-0.033 -0.031,-0.039 -0.16249,-0.033 -0.15376,0.011 -0.16533,0.013 -0.21603,0.1012 l -0.0536,0.093 0.28159,0.541 c 0.15489,0.2976 0.36336,0.722 0.4633,0.9432 0.10002,0.2213 0.18937,0.4028 0.19875,0.4032 0.009,6e-4 0.0822,-0.1269 0.16187,-0.2832 z" style="display:inline;fill:#333333;fill-opacity:1;stroke:#ffffff;stroke-width:0.40000004;stroke-linecap:round;stroke-linejoin:round;stroke-miterlimit:4;stroke-dasharray:none;stroke-opacity:0"/>
      <path id="path10531" d="m 455.63045,1028.8837 c -0.0796,-0.1563 -0.22845,-0.4341 -0.33063,-0.6173 l -0.1858,-0.3328 0.21886,-0.3876 0.21885,-0.3877 h 0.37607 c 0.32082,0 0.37606,-0.011 0.37606,-0.041 0,-0.033 0.031,-0.039 0.16249,-0.033 0.15376,0.011 0.16533,0.013 0.21603,0.1012 l 0.0536,0.093 -0.28159,0.541 c -0.15489,0.2976 -0.36336,0.722 -0.4633,0.9432 -0.10002,0.2213 -0.18937,0.4028 -0.19875,0.4032 -0.009,6e-4 -0.0822,-0.1269 -0.16187,-0.2832 z" style="fill:#333333;fill-opacity:1;stroke:#ffffff;stroke-width:0.40000004;stroke-linecap:round;stroke-linejoin:round;stroke-miterlimit:4;stroke-dasharray:none;stroke-opacity:0"/>
      <path id="path10533" d="m 452.11995,1033.1464 c 0,-0.013 0.0827,-0.3814 0.0944,-0.4213 0.17333,-2.2494 0.35317,-1.7824 1.06368,-3.1473 0,-0.069 0.48397,-1.0478 0.75256,-1.5214 l 0.13701,-0.2416 v -0.3133 -0.3134 h 0.33569 0.33569 v 0.3176 0.3176 l 0.14387,0.2538 c 0.15052,0.2655 0.56612,1.0825 0.6625,1.3024 l 0.0561,0.1278 c 0.88203,2.4013 0.2186,0.2933 1.12629,3.3936 0.0231,0.1046 0.042,0.205 0.042,0.2233 0,0.033 -0.004,0.033 -2.375,0.033 -1.30625,0 -2.375,0 -2.375,-0.011 z" style="fill:#333333;fill-opacity:1;stroke:#ffffff;stroke-width:0.40000001;stroke-linecap:round;stroke-linejoin:round;stroke-miterlimit:4;stroke-dasharray:none;stroke-opacity:0"/>
    </g>
    <path style="fill:none;stroke:#000000;stroke-width:0.40000001;stroke-miterlimit:4;stroke-dasharray:none" d="m 494.14179,759.61019 h 18.64629" id="path10537"/>
    <path style="fill:none;stroke:#000000;stroke-width:0.40000001;stroke-miterlimit:4;stroke-dasharray:none" d="m 506.99586,1009.0098 h -1.01787" id="path10539"/>
    <path style="fill:none;stroke:#000000;stroke-width:0.40000001;stroke-miterlimit:4;stroke-dasharray:none" d="m 496.08857,1014.3262 h 4.91151" id="path10541"/>
    <path style="fill:none;stroke:#000000;stroke-width:0.40000001;stroke-miterlimit:4;stroke-dasharray:none" d="m 498.03539,1009.0098 h 1.01787" id="path10543"/>
    <path style="fill:none;stroke:#000000;stroke-width:0.40000001;stroke-miterlimit:4;stroke-dasharray:none" d="m 499.49364,1009.8367 a 17.17083,17.17083 0 0 0 -0.44038,-0.8269" id="path10545"/>
    <path style="fill:none;stroke:#000000;stroke-width:0.40000001;stroke-miterlimit:4;stroke-dasharray:none" d="m 498.03539,1009.0098 a 17.17083,17.17083 0 0 0 -0.44038,0.8269" id="path10547"/>
    <path style="fill:none;stroke:#000000;stroke-width:0.40000001;stroke-miterlimit:4;stroke-dasharray:none" d="m 501.41732,1009.0098 h 0.76414" id="path10549"/>
    <path style="fill:none;stroke:#000000;stroke-width:0.40000001;stroke-miterlimit:4;stroke-dasharray:none" d="m 502.92572,1009.9382 a 17.17083,17.17083 0 0 0 -0.44668,-0.8508" id="path10551"/>
    <path style="fill:none;stroke:#000000;stroke-width:0.40000001;stroke-miterlimit:4;stroke-dasharray:none" d="m 501.41732,1009.0098 a 17.17083,17.17083 0 0 0 -0.23272,0.4234" id="path10553"/>
    <path style="fill:none;stroke:#000000;stroke-width:0.40000001;stroke-miterlimit:4;stroke-dasharray:none" d="m 510.8413,1014.3262 h -4.91151" id="path10555"/>
    <path style="fill:none;stroke:#000000;stroke-width:0.40000001;stroke-miterlimit:4;stroke-dasharray:none" d="m 508.89448,1009.0098 h -1.01787" id="path10557"/>
    <path style="fill:none;stroke:#000000;stroke-width:0.40000001;stroke-miterlimit:4;stroke-dasharray:none" d="m 507.87661,1009.0098 a 17.17083,17.17083 0 0 0 -0.44038,0.8269" id="path10559"/>
    <path style="fill:none;stroke:#000000;stroke-width:0.40000001;stroke-miterlimit:4;stroke-dasharray:none" d="m 509.33486,1009.8367 a 17.17083,17.17083 0 0 0 -0.44038,-0.8269" id="path10561"/>
    <path style="fill:none;stroke:#000000;stroke-width:0.40000001;stroke-miterlimit:4;stroke-dasharray:none" d="m 505.51256,1009.0098 h -0.76415" id="path10563"/>
    <path style="fill:none;stroke:#000000;stroke-width:0.40000001;stroke-miterlimit:4;stroke-dasharray:none" d="m 502.18146,1009.0098 a 1.039466,1.039466 0 0 0 0.21611,-0.6843" id="path10565"/>
    <path style="fill:none;stroke:#000000;stroke-width:0.40000001;stroke-miterlimit:4;stroke-dasharray:none" d="m 498.70444,1009.0098 h 3.47702" id="path10567"/>
    <path style="fill:none;stroke:#000000;stroke-width:0.40000001;stroke-miterlimit:4;stroke-dasharray:none" d="m 504.53231,1008.3255 a 1.039466,1.039466 0 0 0 0.2161,0.6843" id="path10569"/>
    <path style="fill:none;stroke:#000000;stroke-width:0.40000001;stroke-miterlimit:4;stroke-dasharray:none" d="m 508.22544,1009.0098 a 1.039466,1.039466 0 0 0 0.2161,-0.6843" id="path10571"/>
    <path style="fill:none;stroke:#000000;stroke-width:0.40000001;stroke-miterlimit:4;stroke-dasharray:none" d="m 502.47904,1009.0874 h 1.9718" id="path10573"/>
    <path style="fill:none;stroke:#000000;stroke-width:0.40000001;stroke-miterlimit:4;stroke-dasharray:none" d="m 501.67184,1009.0098 a 1.039466,1.039466 0 0 0 0.0546,0.078" id="path10575"/>
    <path style="fill:none;stroke:#000000;stroke-width:0.40000001;stroke-miterlimit:4;stroke-dasharray:none" d="m 505.20345,1009.0874 a 1.039466,1.039466 0 0 0 0.0546,-0.078" id="path10577"/>
    <path style="fill:none;stroke:#000000;stroke-width:0.40000001;stroke-miterlimit:4;stroke-dasharray:none" d="m 501.72642,1009.0874 h 3.47703" id="path10579"/>
    <path style="fill:none;stroke:#000000;stroke-width:0.40000001;stroke-miterlimit:4;stroke-dasharray:none" d="m 504.50063,1009.0874 a 17.17083,17.17083 0 0 0 -0.44668,0.8508" id="path10581"/>
    <path style="fill:none;stroke:#000000;stroke-width:0.40000001;stroke-miterlimit:4;stroke-dasharray:none" d="m 504.50063,1009.0874 a 17.17083,17.17083 0 0 0 -0.44668,0.8508" id="path10583"/>
    <path style="fill:none;stroke:#000000;stroke-width:0.40000001;stroke-miterlimit:4;stroke-dasharray:none" d="m 505.77017,1009.3865 a 17.17083,17.17083 0 0 0 -0.20782,-0.3767" id="path10585"/>
    <path style="fill:none;stroke:#000000;stroke-width:0.40000001;stroke-miterlimit:4;stroke-dasharray:none" d="m 512.78808,713.11781 v 240.8685" id="path10587"/>
    <path style="fill:none;stroke:#000000;stroke-width:0.40000001;stroke-miterlimit:4;stroke-dasharray:none" d="m 501.21123,1014.3262 a 17.17083,17.17083 0 0 0 -0.17715,0.8306 h 4.91151 a 17.17083,17.17083 0 0 0 -0.17715,-0.8306" id="path10589"/>
    <path style="fill:none;stroke:#000000;stroke-width:0.40000001;stroke-miterlimit:4;stroke-dasharray:none" d="m 502.13199,1011.5493 a 17.17083,17.17083 0 0 1 0.84891,-1.7089 v -0.753" id="path10591"/>
    <path style="fill:none;stroke:#000000;stroke-width:0.40000001;stroke-miterlimit:4;stroke-dasharray:none" d="m 503.99877,1009.0874 v 0.753 a 17.17083,17.17083 0 0 1 0.82214,1.6468" id="path10593"/>
    <path style="fill:#333333;stroke:#000000;stroke-width:0.40000001;stroke-miterlimit:4;stroke-dasharray:none" d="m 498.54433,1012.1517 a 17.17083,17.17083 0 0 0 -1.38969,-3.1419 h -1.01787 a 17.17083,17.17083 0 0 0 -1.94682,5.3164 h 4.91151" id="path10595"/>
    <path style="fill:none;stroke:#000000;stroke-width:0.40000001;stroke-miterlimit:4;stroke-dasharray:none" d="m 508.38555,1008.7137 a 1.039466,1.039466 0 0 0 0.16011,0.2961 h 3.47703 a 1.039466,1.039466 0 0 0 0.2161,-0.6843" id="path10597"/>
    <path style="fill:#333333;stroke:#000000;stroke-width:0.40000001;stroke-miterlimit:4;stroke-dasharray:none" d="m 507.82842,1014.3262 h 4.91151 a 17.17083,17.17083 0 0 0 -1.94682,-5.3164 h -1.01787 a 17.17083,17.17083 0 0 0 -1.38969,3.1419" id="path10599"/>
    <path style="fill:#333333;stroke:#000000;stroke-width:0.40000001;stroke-miterlimit:4;stroke-dasharray:none" d="m 499.93402,1009.0098 a 17.17083,17.17083 0 0 0 -1.94682,5.3164 h 4.91151 a 17.17083,17.17083 0 0 0 -1.94682,-5.3164 z" id="path10601"/>
    <g transform="translate(1.49995,-18)" id="g10625">
      <g id="g10615" style="display:inline" transform="translate(265.14562,-98.587061)">
        <g id="g10607" style="fill:url(#linearGradient4050);fill-opacity:1">
          <path transform="translate(0,652.36218)" id="path10603" d="m 224.04566,168.79829 c -0.0649,-0.99658 -0.0874,-9.84646 -0.0501,-19.6664 0.0739,-19.40408 0.0624,-19.15902 1.12442,-24.12163 1.21193,-5.6633 3.52473,-10.11398 7.43541,-14.30849 1.54737,-1.65967 2.78626,-2.48788 3.72766,-2.49196 l 0.39774,-0.002 v 31.20109 31.20108 h -6.25856 -6.25856 l -0.11804,-1.81196 z" style="fill:url(#linearGradient4046);fill-opacity:1;stroke:none"/>
          <path transform="translate(0,652.36218)" id="path10605" d="m 227.53657,177.1068 c -0.0946,-0.12154 -0.7517,-1.29489 -1.4603,-2.60746 -0.70861,-1.31257 -1.44296,-2.64502 -1.6319,-2.96101 l -0.34353,-0.57452 h 6.28999 6.28999 v 3.18198 3.18198 h -4.48616 c -3.37938,0 -4.52857,-0.0545 -4.65809,-0.22097 z" style="fill:url(#linearGradient4048);fill-opacity:1;stroke:none"/>
        </g>
        <g transform="matrix(-1,0,0,1,473.68836,0)" id="g10613" style="display:inline;fill:url(#linearGradient4056);fill-opacity:1">
          <path transform="translate(0,652.36218)" id="path10609" d="m 224.04566,168.79829 c -0.0649,-0.99658 -0.0874,-9.84646 -0.0501,-19.6664 0.0739,-19.40408 0.0624,-19.15902 1.12442,-24.12163 1.21193,-5.6633 3.52473,-10.11398 7.43541,-14.30849 1.54737,-1.65967 2.78626,-2.48788 3.72766,-2.49196 l 0.39774,-0.002 v 31.20109 31.20108 h -6.25856 -6.25856 l -0.11804,-1.81196 z" style="fill:url(#linearGradient4052);fill-opacity:1;stroke:none"/>
          <path transform="translate(0,652.36218)" id="path10611" d="m 227.53657,177.1068 c -0.0946,-0.12154 -0.7517,-1.29489 -1.4603,-2.60746 -0.70861,-1.31257 -1.44296,-2.64502 -1.6319,-2.96101 l -0.34353,-0.57452 h 6.28999 6.28999 v 3.18198 3.18198 h -4.48616 c -3.37938,0 -4.52857,-0.0545 -4.65809,-0.22097 z" style="fill:url(#linearGradient4054);fill-opacity:1;stroke:none"/>
        </g>
      </g>
      <path id="path10617" d="m 492.64184,731.21889 h 18.64629" style="fill:none;stroke:#000000;stroke-width:0.40000001;stroke-miterlimit:4;stroke-dasharray:none"/>
      <path id="path10619" d="m 489.00233,724.54349 h 25.92532" style="fill:none;stroke:#000000;stroke-width:0.40000001;stroke-miterlimit:4;stroke-dasharray:none"/>
      <path id="path10621" d="m 492.64184,731.21889 -0.38918,-0.71383 -0.38919,-0.71382 -0.38919,-0.71383 -0.38919,-0.71383 -0.38919,-0.71383 -0.38918,-0.71383 -0.38919,-0.71382 -0.38919,-0.71383 -0.38919,-0.71383 -0.13682,-2.86445 v -4.03043 -4.03044 -4.03043 -4.03044 -4.03043 -4.03044 -4.03043 -4.03044 l 0.0147,-2.99114 0.0497,-0.52971 0.0505,-0.52972 0.0518,-0.52976 0.0538,-0.52981 0.0563,-0.52987 0.0594,-0.52995 0.0631,-0.53005 0.0674,-0.53015 0.0723,-0.53028 0.0777,-0.53039 0.0835,-0.5303 0.0894,-0.52988 0.0957,-0.52916 0.10209,-0.52812 0.10876,-0.52677 0.11564,-0.5251 0.12274,-0.52313 0.13007,-0.52083 0.13763,-0.51824 0.1454,-0.51531 0.1534,-0.51209 0.16162,-0.50854 0.17007,-0.50468 0.17873,-0.50051 0.18763,-0.49603 0.19674,-0.49123 0.20608,-0.48612 0.2156,-0.48076 0.22513,-0.47545 0.23456,-0.47037 0.2439,-0.46548 0.25318,-0.46079 0.26235,-0.45631 0.27144,-0.45203 0.28046,-0.44796 0.28938,-0.44408 0.29822,-0.4404 0.30698,-0.43694 0.31564,-0.43367 0.32423,-0.43061 0.33273,-0.42774 0.34115,-0.42509 0.34948,-0.42264 0.35772,-0.42038 0.36588,-0.41833 0.37404,-0.41619 0.38341,-0.40923 0.39501,-0.39366 0.40885,-0.36932 0.42494,-0.33626 0.44328,-0.29445 0.46388,-0.2439 0.4867,-0.18461 0.51186,-0.11775 0.54052,-0.0655 0.56508,-5e-4 0.54083,0.0652 0.51213,0.1171 0.48697,0.18399 0.46413,0.24336 0.44352,0.29399 0.42514,0.33589 0.409,0.36904 0.39511,0.39346 0.38344,0.40914 0.37399,0.41617 0.36577,0.41833 0.35758,0.42038 0.34929,0.42264 0.34095,0.42509 0.33252,0.42775 0.32403,0.43061 0.31547,0.43367 0.30682,0.43693 0.29812,0.44039 0.28934,0.44405 0.28048,0.44793 0.27155,0.45198 0.26256,0.45626 0.25349,0.46072 0.24434,0.4654 0.23513,0.47027 0.22584,0.47534 0.21648,0.48062 0.20711,0.48597 0.19789,0.49107 0.18885,0.49586 0.17999,0.50035 0.17131,0.50452 0.1628,0.50839 0.15448,0.51195 0.14632,0.5152 0.13837,0.51813 0.13057,0.52077 0.12296,0.52309 0.11553,0.52511 0.10828,0.52681 0.10121,0.52821 0.0943,0.52929 0.0876,0.53008 0.0811,0.53055 0.0747,0.53071 0.0687,0.53066 0.0632,0.5306 0.0585,0.53053 0.0544,0.53048 0.0509,0.53045 0.0481,0.5304 0.0459,0.53038 0.0444,0.53036 0.0436,0.53036 0.0129,2.99133 v 4.03044 4.03043 4.03044 4.03043 4.03044 4.03043 4.03044 4.03043 l -0.13683,2.86445 -0.38919,0.71383 -0.38918,0.71383 -0.38919,0.71382 -0.38919,0.71383 -0.38919,0.71383 -0.38919,0.71383 -0.38918,0.71383 -0.38919,0.71382 -0.38919,0.71383" style="fill:none;stroke:#000000;stroke-width:0.40000001;stroke-miterlimit:4;stroke-dasharray:none"/>
      <path id="path10623" d="M 501.96499,731.21889 V 661.80951" style="fill:none;stroke:#000000;stroke-width:0.40000001;stroke-miterlimit:4;stroke-dasharray:none"/>
    </g>
    <path style="fill:none;stroke:#000000;stroke-width:0.40000001;stroke-miterlimit:4;stroke-dasharray:none" d="m 497.97219,954.56663 -1.23406,-1.30732" id="path10627"/>
    <path style="fill:none;stroke:#000000;stroke-width:0.40000001;stroke-miterlimit:4;stroke-dasharray:none" d="m 496.73813,953.25931 h -2.25059" id="path10629"/>
    <path style="fill:none;stroke:#000000;stroke-width:0.40000001;stroke-miterlimit:4;stroke-dasharray:none" d="m 494.21863,983.6242 0.17448,-24.11936" id="path10631"/>
    <path style="fill:none;stroke:#000000;stroke-width:0.40000001;stroke-miterlimit:4;stroke-dasharray:none" d="m 494.39311,959.50484 2.16051,-2.92528" id="path10633"/>
    <path style="fill:none;stroke:#000000;stroke-width:0.40000001;stroke-miterlimit:4;stroke-dasharray:none" d="m 494.39311,959.50484 -1.03222,-2.67419" id="path10635"/>
    <path style="fill:none;stroke:#000000;stroke-width:0.40000001;stroke-linecap:round;stroke-miterlimit:4;stroke-dasharray:none" d="m 496.55362,956.57956 0.18451,-3.32025" id="path10637"/>
    <path style="fill:none;stroke:#000000;stroke-width:0.40000001;stroke-miterlimit:4;stroke-dasharray:none" d="M 494.14179,953.98631 V 713.11781" id="path10639"/>
    <path style="fill:none;stroke:#000000;stroke-width:0.40000001;stroke-miterlimit:4;stroke-dasharray:none" d="m 493.528,1004.254 h 0.61379" id="path10641"/>
    <path style="fill:none;stroke:#000000;stroke-width:0.40000001;stroke-miterlimit:4;stroke-dasharray:none" d="m 493.45292,1004.91 h 0.68887" id="path10643"/>
    <path style="fill:none;stroke:#000000;stroke-width:0.40000001;stroke-miterlimit:4;stroke-dasharray:none" d="m 512.78808,998.507 v 8.3097 a 2.998421,2.998421 0 0 1 -0.48904,1.5088 h -8.8341 -8.8341 a 2.998421,2.998421 0 0 1 -0.48905,-1.5088 v -8.3097" id="path10645"/>
    <path style="fill:none;stroke:#000000;stroke-width:0.40000001;stroke-miterlimit:4;stroke-dasharray:none" d="m 503.15901,1004.91 h 0.61185" id="path10647"/>
    <path style="fill:none;stroke:#000000;stroke-width:0.40000001;stroke-miterlimit:4;stroke-dasharray:none" d="m 503.35537,1004.254 h 0.21914" id="path10649"/>
    <path style="fill:none;stroke:#000000;stroke-width:0.40000001;stroke-miterlimit:4;stroke-dasharray:none" d="m 492.20961,1004.1576 0.11841,-1.5018 0.11841,-1.5018 0.11841,-1.5018 0.1184,-1.5018 0.11841,-1.5018 0.11841,-1.5018 0.11841,-1.5018 0.11841,-1.5018 0.11841,-1.5018 0.1184,-1.5018 0.11841,-1.5018 0.11841,-1.5018 0.11841,-1.5018 0.0498,-0.4765 0.033,-0.1192 0.0392,-0.1024 0.0448,-0.086 0.0498,-0.071 0.054,-0.057 0.0577,-0.043 0.0606,-0.031 0.0629,-0.019 0.0645,-0.01 h 0.0655 l 0.0657,0.01 0.0654,0.018 0.0644,0.025 0.063,0.032 0.0615,0.038 0.06,0.043 0.0584,0.047 0.0568,0.052 0.0551,0.055 0.0533,0.058 0.0514,0.06 0.0495,0.062 0.0476,0.063 0.0455,0.064 0.0435,0.064 0.17689,0.44 0.58285,1.5693 0.58284,1.5693 0.58285,1.5693 0.58285,1.5694 0.58284,1.5693 0.58285,1.5693 0.58285,1.5693 0.58284,1.5693 0.58285,1.5693 0.58284,1.5694 0.58285,1.5693 0.58285,1.5693 0.58284,1.5693" id="path10651"/>
    <path style="fill:none;stroke:#000000;stroke-width:0.40000001;stroke-miterlimit:4;stroke-dasharray:none" d="m 508.95769,954.56663 1.23405,-1.30732" id="path10653"/>
    <path style="fill:none;stroke:#000000;stroke-width:0.40000001;stroke-miterlimit:4;stroke-dasharray:none" d="m 510.19174,953.25931 h 2.25059" id="path10655"/>
    <path style="fill:none;stroke:#000000;stroke-width:0.40000001;stroke-miterlimit:4;stroke-dasharray:none" d="m 512.71124,983.6242 -0.17447,-24.11936" id="path10657"/>
    <path style="fill:none;stroke:#000000;stroke-width:0.40000001;stroke-miterlimit:4;stroke-dasharray:none" d="m 512.53677,959.50484 -2.16051,-2.92528" id="path10659"/>
    <path style="fill:none;stroke:#000000;stroke-width:0.40000001;stroke-miterlimit:4;stroke-dasharray:none" d="m 512.53677,959.50484 1.03221,-2.67419" id="path10661"/>
    <path style="fill:none;stroke:#000000;stroke-width:0.40000001;stroke-linecap:round;stroke-miterlimit:4;stroke-dasharray:none" d="m 510.37626,956.57956 -0.18452,-3.32025" id="path10663"/>
    <path style="fill:none;stroke:#000000;stroke-width:0.40000001;stroke-miterlimit:4;stroke-dasharray:none" d="m 513.40187,1004.254 h -0.61379" id="path10665"/>
    <path style="fill:none;stroke:#000000;stroke-width:0.40000001;stroke-miterlimit:4;stroke-dasharray:none" d="m 513.47695,1004.91 h -0.68887" id="path10667"/>
    <path style="fill:none;stroke:#000000;stroke-width:0.40000001;stroke-miterlimit:4;stroke-dasharray:none" d="m 514.72026,1004.1576 -0.11841,-1.5018 -0.1184,-1.5018 -0.11841,-1.5018 -0.11841,-1.5018 -0.11841,-1.5018 -0.11841,-1.5018 -0.11841,-1.5018 -0.1184,-1.5018 -0.11841,-1.5018 -0.11841,-1.5018 -0.11841,-1.5018 -0.11841,-1.5018 -0.1184,-1.5018 -0.0498,-0.4765 -0.033,-0.1192 -0.0392,-0.1024 -0.0448,-0.086 -0.0498,-0.071 -0.054,-0.057 -0.0577,-0.043 -0.0606,-0.031 -0.0629,-0.019 -0.0645,-0.01 h -0.0655 l -0.0658,0.01 -0.0654,0.018 -0.0644,0.025 -0.063,0.032 -0.0615,0.038 -0.06,0.043 -0.0584,0.047 -0.0568,0.052 -0.0551,0.055 -0.0533,0.058 -0.0514,0.06 -0.0495,0.062 -0.0476,0.063 -0.0455,0.064 -0.0435,0.064 -0.17689,0.44 -0.58284,1.5693 -0.58285,1.5693 -0.58285,1.5693 -0.58284,1.5694 -0.58285,1.5693 -0.58285,1.5693 -0.58284,1.5693 -0.58285,1.5693 -0.58284,1.5693 -0.58285,1.5694 -0.58285,1.5693 -0.58284,1.5693 -0.58285,1.5693" id="path10669"/>
    <path style="fill:#333333;stroke:#000000;stroke-width:0.40000001;stroke-miterlimit:4;stroke-dasharray:none" d="m 506.99586,1009.0098 a 17.17083,17.17083 0 0 1 1.94682,5.3164 h -4.91151 a 17.17083,17.17083 0 0 1 1.94682,-5.3164" id="path10671"/>
    <path style="fill:none;stroke:#000000;stroke-width:0.40000001;stroke-miterlimit:4;stroke-dasharray:none" d="m 504.74841,1009.0098 h 3.47703" id="path10673"/>
    <path style="fill:none;stroke:#000000;stroke-width:0.40000001;stroke-miterlimit:4;stroke-dasharray:none" d="m 494.69108,1008.3255 a 1.039466,1.039466 0 0 0 0.21611,0.6843 h 3.47703 a 1.039466,1.039466 0 0 0 0.16011,-0.2961" id="path10675"/>
    <path style="fill:none;stroke:#000000;stroke-width:0.40000001;stroke-miterlimit:4;stroke-dasharray:none" d="m 498.48833,1008.3255 a 1.039466,1.039466 0 0 0 0.21611,0.6843" id="path10677"/>
    <path style="fill:none;stroke:#000000;stroke-width:0.40000001;stroke-miterlimit:4;stroke-dasharray:none" d="m 494.14179,795.30272 h 18.64629" id="path10679"/>
    <g transform="translate(321.31276)" id="g10701">
      <path style="fill:#005288" id="path10681" d="m 183.56121,941.89569 h -3.86836 l -0.14333,0.10719 v 3.44129 h 1.07086 v -1.29047 l 0.10222,-0.0916 h 2.83874 c 0.71676,0 1.0528,-0.19285 1.0528,-0.68766 v -0.79015 c -1.4e-4,-0.49563 -0.33604,-0.68861 -1.05293,-0.68861 m 0,1.27226 c 0,0.23312 -0.15423,0.28155 -0.49025,0.28155 h -2.33664 l -0.11407,-0.11092 v -0.73717 l 0.10221,-0.0935 h 2.3485 c 0.33602,0 0.49025,0.0479 0.49025,0.2821 v 0.37797 z"/>
      <polyline style="fill:#005288" id="polyline10683" points="99.081,19.813 105.761,29.6 105.391,30.548 90.618,30.548 86.847,35.187 108.837,35.187 110.361,36.115 113.775,40.824 122.659,40.824 103.186,14.775" transform="matrix(0.137944,0,0,0.137944,167.65337,946.98921)"/>
      <g id="g10689" transform="matrix(0.137944,0,0,0.137944,154.89541,962.71968)">
        <polyline points="187.418,35.757 187.418,28.833 188.217,28.143 203.079,28.143 203.079,23.734 179.524,23.734 179.524,40.823 214.27,40.823 214.27,36.435 188.252,36.435" id="polyline10685" style="fill:#005288"/>
        <rect x="179.524" y="15.094" width="35.112999" height="4.848" id="rect10687" style="fill:#005288"/>
      </g>
      <path style="fill:#005288" id="path10691" d="m 180.7326,957.40219 h 3.90216 c -0.0601,-0.49619 -0.36803,-0.63385 -1.14908,-0.63385 h -2.7946 c -0.88133,0 -1.16246,0.17201 -1.16246,0.83897 v 1.87121 c 0,0.66765 0.28113,0.83967 1.16246,0.83967 h 2.7946 c 0.79249,0 1.09597,-0.14885 1.11666,-0.66352 h -3.86974 l -0.11477,-0.108 v -2.0722"/>
      <path style="fill:#005288" id="path10693" d="m 183.51939,935.10176 h -2.83875 l -0.0836,-0.092 v -0.60723 l 0.0832,-0.0643 h 3.82685 l 0.0523,-0.12787 c -0.13036,-0.33534 -0.46791,-0.49177 -1.09472,-0.49177 h -2.65833 c -0.88076,0 -1.16231,0.17201 -1.16231,0.83897 v 0.39232 c 0,0.66778 0.28155,0.83952 1.16231,0.83952 h 2.83241 l 0.089,0.0781 v 0.63482 l -0.0725,0.099 h -3.23989 v -0.003 h -0.84863 c 0,0 -0.0971,0.0487 -0.0934,0.0715 0.0724,0.46652 0.39025,0.59867 1.15114,0.59867 h 2.89503 c 0.88064,0 1.17059,-0.17201 1.17059,-0.83966 v -0.48874 c 0,-0.66654 -0.28995,-0.83828 -1.17059,-0.83828"/>
      <path style="fill:#005288" id="path10695" d="m 180.7866,973.03015 h -1.59339 l -0.0865,0.16456 1.76954,1.28992 c 0.33521,-0.19409 0.69994,-0.3908 1.09666,-0.58489"/>
      <path style="fill:#005288" id="path10697" d="m 182.21432,975.46003 1.55532,1.13417 h 1.61285 l 0.0668,-0.15022 -2.32242,-1.69988 c -0.30845,0.22637 -0.61316,0.46542 -0.9125,0.71593"/>
      <path style="fill:#a7a9ac" id="path10699" d="m 180.54948,976.59158 h -1.44166 l -0.1218,-0.19077 c 0.98023,-0.94644 5.45603,-4.50343 11.28185,-4.95595 0,0 -5.09615,0.56584 -9.71839,5.14672"/>
    </g>
    <g id="g10765" transform="translate(233.331,-20)">
      <g transform="matrix(0.00124141,0,0,0.00132576,265.51549,803.69746)" id="g10739">
        <rect style="fill:#b22234" y="0" x="0" id="rect10703" height="3900" width="7410"/>
        <path style="stroke:#ffffff;stroke-width:300" id="path10705" d="m 0,450 h 7410 m 0,600 H 0 m 0,600 h 7410 m 0,600 H 0 m 0,600 h 7410 m 0,600 H 0"/>
        <rect style="fill:#3c3b6e" y="0" x="0" id="rect10707" height="2100" width="2964"/>
        <g style="fill:#ffffff" id="g10737">
          <g id="g10729">
            <g id="g10725">
              <g id="g10721">
                <g id="g10717">
                  <path d="M 247,90 317.53423,307.08204 132.87322,172.91796 H 361.12678 L 176.46577,307.08204 Z" id="path10709"/>
                  <path d="M 247,90 317.53423,307.08204 132.87322,172.91796 H 361.12678 L 176.46577,307.08204 Z" id="use10711" transform="matrix(1, 0, 0, 1, 0, 420)"/>
                  <path d="M 247,90 317.53423,307.08204 132.87322,172.91796 H 361.12678 L 176.46577,307.08204 Z" id="use10713" transform="matrix(1, 0, 0, 1, 0, 840)"/>
                  <path d="M 247,90 317.53423,307.08204 132.87322,172.91796 H 361.12678 L 176.46577,307.08204 Z" id="use10715" transform="matrix(1, 0, 0, 1, 0, 1260)"/>
                </g>
                <path d="M 247,90 317.53423,307.08204 132.87322,172.91796 H 361.12678 L 176.46577,307.08204 Z" id="use10719" transform="matrix(1, 0, 0, 1, 0, 1680)"/>
              </g>
              <g id="use10723" transform="matrix(1, 0, 0, 1, 247, 210)">
                <path d="M 247,90 317.53423,307.08204 132.87322,172.91796 H 361.12678 L 176.46577,307.08204 Z"/>
                <path d="M 247,90 317.53423,307.08204 132.87322,172.91796 H 361.12678 L 176.46577,307.08204 Z" transform="matrix(1, 0, 0, 1, 0, 420)"/>
                <path d="M 247,90 317.53423,307.08204 132.87322,172.91796 H 361.12678 L 176.46577,307.08204 Z" transform="matrix(1, 0, 0, 1, 0, 840)"/>
                <path d="M 247,90 317.53423,307.08204 132.87322,172.91796 H 361.12678 L 176.46577,307.08204 Z" transform="matrix(1, 0, 0, 1, 0, 1260)"/>
              </g>
            </g>
            <g id="use10727" transform="matrix(1, 0, 0, 1, 494, 0)">
              <g>
                <g>
                  <path d="M 247,90 317.53423,307.08204 132.87322,172.91796 H 361.12678 L 176.46577,307.08204 Z"/>
                  <path d="M 247,90 317.53423,307.08204 132.87322,172.91796 H 361.12678 L 176.46577,307.08204 Z" transform="matrix(1, 0, 0, 1, 0, 420)"/>
                  <path d="M 247,90 317.53423,307.08204 132.87322,172.91796 H 361.12678 L 176.46577,307.08204 Z" transform="matrix(1, 0, 0, 1, 0, 840)"/>
                  <path d="M 247,90 317.53423,307.08204 132.87322,172.91796 H 361.12678 L 176.46577,307.08204 Z" transform="matrix(1, 0, 0, 1, 0, 1260)"/>
                </g>
                <path d="M 247,90 317.53423,307.08204 132.87322,172.91796 H 361.12678 L 176.46577,307.08204 Z" transform="matrix(1, 0, 0, 1, 0, 1680)"/>
              </g>
              <g transform="matrix(1, 0, 0, 1, 247, 210)">
                <path d="M 247,90 317.53423,307.08204 132.87322,172.91796 H 361.12678 L 176.46577,307.08204 Z"/>
                <path d="M 247,90 317.53423,307.08204 132.87322,172.91796 H 361.12678 L 176.46577,307.08204 Z" transform="matrix(1, 0, 0, 1, 0, 420)"/>
                <path d="M 247,90 317.53423,307.08204 132.87322,172.91796 H 361.12678 L 176.46577,307.08204 Z" transform="matrix(1, 0, 0, 1, 0, 840)"/>
                <path d="M 247,90 317.53423,307.08204 132.87322,172.91796 H 361.12678 L 176.46577,307.08204 Z" transform="matrix(1, 0, 0, 1, 0, 1260)"/>
              </g>
            </g>
          </g>
          <g id="use10731" transform="matrix(1, 0, 0, 1, 988, 0)">
            <g>
              <g>
                <g>
                  <path d="M 247,90 317.53423,307.08204 132.87322,172.91796 H 361.12678 L 176.46577,307.08204 Z"/>
                  <path d="M 247,90 317.53423,307.08204 132.87322,172.91796 H 361.12678 L 176.46577,307.08204 Z" transform="matrix(1, 0, 0, 1, 0, 420)"/>
                  <path d="M 247,90 317.53423,307.08204 132.87322,172.91796 H 361.12678 L 176.46577,307.08204 Z" transform="matrix(1, 0, 0, 1, 0, 840)"/>
                  <path d="M 247,90 317.53423,307.08204 132.87322,172.91796 H 361.12678 L 176.46577,307.08204 Z" transform="matrix(1, 0, 0, 1, 0, 1260)"/>
                </g>
                <path d="M 247,90 317.53423,307.08204 132.87322,172.91796 H 361.12678 L 176.46577,307.08204 Z" transform="matrix(1, 0, 0, 1, 0, 1680)"/>
              </g>
              <g transform="matrix(1, 0, 0, 1, 247, 210)">
                <path d="M 247,90 317.53423,307.08204 132.87322,172.91796 H 361.12678 L 176.46577,307.08204 Z"/>
                <path d="M 247,90 317.53423,307.08204 132.87322,172.91796 H 361.12678 L 176.46577,307.08204 Z" transform="matrix(1, 0, 0, 1, 0, 420)"/>
                <path d="M 247,90 317.53423,307.08204 132.87322,172.91796 H 361.12678 L 176.46577,307.08204 Z" transform="matrix(1, 0, 0, 1, 0, 840)"/>
                <path d="M 247,90 317.53423,307.08204 132.87322,172.91796 H 361.12678 L 176.46577,307.08204 Z" transform="matrix(1, 0, 0, 1, 0, 1260)"/>
              </g>
            </g>
            <g transform="matrix(1, 0, 0, 1, 494, 0)">
              <g>
                <g>
                  <path d="M 247,90 317.53423,307.08204 132.87322,172.91796 H 361.12678 L 176.46577,307.08204 Z"/>
                  <path d="M 247,90 317.53423,307.08204 132.87322,172.91796 H 361.12678 L 176.46577,307.08204 Z" transform="matrix(1, 0, 0, 1, 0, 420)"/>
                  <path d="M 247,90 317.53423,307.08204 132.87322,172.91796 H 361.12678 L 176.46577,307.08204 Z" transform="matrix(1, 0, 0, 1, 0, 840)"/>
                  <path d="M 247,90 317.53423,307.08204 132.87322,172.91796 H 361.12678 L 176.46577,307.08204 Z" transform="matrix(1, 0, 0, 1, 0, 1260)"/>
                </g>
                <path d="M 247,90 317.53423,307.08204 132.87322,172.91796 H 361.12678 L 176.46577,307.08204 Z" transform="matrix(1, 0, 0, 1, 0, 1680)"/>
              </g>
              <g transform="matrix(1, 0, 0, 1, 247, 210)">
                <path d="M 247,90 317.53423,307.08204 132.87322,172.91796 H 361.12678 L 176.46577,307.08204 Z"/>
                <path d="M 247,90 317.53423,307.08204 132.87322,172.91796 H 361.12678 L 176.46577,307.08204 Z" transform="matrix(1, 0, 0, 1, 0, 420)"/>
                <path d="M 247,90 317.53423,307.08204 132.87322,172.91796 H 361.12678 L 176.46577,307.08204 Z" transform="matrix(1, 0, 0, 1, 0, 840)"/>
                <path d="M 247,90 317.53423,307.08204 132.87322,172.91796 H 361.12678 L 176.46577,307.08204 Z" transform="matrix(1, 0, 0, 1, 0, 1260)"/>
              </g>
            </g>
          </g>
          <g id="use10733" transform="matrix(1, 0, 0, 1, 1976, 0)">
            <g>
              <g>
                <path d="M 247,90 317.53423,307.08204 132.87322,172.91796 H 361.12678 L 176.46577,307.08204 Z"/>
                <path d="M 247,90 317.53423,307.08204 132.87322,172.91796 H 361.12678 L 176.46577,307.08204 Z" transform="matrix(1, 0, 0, 1, 0, 420)"/>
                <path d="M 247,90 317.53423,307.08204 132.87322,172.91796 H 361.12678 L 176.46577,307.08204 Z" transform="matrix(1, 0, 0, 1, 0, 840)"/>
                <path d="M 247,90 317.53423,307.08204 132.87322,172.91796 H 361.12678 L 176.46577,307.08204 Z" transform="matrix(1, 0, 0, 1, 0, 1260)"/>
              </g>
              <path d="M 247,90 317.53423,307.08204 132.87322,172.91796 H 361.12678 L 176.46577,307.08204 Z" transform="matrix(1, 0, 0, 1, 0, 1680)"/>
            </g>
            <g transform="matrix(1, 0, 0, 1, 247, 210)">
              <path d="M 247,90 317.53423,307.08204 132.87322,172.91796 H 361.12678 L 176.46577,307.08204 Z"/>
              <path d="M 247,90 317.53423,307.08204 132.87322,172.91796 H 361.12678 L 176.46577,307.08204 Z" transform="matrix(1, 0, 0, 1, 0, 420)"/>
              <path d="M 247,90 317.53423,307.08204 132.87322,172.91796 H 361.12678 L 176.46577,307.08204 Z" transform="matrix(1, 0, 0, 1, 0, 840)"/>
              <path d="M 247,90 317.53423,307.08204 132.87322,172.91796 H 361.12678 L 176.46577,307.08204 Z" transform="matrix(1, 0, 0, 1, 0, 1260)"/>
            </g>
          </g>
          <g id="use10735" transform="matrix(1, 0, 0, 1, 2470, 0)">
            <g>
              <path d="M 247,90 317.53423,307.08204 132.87322,172.91796 H 361.12678 L 176.46577,307.08204 Z"/>
              <path d="M 247,90 317.53423,307.08204 132.87322,172.91796 H 361.12678 L 176.46577,307.08204 Z" transform="matrix(1, 0, 0, 1, 0, 420)"/>
              <path d="M 247,90 317.53423,307.08204 132.87322,172.91796 H 361.12678 L 176.46577,307.08204 Z" transform="matrix(1, 0, 0, 1, 0, 840)"/>
              <path d="M 247,90 317.53423,307.08204 132.87322,172.91796 H 361.12678 L 176.46577,307.08204 Z" transform="matrix(1, 0, 0, 1, 0, 1260)"/>
            </g>
            <path d="M 247,90 317.53423,307.08204 132.87322,172.91796 H 361.12678 L 176.46577,307.08204 Z" transform="matrix(1, 0, 0, 1, 0, 1680)"/>
          </g>
        </g>
      </g>
      <g transform="matrix(0.83861708,0,0,0.83861708,-387.4661,146.6637)" style="display:inline" id="g10763">
        <g transform="matrix(0.03300322,0,0,0.02935723,823.88193,760.14368)" id="g10745" style="display:inline;fill:#a80126;fill-opacity:1;stroke:none">
          <path style="color:#000000;display:inline;overflow:visible;visibility:visible;opacity:1;fill:#a80126;fill-opacity:1;fill-rule:evenodd;stroke:none;stroke-width:2.94154143;stroke-linecap:round;stroke-linejoin:round;stroke-miterlimit:4;stroke-dasharray:none;stroke-dashoffset:0;stroke-opacity:1;marker:none;enable-background:accumulate" d="m -1300.4606,480.36235 c 11.1133,-6.6876 22.2943,-13.20693 34.0114,-18.38464 -132.6286,-78.44738 -140.0615,-137.41999 -167.3002,-199.47327 20.975,71.86273 38.4963,143.61399 133.2888,217.85791 z" id="path10741"/>
          <path style="color:#000000;display:inline;overflow:visible;visibility:visible;opacity:1;fill:#a80126;fill-opacity:1;fill-rule:evenodd;stroke:none;stroke-width:0.58830827;stroke-linecap:round;stroke-linejoin:round;stroke-miterlimit:4;stroke-dasharray:none;stroke-dashoffset:0;stroke-opacity:1;marker:none;enable-background:accumulate" d="m -1369.5513,362.60714 c 50.5297,47.50445 94.389,81.3501 126.7489,91.64934 31.9861,-19.18623 137.8211,-29.61473 135.5239,-2.54979 -23.1658,-12.83454 -36.93,-6.74784 -50.0493,-2.00169 6.6053,-0.10298 24.0357,-2.2755 29.2796,-0.20296 -2.1318,2.89786 -4.4484,4.14017 -6.8385,5.76748 8.5624,2.10321 16.6491,4.84327 23.3833,9.38558 4.3636,-0.46771 7.2164,-0.34714 8.5499,1.17391 -4.4528,1.31778 -9.8198,7.73867 -12.4497,12.09421 29.4119,0.9413 60.7314,0.61184 64.0243,35.48058 9.2723,-30.88118 -7.307,-46.9358 -39.6496,-53.94965 -4.2387,-10.57482 -11.0706,-19.59771 -17.7011,-29.82074 -88.3877,-5.55362 -176.6731,-12.29711 -260.8217,-67.02627 z" id="path10743"/>
        </g>
        <path id="path10747" d="m 776.39355,777.84362 v -1.76612 h 1.18225 c -0.0468,0.061 -0.0864,0.12474 -0.18639,0.1644 h -0.74024 v 0.46501 h 0.66035 c -0.0374,0.0561 -0.079,0.10815 -0.14911,0.13152 h -0.51124 v 0.62942 c -0.0537,0.14329 -0.12508,0.27641 -0.25562,0.37577 z" style="color:#000000;display:inline;overflow:visible;visibility:visible;opacity:1;fill:#000000;fill-opacity:1;fill-rule:evenodd;stroke:none;stroke-width:0.02;stroke-linecap:round;stroke-linejoin:round;stroke-miterlimit:4;stroke-dasharray:none;stroke-dashoffset:0;stroke-opacity:1;marker:none;enable-background:accumulate"/>
        <path id="path10749" d="m 779.58348,776.26068 v 1.29171 h 0.3355 v -1.21654 c -0.45444,-0.41336 -0.90887,-0.41334 -1.36331,0 v 1.21654 h 0.30355 v -0.71396 h 0.23964 c 0.0558,-0.0289 0.0946,-0.0634 0.11716,-0.10333 h -0.35148 v -0.46972 c 0.26966,-0.18552 0.48464,-0.18521 0.71894,-0.005 z" style="color:#000000;display:inline;overflow:visible;visibility:visible;opacity:1;fill:#000000;fill-opacity:1;fill-rule:evenodd;stroke:none;stroke-width:0.02;stroke-linecap:round;stroke-linejoin:round;stroke-miterlimit:4;stroke-dasharray:none;stroke-dashoffset:0;stroke-opacity:1;marker:none;enable-background:accumulate"/>
        <path id="path10751" d="m 783.08693,777.59467 h -1.36264 v -1.48898 h 0.34083 v 1.36685 h 1.19821 c -0.05,0.0459 -0.0757,0.10658 -0.1764,0.12213 z" style="color:#000000;display:inline;overflow:visible;visibility:visible;opacity:1;fill:#000000;fill-opacity:1;fill-rule:evenodd;stroke:none;stroke-width:0.02;stroke-linecap:round;stroke-linejoin:round;stroke-miterlimit:4;stroke-dasharray:none;stroke-dashoffset:0;stroke-opacity:1;marker:none;enable-background:accumulate"/>
        <path id="path10753" d="m 785.12294,776.078 v 0.29228 c -0.54701,0.74211 0.38554,1.63269 1.4347,0.9798 l 0.0791,-0.0164 c -0.65052,0.73444 -3.03363,0.13829 -1.51374,-1.25563 z" style="color:#000000;display:inline;overflow:visible;visibility:visible;opacity:1;fill:#000000;fill-opacity:1;fill-rule:evenodd;stroke:none;stroke-width:0.02;stroke-linecap:round;stroke-linejoin:round;stroke-miterlimit:4;stroke-dasharray:none;stroke-dashoffset:0;stroke-opacity:1;marker:none;enable-background:accumulate"/>
        <path id="path10755" d="m 784.40296,776.11632 v 0.53901 c 0.52314,-0.9429 1.24853,-1.41209 3.46981,-0.78644 -2.13059,-0.83689 -2.92137,-0.39839 -3.46981,0.24743 z" style="color:#000000;display:inline;overflow:visible;visibility:visible;opacity:1;fill:#000000;fill-opacity:1;fill-rule:evenodd;stroke:none;stroke-width:0.02;stroke-linecap:round;stroke-linejoin:round;stroke-miterlimit:4;stroke-dasharray:none;stroke-dashoffset:0;stroke-opacity:1;marker:none;enable-background:accumulate"/>
        <path id="path10757" transform="translate(60.793184,628.22097)" d="m 727.74805,147.74023 c -0.44504,0.007 -0.89118,0.30411 -0.88867,0.86719 0.005,1.12616 1.77681,1.18357 1.77734,0 2.6e-4,-0.59178 -0.44364,-0.87436 -0.88867,-0.86719 z m -0.004,0.11719 c 0.26392,-0.003 0.52905,0.24468 0.53125,0.75 0.005,1.01064 -1.04599,0.98776 -1.05273,0 -0.004,-0.49388 0.25756,-0.74714 0.52148,-0.75 z" style="color:#000000;display:inline;overflow:visible;visibility:visible;opacity:1;fill:#000000;fill-opacity:1;fill-rule:evenodd;stroke:none;stroke-width:0.02;stroke-linecap:round;stroke-linejoin:round;stroke-miterlimit:4;stroke-dasharray:none;stroke-dashoffset:0;stroke-opacity:1;marker:none;enable-background:accumulate"/>
        <path id="path10759" d="m 791.0877,776.264 v 1.34182 h -0.26472 v -1.40825 l 0.26586,-0.12881 -0.002,0.061 c 0.40971,-0.009 0.69591,0.17823 0.77056,0.28164 v 1.20772 h -0.25804 v -1.18624 c -0.0949,-0.15792 -0.20101,-0.19757 -0.51212,-0.20108 z" style="color:#000000;display:inline;overflow:visible;visibility:visible;opacity:1;fill:#000000;fill-opacity:1;fill-rule:evenodd;stroke:none;stroke-width:0.02;stroke-linecap:round;stroke-linejoin:round;stroke-miterlimit:4;stroke-dasharray:none;stroke-dashoffset:0;stroke-opacity:1;marker:none;enable-background:accumulate"/>
        <path id="path10761" transform="translate(60.793184,628.22097)" d="m 723.35352,150.42188 c -2.7397,0.0125 -2.03035,2.20961 -0.51563,2.16601 0.70614,-0.0203 0.83974,-0.094 1.3125,-0.59961 -0.29549,1.48111 -1.30134,1.4817 -2.51172,1.59961 -0.15206,0.0998 -0.18293,0.12076 -0.28711,0.28125 2.05521,-0.0414 3.77902,-0.40709 3.72852,-2.00195 -0.0353,-1.11572 -0.78209,-1.44932 -1.72656,-1.44531 z m -0.041,0.26562 a 0.90375179,0.71076995 0 0 1 0.9043,0.71094 0.90375179,0.71076995 0 0 1 -0.9043,0.70898 0.90375179,0.71076995 0 0 1 -0.90234,-0.70898 0.90375179,0.71076995 0 0 1 0.90234,-0.71094 z" style="color:#000000;display:inline;overflow:visible;visibility:visible;opacity:1;fill:#000000;fill-opacity:1;fill-rule:evenodd;stroke:none;stroke-width:0.02;stroke-linecap:round;stroke-linejoin:round;stroke-miterlimit:4;stroke-dasharray:none;stroke-dashoffset:0;stroke-opacity:1;marker:none;enable-background:accumulate"/>
      </g>
    </g>
    <g id="g10855" transform="translate(233.33264,1.4732936)" style="stroke-width:0.2;stroke-miterlimit:4;stroke-dasharray:none">
      <g id="g10809" style="stroke-width:0.2;stroke-miterlimit:4;stroke-dasharray:none">
        <path style="color:#000000;display:inline;overflow:visible;visibility:visible;opacity:1;fill:#ffffff;fill-opacity:1;fill-rule:evenodd;stroke:#040404;stroke-width:0.2;stroke-linecap:round;stroke-linejoin:round;stroke-miterlimit:4;stroke-dasharray:none;stroke-dashoffset:0;stroke-opacity:1;marker:none;enable-background:accumulate" d="m 279.73172,799.13656 0.0312,-6.40625 -1.0625,-1.5625 0.0312,-1.6875 -0.84375,-1.59375 -0.28125,-0.90625 -0.6875,-0.25 -0.6875,0.0625 -0.40625,0.125 -0.375,1 -0.21875,1.09375 -0.0312,0.9375 v 1 l 0.0937,0.71875 -0.8125,0.90625 v 6.46875 l 0.625,0.125 z" id="path10767"/>
        <path style="color:#000000;display:inline;overflow:visible;visibility:visible;opacity:1;fill:none;fill-opacity:1;fill-rule:evenodd;stroke:#040404;stroke-width:0.2;stroke-linecap:square;stroke-linejoin:round;stroke-miterlimit:4;stroke-dasharray:none;stroke-dashoffset:0;stroke-opacity:1;marker:none;enable-background:accumulate" d="m 275.11242,792.73199 v 6.43026 h 4.62369 v -6.40443 l -0.93347,-1.61682 h -2.20971 z" id="path10769"/>
        <path style="color:#000000;display:inline;overflow:visible;visibility:visible;opacity:1;fill:none;fill-opacity:1;fill-rule:evenodd;stroke:#040404;stroke-width:0.2;stroke-linecap:square;stroke-linejoin:round;stroke-miterlimit:4;stroke-dasharray:none;stroke-dashoffset:0;stroke-opacity:1;marker:none;enable-background:accumulate" d="m 278.73635,799.02966 v -7.84446 -1.63519 l -0.7734,-1.54679 c -0.90498,-0.4248 -1.67287,-0.26696 -2.34229,0.30936 l 0.11048,2.89472" id="path10771"/>
        <path id="path10773" d="m 276.69215,791.1852 v 7.94602" style="color:#000000;display:inline;overflow:visible;visibility:visible;opacity:1;fill:none;fill-opacity:1;fill-rule:evenodd;stroke:#040404;stroke-width:0.2;stroke-linecap:square;stroke-linejoin:round;stroke-miterlimit:4;stroke-dasharray:none;stroke-dashoffset:0;stroke-opacity:1;marker:none;enable-background:accumulate"/>
        <path style="color:#000000;display:inline;overflow:visible;visibility:visible;opacity:1;fill:none;fill-opacity:1;fill-rule:evenodd;stroke:#040404;stroke-width:0.2;stroke-linecap:square;stroke-linejoin:round;stroke-miterlimit:4;stroke-dasharray:none;stroke-dashoffset:0;stroke-opacity:1;marker:none;enable-background:accumulate" d="m 276.61503,791.1631 -0.7513,-0.0221 -1.37002,1.48051 v 6.46908 l 0.62863,0.0616" id="path10775"/>
        <path style="color:#000000;display:inline;overflow:visible;visibility:visible;opacity:1;fill:none;fill-opacity:1;fill-rule:evenodd;stroke:#040404;stroke-width:0.2;stroke-linecap:square;stroke-linejoin:round;stroke-miterlimit:4;stroke-dasharray:none;stroke-dashoffset:0;stroke-opacity:1;marker:none;enable-background:accumulate" d="m 276.54874,791.11891 -0.0221,-1.59099 -0.86179,-1.10486" id="path10777"/>
        <path style="color:#000000;display:inline;overflow:visible;visibility:visible;opacity:1;fill:none;fill-opacity:1;fill-rule:evenodd;stroke:#040404;stroke-width:0.2;stroke-linecap:square;stroke-linejoin:round;stroke-miterlimit:4;stroke-dasharray:none;stroke-dashoffset:0;stroke-opacity:1;marker:none;enable-background:accumulate" d="m 277.98505,788.00322 -0.39775,-0.97227 c -0.49344,-0.29235 -1.09783,-0.28882 -1.76777,-0.11049 -0.66266,1.51049 -0.72679,3.10079 -0.50823,4.72878" id="path10779"/>
        <path style="color:#000000;display:inline;overflow:visible;visibility:visible;opacity:1;fill:none;fill-opacity:1;fill-rule:evenodd;stroke:#040404;stroke-width:0.2;stroke-linecap:round;stroke-linejoin:round;stroke-miterlimit:4;stroke-dasharray:none;stroke-dashoffset:0;stroke-opacity:1;marker:none;enable-background:accumulate" d="m 278.69216,789.41743 c -0.8116,-0.33114 -1.50821,-0.27895 -2.14342,-0.0221" id="path10781"/>
        <path style="color:#000000;display:inline;overflow:visible;visibility:visible;opacity:1;fill:#ffffff;fill-opacity:1;fill-rule:evenodd;stroke:#040404;stroke-width:0.2;stroke-linecap:round;stroke-linejoin:round;stroke-miterlimit:4;stroke-dasharray:none;stroke-dashoffset:0;stroke-opacity:1;marker:none;enable-background:accumulate" d="M 276.70047,799.13656 275.13016,797.41" id="path10783"/>
        <path style="color:#000000;display:inline;overflow:visible;visibility:visible;opacity:1;fill:#ffffff;fill-opacity:1;fill-rule:evenodd;stroke:#040404;stroke-width:0.2;stroke-linecap:round;stroke-linejoin:round;stroke-miterlimit:4;stroke-dasharray:none;stroke-dashoffset:0;stroke-opacity:1;marker:none;enable-background:accumulate" d="m 278.10672,799.13656 -2.98438,-3.76563" id="path10785"/>
        <path style="color:#000000;display:inline;overflow:visible;visibility:visible;opacity:1;fill:#ffffff;fill-opacity:1;fill-rule:evenodd;stroke:#040404;stroke-width:0.2;stroke-linecap:round;stroke-linejoin:round;stroke-miterlimit:4;stroke-dasharray:none;stroke-dashoffset:0;stroke-opacity:1;marker:none;enable-background:accumulate" d="m 275.12234,793.52718 4.39063,5.57813" id="path10787"/>
        <path style="color:#000000;display:inline;overflow:visible;visibility:visible;opacity:1;fill:#ffffff;fill-opacity:1;fill-rule:evenodd;stroke:#040404;stroke-width:0.2;stroke-linecap:round;stroke-linejoin:round;stroke-miterlimit:4;stroke-dasharray:none;stroke-dashoffset:0;stroke-opacity:1;marker:none;enable-background:accumulate" d="m 275.55984,792.27718 4.14063,5.29688" id="path10789"/>
        <path style="color:#000000;display:inline;overflow:visible;visibility:visible;opacity:1;fill:#ffffff;fill-opacity:1;fill-rule:evenodd;stroke:#040404;stroke-width:0.2;stroke-linecap:round;stroke-linejoin:round;stroke-miterlimit:4;stroke-dasharray:none;stroke-dashoffset:0;stroke-opacity:1;marker:none;enable-background:accumulate" d="m 276.38797,791.38656 3.34375,4.375" id="path10791"/>
        <path style="color:#000000;display:inline;overflow:visible;visibility:visible;opacity:1;fill:#ffffff;fill-opacity:1;fill-rule:evenodd;stroke:#040404;stroke-width:0.2;stroke-linecap:round;stroke-linejoin:round;stroke-miterlimit:4;stroke-dasharray:none;stroke-dashoffset:0;stroke-opacity:1;marker:none;enable-background:accumulate" d="m 277.68484,791.16781 2.03907,2.61719" id="path10793"/>
        <path style="color:#000000;display:inline;overflow:visible;visibility:visible;opacity:1;fill:#ffffff;fill-opacity:1;fill-rule:evenodd;stroke:#040404;stroke-width:0.2;stroke-linecap:round;stroke-linejoin:round;stroke-miterlimit:4;stroke-dasharray:none;stroke-dashoffset:0;stroke-opacity:1;marker:none;enable-background:accumulate" d="m 277.38016,799.12875 2.35156,-3.33594" id="path10795"/>
        <path style="color:#000000;display:inline;overflow:visible;visibility:visible;opacity:1;fill:#ffffff;fill-opacity:1;fill-rule:evenodd;stroke:#040404;stroke-width:0.2;stroke-linecap:round;stroke-linejoin:round;stroke-miterlimit:4;stroke-dasharray:none;stroke-dashoffset:0;stroke-opacity:1;marker:none;enable-background:accumulate" d="m 279.66922,797.60531 -0.96875,1.53125" id="path10797"/>
        <path style="color:#000000;display:inline;overflow:visible;visibility:visible;opacity:1;fill:#ffffff;fill-opacity:1;fill-rule:evenodd;stroke:#040404;stroke-width:0.2;stroke-linecap:round;stroke-linejoin:round;stroke-miterlimit:4;stroke-dasharray:none;stroke-dashoffset:0;stroke-opacity:1;marker:none;enable-background:accumulate" d="m 275.83217,799.12606 3.8683,-5.052" id="path10799"/>
        <path style="color:#000000;display:inline;overflow:visible;visibility:visible;opacity:1;fill:#ffffff;fill-opacity:1;fill-rule:evenodd;stroke:#040404;stroke-width:0.2;stroke-linecap:round;stroke-linejoin:round;stroke-miterlimit:4;stroke-dasharray:none;stroke-dashoffset:0;stroke-opacity:1;marker:none;enable-background:accumulate" d="m 275.13797,798.16781 4.4375,-5.625" id="path10801"/>
        <path style="color:#000000;display:inline;overflow:visible;visibility:visible;opacity:1;fill:#ffffff;fill-opacity:1;fill-rule:evenodd;stroke:#040404;stroke-width:0.2;stroke-linecap:round;stroke-linejoin:round;stroke-miterlimit:4;stroke-dasharray:none;stroke-dashoffset:0;stroke-opacity:1;marker:none;enable-background:accumulate" d="m 275.13797,796.19906 3.875,-4.5625" id="path10803"/>
        <path style="color:#000000;display:inline;overflow:visible;visibility:visible;opacity:1;fill:#ffffff;fill-opacity:1;fill-rule:evenodd;stroke:#040404;stroke-width:0.2;stroke-linecap:round;stroke-linejoin:round;stroke-miterlimit:4;stroke-dasharray:none;stroke-dashoffset:0;stroke-opacity:1;marker:none;enable-background:accumulate" d="m 275.10672,794.38656 2.8125,-3.1875" id="path10805"/>
        <path id="path10807" d="m 274.48859,792.60178 0.6132,0.12706" style="color:#000000;display:inline;overflow:visible;visibility:visible;opacity:1;fill:#cccccc;fill-opacity:1;fill-rule:evenodd;stroke:#040404;stroke-width:0.2;stroke-linecap:round;stroke-linejoin:round;stroke-miterlimit:4;stroke-dasharray:none;stroke-dashoffset:0;stroke-opacity:1;marker:none;enable-background:accumulate"/>
      </g>
      <g id="g10853" transform="matrix(-1,0,0,1,540.24454,0)" style="stroke-width:0.2;stroke-miterlimit:4;stroke-dasharray:none">
        <path id="path10811" d="m 279.73172,799.13656 0.0312,-6.40625 -1.0625,-1.5625 0.0312,-1.6875 -0.84375,-1.59375 -0.28125,-0.90625 -0.6875,-0.25 -0.6875,0.0625 -0.40625,0.125 -0.375,1 -0.21875,1.09375 -0.0312,0.9375 v 1 l 0.0937,0.71875 -0.8125,0.90625 v 6.46875 l 0.625,0.125 z" style="color:#000000;display:inline;overflow:visible;visibility:visible;opacity:1;fill:#ffffff;fill-opacity:1;fill-rule:evenodd;stroke:#040404;stroke-width:0.2;stroke-linecap:round;stroke-linejoin:round;stroke-miterlimit:4;stroke-dasharray:none;stroke-dashoffset:0;stroke-opacity:1;marker:none;enable-background:accumulate"/>
        <path id="path10813" d="m 275.11242,792.73199 v 6.43026 h 4.62369 v -6.40443 l -0.93347,-1.61682 h -2.20971 z" style="color:#000000;display:inline;overflow:visible;visibility:visible;opacity:1;fill:none;fill-opacity:1;fill-rule:evenodd;stroke:#040404;stroke-width:0.2;stroke-linecap:square;stroke-linejoin:round;stroke-miterlimit:4;stroke-dasharray:none;stroke-dashoffset:0;stroke-opacity:1;marker:none;enable-background:accumulate"/>
        <path id="path10815" d="m 278.73635,799.02966 v -7.84446 -1.63519 l -0.7734,-1.54679 c -0.90498,-0.4248 -1.67287,-0.26696 -2.34229,0.30936 l 0.11048,2.89472" style="color:#000000;display:inline;overflow:visible;visibility:visible;opacity:1;fill:none;fill-opacity:1;fill-rule:evenodd;stroke:#040404;stroke-width:0.2;stroke-linecap:square;stroke-linejoin:round;stroke-miterlimit:4;stroke-dasharray:none;stroke-dashoffset:0;stroke-opacity:1;marker:none;enable-background:accumulate"/>
        <path style="color:#000000;display:inline;overflow:visible;visibility:visible;opacity:1;fill:none;fill-opacity:1;fill-rule:evenodd;stroke:#040404;stroke-width:0.2;stroke-linecap:square;stroke-linejoin:round;stroke-miterlimit:4;stroke-dasharray:none;stroke-dashoffset:0;stroke-opacity:1;marker:none;enable-background:accumulate" d="m 276.69215,791.1852 v 7.94602" id="path10817"/>
        <path id="path10819" d="m 276.61503,791.1631 -0.7513,-0.0221 -1.37002,1.48051 v 6.46908 l 0.62863,0.0616" style="color:#000000;display:inline;overflow:visible;visibility:visible;opacity:1;fill:none;fill-opacity:1;fill-rule:evenodd;stroke:#040404;stroke-width:0.2;stroke-linecap:square;stroke-linejoin:round;stroke-miterlimit:4;stroke-dasharray:none;stroke-dashoffset:0;stroke-opacity:1;marker:none;enable-background:accumulate"/>
        <path id="path10821" d="m 276.54874,791.11891 -0.0221,-1.59099 -0.86179,-1.10486" style="color:#000000;display:inline;overflow:visible;visibility:visible;opacity:1;fill:none;fill-opacity:1;fill-rule:evenodd;stroke:#040404;stroke-width:0.2;stroke-linecap:square;stroke-linejoin:round;stroke-miterlimit:4;stroke-dasharray:none;stroke-dashoffset:0;stroke-opacity:1;marker:none;enable-background:accumulate"/>
        <path id="path10823" d="m 277.98505,788.00322 -0.39775,-0.97227 c -0.49344,-0.29235 -1.09783,-0.28882 -1.76777,-0.11049 -0.66266,1.51049 -0.72679,3.10079 -0.50823,4.72878" style="color:#000000;display:inline;overflow:visible;visibility:visible;opacity:1;fill:none;fill-opacity:1;fill-rule:evenodd;stroke:#040404;stroke-width:0.2;stroke-linecap:square;stroke-linejoin:round;stroke-miterlimit:4;stroke-dasharray:none;stroke-dashoffset:0;stroke-opacity:1;marker:none;enable-background:accumulate"/>
        <path id="path10825" d="m 278.69216,789.41743 c -0.8116,-0.33114 -1.50821,-0.27895 -2.14342,-0.0221" style="color:#000000;display:inline;overflow:visible;visibility:visible;opacity:1;fill:none;fill-opacity:1;fill-rule:evenodd;stroke:#040404;stroke-width:0.2;stroke-linecap:round;stroke-linejoin:round;stroke-miterlimit:4;stroke-dasharray:none;stroke-dashoffset:0;stroke-opacity:1;marker:none;enable-background:accumulate"/>
        <path id="path10827" d="M 276.70047,799.13656 275.13016,797.41" style="color:#000000;display:inline;overflow:visible;visibility:visible;opacity:1;fill:#ffffff;fill-opacity:1;fill-rule:evenodd;stroke:#040404;stroke-width:0.2;stroke-linecap:round;stroke-linejoin:round;stroke-miterlimit:4;stroke-dasharray:none;stroke-dashoffset:0;stroke-opacity:1;marker:none;enable-background:accumulate"/>
        <path id="path10829" d="m 278.10672,799.13656 -2.98438,-3.76563" style="color:#000000;display:inline;overflow:visible;visibility:visible;opacity:1;fill:#ffffff;fill-opacity:1;fill-rule:evenodd;stroke:#040404;stroke-width:0.2;stroke-linecap:round;stroke-linejoin:round;stroke-miterlimit:4;stroke-dasharray:none;stroke-dashoffset:0;stroke-opacity:1;marker:none;enable-background:accumulate"/>
        <path id="path10831" d="m 275.12234,793.52718 4.39063,5.57813" style="color:#000000;display:inline;overflow:visible;visibility:visible;opacity:1;fill:#ffffff;fill-opacity:1;fill-rule:evenodd;stroke:#040404;stroke-width:0.2;stroke-linecap:round;stroke-linejoin:round;stroke-miterlimit:4;stroke-dasharray:none;stroke-dashoffset:0;stroke-opacity:1;marker:none;enable-background:accumulate"/>
        <path id="path10833" d="m 275.55984,792.27718 4.14063,5.29688" style="color:#000000;display:inline;overflow:visible;visibility:visible;opacity:1;fill:#ffffff;fill-opacity:1;fill-rule:evenodd;stroke:#040404;stroke-width:0.2;stroke-linecap:round;stroke-linejoin:round;stroke-miterlimit:4;stroke-dasharray:none;stroke-dashoffset:0;stroke-opacity:1;marker:none;enable-background:accumulate"/>
        <path id="path10835" d="m 276.38797,791.38656 3.34375,4.375" style="color:#000000;display:inline;overflow:visible;visibility:visible;opacity:1;fill:#ffffff;fill-opacity:1;fill-rule:evenodd;stroke:#040404;stroke-width:0.2;stroke-linecap:round;stroke-linejoin:round;stroke-miterlimit:4;stroke-dasharray:none;stroke-dashoffset:0;stroke-opacity:1;marker:none;enable-background:accumulate"/>
        <path id="path10837" d="m 277.68484,791.16781 2.03907,2.61719" style="color:#000000;display:inline;overflow:visible;visibility:visible;opacity:1;fill:#ffffff;fill-opacity:1;fill-rule:evenodd;stroke:#040404;stroke-width:0.2;stroke-linecap:round;stroke-linejoin:round;stroke-miterlimit:4;stroke-dasharray:none;stroke-dashoffset:0;stroke-opacity:1;marker:none;enable-background:accumulate"/>
        <path id="path10839" d="m 277.38016,799.12875 2.35156,-3.33594" style="color:#000000;display:inline;overflow:visible;visibility:visible;opacity:1;fill:#ffffff;fill-opacity:1;fill-rule:evenodd;stroke:#040404;stroke-width:0.2;stroke-linecap:round;stroke-linejoin:round;stroke-miterlimit:4;stroke-dasharray:none;stroke-dashoffset:0;stroke-opacity:1;marker:none;enable-background:accumulate"/>
        <path id="path10841" d="m 279.66922,797.60531 -0.96875,1.53125" style="color:#000000;display:inline;overflow:visible;visibility:visible;opacity:1;fill:#ffffff;fill-opacity:1;fill-rule:evenodd;stroke:#040404;stroke-width:0.2;stroke-linecap:round;stroke-linejoin:round;stroke-miterlimit:4;stroke-dasharray:none;stroke-dashoffset:0;stroke-opacity:1;marker:none;enable-background:accumulate"/>
        <path id="path10843" d="m 275.83217,799.12606 3.8683,-5.052" style="color:#000000;display:inline;overflow:visible;visibility:visible;opacity:1;fill:#ffffff;fill-opacity:1;fill-rule:evenodd;stroke:#040404;stroke-width:0.2;stroke-linecap:round;stroke-linejoin:round;stroke-miterlimit:4;stroke-dasharray:none;stroke-dashoffset:0;stroke-opacity:1;marker:none;enable-background:accumulate"/>
        <path id="path10845" d="m 275.13797,798.16781 4.4375,-5.625" style="color:#000000;display:inline;overflow:visible;visibility:visible;opacity:1;fill:#ffffff;fill-opacity:1;fill-rule:evenodd;stroke:#040404;stroke-width:0.2;stroke-linecap:round;stroke-linejoin:round;stroke-miterlimit:4;stroke-dasharray:none;stroke-dashoffset:0;stroke-opacity:1;marker:none;enable-background:accumulate"/>
        <path id="path10847" d="m 275.13797,796.19906 3.875,-4.5625" style="color:#000000;display:inline;overflow:visible;visibility:visible;opacity:1;fill:#ffffff;fill-opacity:1;fill-rule:evenodd;stroke:#040404;stroke-width:0.2;stroke-linecap:round;stroke-linejoin:round;stroke-miterlimit:4;stroke-dasharray:none;stroke-dashoffset:0;stroke-opacity:1;marker:none;enable-background:accumulate"/>
        <path id="path10849" d="m 275.10672,794.38656 2.8125,-3.1875" style="color:#000000;display:inline;overflow:visible;visibility:visible;opacity:1;fill:#ffffff;fill-opacity:1;fill-rule:evenodd;stroke:#040404;stroke-width:0.2;stroke-linecap:round;stroke-linejoin:round;stroke-miterlimit:4;stroke-dasharray:none;stroke-dashoffset:0;stroke-opacity:1;marker:none;enable-background:accumulate"/>
        <path style="color:#000000;display:inline;overflow:visible;visibility:visible;opacity:1;fill:#cccccc;fill-opacity:1;fill-rule:evenodd;stroke:#040404;stroke-width:0.2;stroke-linecap:round;stroke-linejoin:round;stroke-miterlimit:4;stroke-dasharray:none;stroke-dashoffset:0;stroke-opacity:1;marker:none;enable-background:accumulate" d="m 274.48859,792.60178 0.6132,0.12706" id="path10851"/>
      </g>
    </g>
  </g>
</svg>