<?xml version="1.0" encoding="utf-8"?>
<svg viewBox="641.644 7.072 25.925 371.348" width="25.925" height="371.348" xmlns="http://www.w3.org/2000/svg" xmlns:xlink="http://www.w3.org/1999/xlink">
  <defs>
    <linearGradient id="linearGradient7677" x1="591.29309" y1="858.625" x2="609.96051" y2="858.625" gradientUnits="userSpaceOnUse" gradientTransform="matrix(1,0,0,1.0048677,87.5,-4.8867936)" xlink:href="#linearGradient7675"/>
    <linearGradient id="linearGradient7675">
      <stop style="stop-color:#f6f6f6;stop-opacity:1" offset="0" id="stop7671"/>
      <stop id="stop7681" offset="0.5001" style="stop-color:#ffffff;stop-opacity:1"/>
      <stop style="stop-color:#f6f6f6;stop-opacity:1" offset="1" id="stop7673"/>
    </linearGradient>
    <linearGradient id="linearGradient7663" gradientUnits="userSpaceOnUse" x1="591.29309" y1="996.9267" x2="609.96051" y2="996.9267" gradientTransform="matrix(0.99997686,0,0,2.530518,87.513685,-1745.3268)" xlink:href="#linearGradient9735"/>
    <linearGradient id="linearGradient9735">
      <stop style="stop-color:#101010;stop-opacity:1" offset="0" id="stop9729"/>
      <stop id="stop9731" offset="0.4999" style="stop-color:#282828;stop-opacity:1"/>
      <stop style="stop-color:#101010;stop-opacity:1" offset="1" id="stop9733"/>
    </linearGradient>
    <linearGradient id="linearGradient7647" x1="591.29309" y1="996.9267" x2="609.96051" y2="996.9267" gradientUnits="userSpaceOnUse" gradientTransform="translate(87.5)" xlink:href="#linearGradient9735"/>
    <linearGradient id="linearGradient7657" x1="591.32538" y1="1006.4132" x2="609.9024" y2="1006.4132" gradientUnits="userSpaceOnUse" gradientTransform="translate(87.5)" xlink:href="#linearGradient9735"/>
    <linearGradient id="linearGradient8372" x1="588.75092" y1="977.43884" x2="600.78864" y2="977.43884" gradientUnits="userSpaceOnUse" xlink:href="#linearGradient8370"/>
    <linearGradient id="linearGradient8370">
      <stop style="stop-color:#181818;stop-opacity:1" offset="0" id="stop8366"/>
      <stop style="stop-color:#3c3c3c;stop-opacity:1" offset="1" id="stop8368"/>
    </linearGradient>
    <linearGradient id="linearGradient8399" x1="591.12134" y1="984.15466" x2="594.74634" y2="1003.5297" gradientUnits="userSpaceOnUse" xlink:href="#linearGradient8397"/>
    <linearGradient id="linearGradient8397">
      <stop style="stop-color:#080808;stop-opacity:1" offset="0" id="stop8393"/>
      <stop style="stop-color:#141414;stop-opacity:1" offset="1" id="stop8395"/>
    </linearGradient>
    <linearGradient id="linearGradient8482" gradientUnits="userSpaceOnUse" x1="588.75092" y1="977.43884" x2="600.78864" y2="977.43884" xlink:href="#linearGradient8370"/>
    <linearGradient id="linearGradient8484" gradientUnits="userSpaceOnUse" x1="591.12134" y1="984.15466" x2="594.74634" y2="1003.5297" xlink:href="#linearGradient8397"/>
    <linearGradient id="linearGradient7347" gradientUnits="userSpaceOnUse" x1="220.50983" y1="800.78748" x2="234.62511" y2="800.78748" xlink:href="#linearGradient5358-60-8"/>
    <linearGradient id="linearGradient5358-60-8">
      <stop style="stop-color:#e6e6e6;stop-opacity:1" offset="0" id="stop5360-1-5"/>
      <stop style="stop-color:#f9f9f9;stop-opacity:1" offset="1" id="stop5362-26-1"/>
    </linearGradient>
    <linearGradient id="linearGradient7349" gradientUnits="userSpaceOnUse" x1="220.50983" y1="800.78748" x2="234.62511" y2="800.78748" xlink:href="#linearGradient5358-60-8"/>
    <linearGradient id="linearGradient7353" gradientUnits="userSpaceOnUse" x1="219.64507" y1="801.16248" x2="237.12511" y2="801.16248" xlink:href="#linearGradient5358-60-8"/>
    <linearGradient id="linearGradient7355" gradientUnits="userSpaceOnUse" x1="219.64507" y1="801.16248" x2="237.12511" y2="801.16248" xlink:href="#linearGradient5358-60-8"/>
  </defs>
  <g id="g12972" transform="matrix(1, 0, 0, 1, -33.530629, -636.737427)">
    <rect style="display:inline;fill:url(#linearGradient7677);fill-opacity:1;stroke:none;stroke-width:0.99744141" id="rect7000" width="18.667433" height="292" x="678.79309" y="711.91779"/>
    <rect style="display:inline;fill:url(#linearGradient7663);fill-opacity:1;stroke:none;stroke-width:0.34875867" id="rect7661" width="18.667" height="35.700001" x="678.79309" y="759.56427"/>
    <rect y="989.8728" x="678.79309" height="14.107783" width="18.667433" id="rect7565" style="display:inline;fill:url(#linearGradient7647);fill-opacity:1;stroke:none;stroke-width:0.2192428"/>
    <path style="fill:#f7f7f7;fill-opacity:1;stroke:none" d="m 679.65796,1008.772 c -0.0307,-0.055 -0.0788,-0.1942 -0.0788,-0.2287 v -0.026 h 1.69504 1.69504 l 0.0125,0.058 c 0.0253,0.1175 0.025,0.1436 -0.002,0.1906 l -0.0257,0.044 h -1.63554 -1.63554 l -0.0247,-0.044 v 0 z" id="path6976"/>
    <path style="fill:#f7f7f7;fill-opacity:1;stroke:none" d="m 683.44759,1008.7524 c -0.0288,-0.057 -0.0788,-0.1998 -0.0788,-0.2249 0,-0.01 0.72677,-0.01 1.74687,-0.01 h 1.74687 l -0.007,0.03 c -0.0164,0.07 -0.0434,0.1471 -0.0713,0.2028 l -0.0297,0.059 h -1.63737 -1.63738 l -0.0321,-0.064 z" id="path6978"/>
    <path style="fill:#f7f7f7;fill-opacity:1;stroke:none" d="m 687.15845,1008.8843 c 0,0 0.0116,-0.039 0.0258,-0.075 0.0233,-0.059 0.0497,-0.1582 0.0685,-0.256 l 0.007,-0.036 h 0.87673 c 0.82554,0 0.87706,0 0.8822,0.019 0.003,0.011 0.009,0.042 0.0131,0.069 0.004,0.027 0.0244,0.1013 0.045,0.1644 0.0206,0.063 0.0374,0.1165 0.0374,0.1188 0,0 -0.44001,0 -0.9778,0 -0.53779,0 -0.9778,0 -0.9778,-0.01 z" id="path6980"/>
    <path style="fill:#f7f7f7;fill-opacity:1;stroke:none" d="m 689.49114,1008.7524 c -0.0288,-0.057 -0.0788,-0.1998 -0.0788,-0.2249 0,-0.01 0.72627,-0.01 1.74567,-0.01 1.30129,0 1.74567,0 1.74567,0.013 0,0.028 -0.046,0.1621 -0.075,0.2194 l -0.0308,0.061 h -1.63737 -1.63737 l -0.0321,-0.064 z" id="path6982"/>
    <path style="fill:#f7f7f7;fill-opacity:1;stroke:none" d="m 693.30105,1008.78 c -0.0337,-0.055 -0.0358,-0.075 -0.017,-0.1664 0.01,-0.046 0.0174,-0.087 0.0174,-0.09 0,0 0.76576,-0.01 1.70169,-0.01 h 1.70169 l -0.007,0.03 c -0.0143,0.061 -0.0507,0.1623 -0.0771,0.2145 l -0.0271,0.053 h -1.63516 -1.63516 l -0.0222,-0.036 z" id="path6984"/>
    <path id="path4668-8" d="m 678.82539,1003.8851 18.567,0.031 0.01,3.2741 -0.69771,1.7511 -17.16749,-0.053 -0.69728,-1.7526 z" style="display:inline;fill:url(#linearGradient7657);fill-opacity:1;stroke:none;stroke-width:1.84199035"/>
    <g id="g7034" transform="translate(233.66946,-18.004782)">
      <g id="g7036">
        <path style="display:inline;fill:#333333;fill-opacity:1;stroke:#ffffff;stroke-width:0.40000001;stroke-linecap:round;stroke-linejoin:round;stroke-miterlimit:4;stroke-dasharray:none;stroke-opacity:0" d="m 449.43411,1029.5953 c -0.19221,-0.4763 -0.44593,-1.0302 -0.69899,-1.5264 l -0.0984,-0.1929 0.0407,-0.076 c 0.0711,-0.1322 0.23444,-0.4191 0.33302,-0.5844 l 0.0351,-0.058 h 0.19788 c 0.1088,0 0.32721,0 0.48525,10e-5 h 0.28734 l 0.038,0.063 c 0.0846,0.141 0.30202,0.523 0.35397,0.6218 l 0.0178,0.034 -0.0514,0.099 c -0.27591,0.5303 -0.55213,1.1317 -0.77421,1.6857 l -0.0373,0.093 h -0.0324 -0.0324 l -0.0638,-0.1582 v 0 z" id="path7038"/>
        <path style="fill:#333333;fill-opacity:1;stroke:#ffffff;stroke-width:0.40000001;stroke-linecap:round;stroke-linejoin:round;stroke-miterlimit:4;stroke-dasharray:none;stroke-opacity:0" d="m 459.24045,1029.4445 c -0.19221,-0.4763 -0.44593,-1.0302 -0.69899,-1.5264 l -0.0984,-0.1929 0.0407,-0.076 c 0.0711,-0.1322 0.23444,-0.4191 0.33302,-0.5844 l 0.0351,-0.058 h 0.19788 c 0.1088,0 0.32721,0 0.48525,10e-5 h 0.28734 l 0.038,0.063 c 0.0846,0.141 0.30202,0.523 0.35397,0.6218 l 0.0178,0.034 -0.0514,0.099 c -0.27591,0.5303 -0.55213,1.1317 -0.77421,1.6857 l -0.0373,0.093 h -0.0324 -0.0324 l -0.0638,-0.1582 v 0 z" id="path7040"/>
      </g>
      <path id="path7042" d="m 453.36218,1028.9034 c 0.0796,-0.1563 0.22845,-0.4341 0.33063,-0.6173 l 0.1858,-0.3328 -0.21886,-0.3876 -0.21885,-0.3877 h -0.37607 c -0.32082,0 -0.37606,-0.011 -0.37606,-0.041 0,-0.033 -0.031,-0.039 -0.16249,-0.033 -0.15376,0.011 -0.16533,0.013 -0.21603,0.1012 l -0.0536,0.093 0.28159,0.541 c 0.15489,0.2976 0.36336,0.722 0.4633,0.9432 0.10002,0.2213 0.18937,0.4028 0.19875,0.4032 0.009,6e-4 0.0822,-0.1269 0.16187,-0.2832 z" style="display:inline;fill:#333333;fill-opacity:1;stroke:#ffffff;stroke-width:0.40000004;stroke-linecap:round;stroke-linejoin:round;stroke-miterlimit:4;stroke-dasharray:none;stroke-opacity:0"/>
      <path id="path7044" d="m 455.63045,1028.8837 c -0.0796,-0.1563 -0.22845,-0.4341 -0.33063,-0.6173 l -0.1858,-0.3328 0.21886,-0.3876 0.21885,-0.3877 h 0.37607 c 0.32082,0 0.37606,-0.011 0.37606,-0.041 0,-0.033 0.031,-0.039 0.16249,-0.033 0.15376,0.011 0.16533,0.013 0.21603,0.1012 l 0.0536,0.093 -0.28159,0.541 c -0.15489,0.2976 -0.36336,0.722 -0.4633,0.9432 -0.10002,0.2213 -0.18937,0.4028 -0.19875,0.4032 -0.009,6e-4 -0.0822,-0.1269 -0.16187,-0.2832 z" style="fill:#333333;fill-opacity:1;stroke:#ffffff;stroke-width:0.40000004;stroke-linecap:round;stroke-linejoin:round;stroke-miterlimit:4;stroke-dasharray:none;stroke-opacity:0"/>
      <path id="path7046" d="m 452.11995,1033.1464 c 0,-0.013 0.0827,-0.3814 0.0944,-0.4213 0.17333,-2.2494 0.35317,-1.7824 1.06368,-3.1473 0,-0.069 0.48397,-1.0478 0.75256,-1.5214 l 0.13701,-0.2416 v -0.3133 -0.3134 h 0.33569 0.33569 v 0.3176 0.3176 l 0.14387,0.2538 c 0.15052,0.2655 0.56612,1.0825 0.6625,1.3024 l 0.0561,0.1278 c 0.88203,2.4013 0.2186,0.2933 1.12629,3.3936 0.0231,0.1046 0.042,0.205 0.042,0.2233 0,0.033 -0.004,0.033 -2.375,0.033 -1.30625,0 -2.375,0 -2.375,-0.011 z" style="fill:#333333;fill-opacity:1;stroke:#ffffff;stroke-width:0.40000001;stroke-linecap:round;stroke-linejoin:round;stroke-miterlimit:4;stroke-dasharray:none;stroke-opacity:0"/>
    </g>
    <path style="fill:none;stroke:#000000;stroke-width:0.40000001;stroke-miterlimit:4;stroke-dasharray:none" d="m 678.81369,759.61019 h 18.64629" id="path7054"/>
    <path style="fill:none;stroke:#000000;stroke-width:0.40000001;stroke-miterlimit:4;stroke-dasharray:none" d="m 691.66776,1009.0098 h -1.01787" id="path7060"/>
    <path style="fill:none;stroke:#000000;stroke-width:0.40000001;stroke-miterlimit:4;stroke-dasharray:none" d="m 680.76047,1014.3262 h 4.91151" id="path7062"/>
    <path style="fill:none;stroke:#000000;stroke-width:0.40000001;stroke-miterlimit:4;stroke-dasharray:none" d="m 682.70729,1009.0098 h 1.01787" id="path7064"/>
    <path style="fill:none;stroke:#000000;stroke-width:0.40000001;stroke-miterlimit:4;stroke-dasharray:none" d="m 684.16554,1009.8367 a 17.17083,17.17083 0 0 0 -0.44038,-0.8269" id="path7066"/>
    <path style="fill:none;stroke:#000000;stroke-width:0.40000001;stroke-miterlimit:4;stroke-dasharray:none" d="m 682.70729,1009.0098 a 17.17083,17.17083 0 0 0 -0.44038,0.8269" id="path7068"/>
    <path style="fill:none;stroke:#000000;stroke-width:0.40000001;stroke-miterlimit:4;stroke-dasharray:none" d="m 686.08922,1009.0098 h 0.76414" id="path7070"/>
    <path style="fill:none;stroke:#000000;stroke-width:0.40000001;stroke-miterlimit:4;stroke-dasharray:none" d="m 687.59762,1009.9382 a 17.17083,17.17083 0 0 0 -0.44668,-0.8508" id="path7072"/>
    <path style="fill:none;stroke:#000000;stroke-width:0.40000001;stroke-miterlimit:4;stroke-dasharray:none" d="m 686.08922,1009.0098 a 17.17083,17.17083 0 0 0 -0.23272,0.4234" id="path7074"/>
    <path style="fill:none;stroke:#000000;stroke-width:0.40000001;stroke-miterlimit:4;stroke-dasharray:none" d="m 695.5132,1014.3262 h -4.91151" id="path7076"/>
    <path style="fill:none;stroke:#000000;stroke-width:0.40000001;stroke-miterlimit:4;stroke-dasharray:none" d="m 693.56638,1009.0098 h -1.01787" id="path7078"/>
    <path style="fill:none;stroke:#000000;stroke-width:0.40000001;stroke-miterlimit:4;stroke-dasharray:none" d="m 692.54851,1009.0098 a 17.17083,17.17083 0 0 0 -0.44038,0.8269" id="path7080"/>
    <path style="fill:none;stroke:#000000;stroke-width:0.40000001;stroke-miterlimit:4;stroke-dasharray:none" d="m 694.00676,1009.8367 a 17.17083,17.17083 0 0 0 -0.44038,-0.8269" id="path7082"/>
    <path style="fill:none;stroke:#000000;stroke-width:0.40000001;stroke-miterlimit:4;stroke-dasharray:none" d="m 690.18446,1009.0098 h -0.76415" id="path7084"/>
    <path style="fill:none;stroke:#000000;stroke-width:0.40000001;stroke-miterlimit:4;stroke-dasharray:none" d="m 686.85336,1009.0098 a 1.039466,1.039466 0 0 0 0.21611,-0.6843" id="path7086"/>
    <path style="fill:none;stroke:#000000;stroke-width:0.40000001;stroke-miterlimit:4;stroke-dasharray:none" d="m 683.37634,1009.0098 h 3.47702" id="path7088"/>
    <path style="fill:none;stroke:#000000;stroke-width:0.40000001;stroke-miterlimit:4;stroke-dasharray:none" d="m 689.20421,1008.3255 a 1.039466,1.039466 0 0 0 0.2161,0.6843" id="path7090"/>
    <path style="fill:none;stroke:#000000;stroke-width:0.40000001;stroke-miterlimit:4;stroke-dasharray:none" d="m 692.89734,1009.0098 a 1.039466,1.039466 0 0 0 0.2161,-0.6843" id="path7092"/>
    <path style="fill:none;stroke:#000000;stroke-width:0.40000001;stroke-miterlimit:4;stroke-dasharray:none" d="m 687.15094,1009.0874 h 1.9718" id="path7094"/>
    <path style="fill:none;stroke:#000000;stroke-width:0.40000001;stroke-miterlimit:4;stroke-dasharray:none" d="m 686.34374,1009.0098 a 1.039466,1.039466 0 0 0 0.0546,0.078" id="path7096"/>
    <path style="fill:none;stroke:#000000;stroke-width:0.40000001;stroke-miterlimit:4;stroke-dasharray:none" d="m 689.87535,1009.0874 a 1.039466,1.039466 0 0 0 0.0546,-0.078" id="path7098"/>
    <path style="fill:none;stroke:#000000;stroke-width:0.40000001;stroke-miterlimit:4;stroke-dasharray:none" d="m 686.39832,1009.0874 h 3.47703" id="path7100"/>
    <path style="fill:none;stroke:#000000;stroke-width:0.40000001;stroke-miterlimit:4;stroke-dasharray:none" d="m 689.17253,1009.0874 a 17.17083,17.17083 0 0 0 -0.44668,0.8508" id="path7102"/>
    <path style="fill:none;stroke:#000000;stroke-width:0.40000001;stroke-miterlimit:4;stroke-dasharray:none" d="m 689.17253,1009.0874 a 17.17083,17.17083 0 0 0 -0.44668,0.8508" id="path7104"/>
    <path style="fill:none;stroke:#000000;stroke-width:0.40000001;stroke-miterlimit:4;stroke-dasharray:none" d="m 690.44207,1009.3865 a 17.17083,17.17083 0 0 0 -0.20782,-0.3767" id="path7106"/>
    <path style="fill:none;stroke:#000000;stroke-width:0.40093842;stroke-miterlimit:4;stroke-dasharray:none" d="m 697.45998,711.98631 v 242" id="path7108"/>
    <path style="fill:none;stroke:#000000;stroke-width:0.40000001;stroke-miterlimit:4;stroke-dasharray:none" d="m 685.88313,1014.3262 a 17.17083,17.17083 0 0 0 -0.17715,0.8306 h 4.91151 a 17.17083,17.17083 0 0 0 -0.17715,-0.8306" id="path7110"/>
    <path style="fill:none;stroke:#000000;stroke-width:0.40000001;stroke-miterlimit:4;stroke-dasharray:none" d="m 686.80389,1011.5493 a 17.17083,17.17083 0 0 1 0.84891,-1.7089 v -0.753" id="path7112"/>
    <path style="fill:none;stroke:#000000;stroke-width:0.40000001;stroke-miterlimit:4;stroke-dasharray:none" d="m 688.67067,1009.0874 v 0.753 a 17.17083,17.17083 0 0 1 0.82214,1.6468" id="path7114"/>
    <path style="fill:#333333;stroke:#000000;stroke-width:0.40000001;stroke-miterlimit:4;stroke-dasharray:none" d="m 683.21623,1012.1517 a 17.17083,17.17083 0 0 0 -1.38969,-3.1419 h -1.01787 a 17.17083,17.17083 0 0 0 -1.94682,5.3164 h 4.91151" id="path7116"/>
    <path style="fill:none;stroke:#000000;stroke-width:0.40000001;stroke-miterlimit:4;stroke-dasharray:none" d="m 693.05745,1008.7137 a 1.039466,1.039466 0 0 0 0.16011,0.2961 h 3.47703 a 1.039466,1.039466 0 0 0 0.2161,-0.6843" id="path7118"/>
    <path style="fill:#333333;stroke:#000000;stroke-width:0.40000001;stroke-miterlimit:4;stroke-dasharray:none" d="m 692.50032,1014.3262 h 4.91151 a 17.17083,17.17083 0 0 0 -1.94682,-5.3164 h -1.01787 a 17.17083,17.17083 0 0 0 -1.38969,3.1419" id="path7120"/>
    <path style="fill:#333333;stroke:#000000;stroke-width:0.40000001;stroke-miterlimit:4;stroke-dasharray:none" d="m 684.60592,1009.0098 a 17.17083,17.17083 0 0 0 -1.94682,5.3164 h 4.91151 a 17.17083,17.17083 0 0 0 -1.94682,-5.3164 z" id="path7122"/>
    <path style="fill:none;stroke:#000000;stroke-width:0.40093842;stroke-miterlimit:4;stroke-dasharray:none" d="m 678.81369,953.98631 v -242" id="path7138"/>
    <path style="fill:none;stroke:#000000;stroke-width:0.40000001;stroke-miterlimit:4;stroke-dasharray:none" d="m 697.45998,998.507 v 8.3097 a 2.998421,2.998421 0 0 1 -0.48904,1.5088 h -8.8341 -8.8341 a 2.998421,2.998421 0 0 1 -0.48905,-1.5088 v -8.3097" id="path7144"/>
    <path style="fill:#333333;stroke:#000000;stroke-width:0.40000001;stroke-miterlimit:4;stroke-dasharray:none" d="m 691.66776,1009.0098 a 17.17083,17.17083 0 0 1 1.94682,5.3164 h -4.91151 a 17.17083,17.17083 0 0 1 1.94682,-5.3164" id="path7171"/>
    <path style="fill:none;stroke:#000000;stroke-width:0.40000001;stroke-miterlimit:4;stroke-dasharray:none" d="m 689.42031,1009.0098 h 3.47703" id="path7173"/>
    <path style="fill:none;stroke:#000000;stroke-width:0.40000001;stroke-miterlimit:4;stroke-dasharray:none" d="m 679.36298,1008.3255 a 1.039466,1.039466 0 0 0 0.21611,0.6843 h 3.47703 a 1.039466,1.039466 0 0 0 0.16011,-0.2961" id="path7175"/>
    <path style="fill:none;stroke:#000000;stroke-width:0.40000001;stroke-miterlimit:4;stroke-dasharray:none" d="m 683.16023,1008.3255 a 1.039466,1.039466 0 0 0 0.21611,0.6843" id="path7177"/>
    <path style="fill:none;stroke:#000000;stroke-width:0.40000001;stroke-miterlimit:4;stroke-dasharray:none" d="m 678.81369,795.30272 h 18.64629" id="path7052"/>
    <g transform="translate(505.98466,-60)" id="g9568">
      <path style="fill:#005288" id="path9570" d="m 183.56121,941.89569 h -3.86836 l -0.14333,0.10719 v 3.44129 h 1.07086 v -1.29047 l 0.10222,-0.0916 h 2.83874 c 0.71676,0 1.0528,-0.19285 1.0528,-0.68766 v -0.79015 c -1.4e-4,-0.49563 -0.33604,-0.68861 -1.05293,-0.68861 m 0,1.27226 c 0,0.23312 -0.15423,0.28155 -0.49025,0.28155 h -2.33664 l -0.11407,-0.11092 v -0.73717 l 0.10221,-0.0935 h 2.3485 c 0.33602,0 0.49025,0.0479 0.49025,0.2821 v 0.37797 z"/>
      <polyline style="fill:#005288" id="polyline9572" points="99.081,19.813 105.761,29.6 105.391,30.548 90.618,30.548 86.847,35.187 108.837,35.187 110.361,36.115 113.775,40.824 122.659,40.824 103.186,14.775" transform="matrix(0.137944,0,0,0.137944,167.65337,946.98921)"/>
      <g id="g9574" transform="matrix(0.137944,0,0,0.137944,154.89541,962.71968)">
        <polyline points="187.418,35.757 187.418,28.833 188.217,28.143 203.079,28.143 203.079,23.734 179.524,23.734 179.524,40.823 214.27,40.823 214.27,36.435 188.252,36.435" id="polyline9576" style="fill:#005288"/>
        <rect x="179.524" y="15.094" width="35.112999" height="4.848" id="rect9578" style="fill:#005288"/>
      </g>
      <path style="fill:#005288" id="path9580" d="m 180.7326,957.40219 h 3.90216 c -0.0601,-0.49619 -0.36803,-0.63385 -1.14908,-0.63385 h -2.7946 c -0.88133,0 -1.16246,0.17201 -1.16246,0.83897 v 1.87121 c 0,0.66765 0.28113,0.83967 1.16246,0.83967 h 2.7946 c 0.79249,0 1.09597,-0.14885 1.11666,-0.66352 h -3.86974 l -0.11477,-0.108 v -2.0722"/>
      <path style="fill:#005288" id="path9582" d="m 183.51939,935.10176 h -2.83875 l -0.0836,-0.092 v -0.60723 l 0.0832,-0.0643 h 3.82685 l 0.0523,-0.12787 c -0.13036,-0.33534 -0.46791,-0.49177 -1.09472,-0.49177 h -2.65833 c -0.88076,0 -1.16231,0.17201 -1.16231,0.83897 v 0.39232 c 0,0.66778 0.28155,0.83952 1.16231,0.83952 h 2.83241 l 0.089,0.0781 v 0.63482 l -0.0725,0.099 h -3.23989 v -0.003 h -0.84863 c 0,0 -0.0971,0.0487 -0.0934,0.0715 0.0724,0.46652 0.39025,0.59867 1.15114,0.59867 h 2.89503 c 0.88064,0 1.17059,-0.17201 1.17059,-0.83966 v -0.48874 c 0,-0.66654 -0.28995,-0.83828 -1.17059,-0.83828"/>
      <path style="fill:#005288" id="path9584" d="m 180.7866,973.03015 h -1.59339 l -0.0865,0.16456 1.76954,1.28992 c 0.33521,-0.19409 0.69994,-0.3908 1.09666,-0.58489"/>
      <path style="fill:#005288" id="path9586" d="m 182.21432,975.46003 1.55532,1.13417 h 1.61285 l 0.0668,-0.15022 -2.32242,-1.69988 c -0.30845,0.22637 -0.61316,0.46542 -0.9125,0.71593"/>
      <path style="fill:#a7a9ac" id="path9588" d="m 180.54948,976.59158 h -1.44166 l -0.1218,-0.19077 c 0.98023,-0.94644 5.45603,-4.50343 11.28185,-4.95595 0,0 -5.09615,0.56584 -9.71839,5.14672"/>
    </g>
    <g id="g12454" transform="translate(418.0029,14)">
      <g transform="matrix(0.00124141,0,0,0.00132576,265.51549,803.69746)" id="g12456">
        <rect style="fill:#b22234" y="0" x="0" id="rect12458" height="3900" width="7410"/>
        <path style="stroke:#ffffff;stroke-width:300" id="path12460" d="m 0,450 h 7410 m 0,600 H 0 m 0,600 h 7410 m 0,600 H 0 m 0,600 h 7410 m 0,600 H 0"/>
        <rect style="fill:#3c3b6e" y="0" x="0" id="rect12462" height="2100" width="2964"/>
        <g style="fill:#ffffff" id="g12464">
          <g id="g12466">
            <g id="g12468">
              <g id="g12470">
                <g id="g12472">
                  <path d="M 247,90 317.53423,307.08204 132.87322,172.91796 H 361.12678 L 176.46577,307.08204 Z" id="path12474"/>
                  <path d="M 247,90 317.53423,307.08204 132.87322,172.91796 H 361.12678 L 176.46577,307.08204 Z" id="use12476" transform="matrix(1, 0, 0, 1, 0, 420)"/>
                  <path d="M 247,90 317.53423,307.08204 132.87322,172.91796 H 361.12678 L 176.46577,307.08204 Z" id="use12478" transform="matrix(1, 0, 0, 1, 0, 840)"/>
                  <path d="M 247,90 317.53423,307.08204 132.87322,172.91796 H 361.12678 L 176.46577,307.08204 Z" id="use12480" transform="matrix(1, 0, 0, 1, 0, 1260)"/>
                </g>
                <path d="M 247,90 317.53423,307.08204 132.87322,172.91796 H 361.12678 L 176.46577,307.08204 Z" id="use12482" transform="matrix(1, 0, 0, 1, 0, 1680)"/>
              </g>
              <g id="use12484" transform="matrix(1, 0, 0, 1, 247, 210)">
                <path d="M 247,90 317.53423,307.08204 132.87322,172.91796 H 361.12678 L 176.46577,307.08204 Z"/>
                <path d="M 247,90 317.53423,307.08204 132.87322,172.91796 H 361.12678 L 176.46577,307.08204 Z" transform="matrix(1, 0, 0, 1, 0, 420)"/>
                <path d="M 247,90 317.53423,307.08204 132.87322,172.91796 H 361.12678 L 176.46577,307.08204 Z" transform="matrix(1, 0, 0, 1, 0, 840)"/>
                <path d="M 247,90 317.53423,307.08204 132.87322,172.91796 H 361.12678 L 176.46577,307.08204 Z" transform="matrix(1, 0, 0, 1, 0, 1260)"/>
              </g>
            </g>
            <g id="use12486" transform="matrix(1, 0, 0, 1, 494, 0)">
              <g>
                <g>
                  <path d="M 247,90 317.53423,307.08204 132.87322,172.91796 H 361.12678 L 176.46577,307.08204 Z"/>
                  <path d="M 247,90 317.53423,307.08204 132.87322,172.91796 H 361.12678 L 176.46577,307.08204 Z" transform="matrix(1, 0, 0, 1, 0, 420)"/>
                  <path d="M 247,90 317.53423,307.08204 132.87322,172.91796 H 361.12678 L 176.46577,307.08204 Z" transform="matrix(1, 0, 0, 1, 0, 840)"/>
                  <path d="M 247,90 317.53423,307.08204 132.87322,172.91796 H 361.12678 L 176.46577,307.08204 Z" transform="matrix(1, 0, 0, 1, 0, 1260)"/>
                </g>
                <path d="M 247,90 317.53423,307.08204 132.87322,172.91796 H 361.12678 L 176.46577,307.08204 Z" transform="matrix(1, 0, 0, 1, 0, 1680)"/>
              </g>
              <g transform="matrix(1, 0, 0, 1, 247, 210)">
                <path d="M 247,90 317.53423,307.08204 132.87322,172.91796 H 361.12678 L 176.46577,307.08204 Z"/>
                <path d="M 247,90 317.53423,307.08204 132.87322,172.91796 H 361.12678 L 176.46577,307.08204 Z" transform="matrix(1, 0, 0, 1, 0, 420)"/>
                <path d="M 247,90 317.53423,307.08204 132.87322,172.91796 H 361.12678 L 176.46577,307.08204 Z" transform="matrix(1, 0, 0, 1, 0, 840)"/>
                <path d="M 247,90 317.53423,307.08204 132.87322,172.91796 H 361.12678 L 176.46577,307.08204 Z" transform="matrix(1, 0, 0, 1, 0, 1260)"/>
              </g>
            </g>
          </g>
          <g id="use12488" transform="matrix(1, 0, 0, 1, 988, 0)">
            <g>
              <g>
                <g>
                  <path d="M 247,90 317.53423,307.08204 132.87322,172.91796 H 361.12678 L 176.46577,307.08204 Z"/>
                  <path d="M 247,90 317.53423,307.08204 132.87322,172.91796 H 361.12678 L 176.46577,307.08204 Z" transform="matrix(1, 0, 0, 1, 0, 420)"/>
                  <path d="M 247,90 317.53423,307.08204 132.87322,172.91796 H 361.12678 L 176.46577,307.08204 Z" transform="matrix(1, 0, 0, 1, 0, 840)"/>
                  <path d="M 247,90 317.53423,307.08204 132.87322,172.91796 H 361.12678 L 176.46577,307.08204 Z" transform="matrix(1, 0, 0, 1, 0, 1260)"/>
                </g>
                <path d="M 247,90 317.53423,307.08204 132.87322,172.91796 H 361.12678 L 176.46577,307.08204 Z" transform="matrix(1, 0, 0, 1, 0, 1680)"/>
              </g>
              <g transform="matrix(1, 0, 0, 1, 247, 210)">
                <path d="M 247,90 317.53423,307.08204 132.87322,172.91796 H 361.12678 L 176.46577,307.08204 Z"/>
                <path d="M 247,90 317.53423,307.08204 132.87322,172.91796 H 361.12678 L 176.46577,307.08204 Z" transform="matrix(1, 0, 0, 1, 0, 420)"/>
                <path d="M 247,90 317.53423,307.08204 132.87322,172.91796 H 361.12678 L 176.46577,307.08204 Z" transform="matrix(1, 0, 0, 1, 0, 840)"/>
                <path d="M 247,90 317.53423,307.08204 132.87322,172.91796 H 361.12678 L 176.46577,307.08204 Z" transform="matrix(1, 0, 0, 1, 0, 1260)"/>
              </g>
            </g>
            <g transform="matrix(1, 0, 0, 1, 494, 0)">
              <g>
                <g>
                  <path d="M 247,90 317.53423,307.08204 132.87322,172.91796 H 361.12678 L 176.46577,307.08204 Z"/>
                  <path d="M 247,90 317.53423,307.08204 132.87322,172.91796 H 361.12678 L 176.46577,307.08204 Z" transform="matrix(1, 0, 0, 1, 0, 420)"/>
                  <path d="M 247,90 317.53423,307.08204 132.87322,172.91796 H 361.12678 L 176.46577,307.08204 Z" transform="matrix(1, 0, 0, 1, 0, 840)"/>
                  <path d="M 247,90 317.53423,307.08204 132.87322,172.91796 H 361.12678 L 176.46577,307.08204 Z" transform="matrix(1, 0, 0, 1, 0, 1260)"/>
                </g>
                <path d="M 247,90 317.53423,307.08204 132.87322,172.91796 H 361.12678 L 176.46577,307.08204 Z" transform="matrix(1, 0, 0, 1, 0, 1680)"/>
              </g>
              <g transform="matrix(1, 0, 0, 1, 247, 210)">
                <path d="M 247,90 317.53423,307.08204 132.87322,172.91796 H 361.12678 L 176.46577,307.08204 Z"/>
                <path d="M 247,90 317.53423,307.08204 132.87322,172.91796 H 361.12678 L 176.46577,307.08204 Z" transform="matrix(1, 0, 0, 1, 0, 420)"/>
                <path d="M 247,90 317.53423,307.08204 132.87322,172.91796 H 361.12678 L 176.46577,307.08204 Z" transform="matrix(1, 0, 0, 1, 0, 840)"/>
                <path d="M 247,90 317.53423,307.08204 132.87322,172.91796 H 361.12678 L 176.46577,307.08204 Z" transform="matrix(1, 0, 0, 1, 0, 1260)"/>
              </g>
            </g>
          </g>
          <g id="use12490" transform="matrix(1, 0, 0, 1, 1976, 0)">
            <g>
              <g>
                <path d="M 247,90 317.53423,307.08204 132.87322,172.91796 H 361.12678 L 176.46577,307.08204 Z"/>
                <path d="M 247,90 317.53423,307.08204 132.87322,172.91796 H 361.12678 L 176.46577,307.08204 Z" transform="matrix(1, 0, 0, 1, 0, 420)"/>
                <path d="M 247,90 317.53423,307.08204 132.87322,172.91796 H 361.12678 L 176.46577,307.08204 Z" transform="matrix(1, 0, 0, 1, 0, 840)"/>
                <path d="M 247,90 317.53423,307.08204 132.87322,172.91796 H 361.12678 L 176.46577,307.08204 Z" transform="matrix(1, 0, 0, 1, 0, 1260)"/>
              </g>
              <path d="M 247,90 317.53423,307.08204 132.87322,172.91796 H 361.12678 L 176.46577,307.08204 Z" transform="matrix(1, 0, 0, 1, 0, 1680)"/>
            </g>
            <g transform="matrix(1, 0, 0, 1, 247, 210)">
              <path d="M 247,90 317.53423,307.08204 132.87322,172.91796 H 361.12678 L 176.46577,307.08204 Z"/>
              <path d="M 247,90 317.53423,307.08204 132.87322,172.91796 H 361.12678 L 176.46577,307.08204 Z" transform="matrix(1, 0, 0, 1, 0, 420)"/>
              <path d="M 247,90 317.53423,307.08204 132.87322,172.91796 H 361.12678 L 176.46577,307.08204 Z" transform="matrix(1, 0, 0, 1, 0, 840)"/>
              <path d="M 247,90 317.53423,307.08204 132.87322,172.91796 H 361.12678 L 176.46577,307.08204 Z" transform="matrix(1, 0, 0, 1, 0, 1260)"/>
            </g>
          </g>
          <g id="use12492" transform="matrix(1, 0, 0, 1, 2470, 0)">
            <g>
              <path d="M 247,90 317.53423,307.08204 132.87322,172.91796 H 361.12678 L 176.46577,307.08204 Z"/>
              <path d="M 247,90 317.53423,307.08204 132.87322,172.91796 H 361.12678 L 176.46577,307.08204 Z" transform="matrix(1, 0, 0, 1, 0, 420)"/>
              <path d="M 247,90 317.53423,307.08204 132.87322,172.91796 H 361.12678 L 176.46577,307.08204 Z" transform="matrix(1, 0, 0, 1, 0, 840)"/>
              <path d="M 247,90 317.53423,307.08204 132.87322,172.91796 H 361.12678 L 176.46577,307.08204 Z" transform="matrix(1, 0, 0, 1, 0, 1260)"/>
            </g>
            <path d="M 247,90 317.53423,307.08204 132.87322,172.91796 H 361.12678 L 176.46577,307.08204 Z" transform="matrix(1, 0, 0, 1, 0, 1680)"/>
          </g>
        </g>
      </g>
      <g transform="matrix(0.83861708,0,0,0.83861708,-387.4661,146.6637)" style="display:inline" id="g12494">
        <g transform="matrix(0.03300322,0,0,0.02935723,823.88193,760.14368)" id="g12496" style="display:inline;fill:#a80126;fill-opacity:1;stroke:none">
          <path style="color:#000000;display:inline;overflow:visible;visibility:visible;opacity:1;fill:#a80126;fill-opacity:1;fill-rule:evenodd;stroke:none;stroke-width:2.94154143;stroke-linecap:round;stroke-linejoin:round;stroke-miterlimit:4;stroke-dasharray:none;stroke-dashoffset:0;stroke-opacity:1;marker:none;enable-background:accumulate" d="m -1300.4606,480.36235 c 11.1133,-6.6876 22.2943,-13.20693 34.0114,-18.38464 -132.6286,-78.44738 -140.0615,-137.41999 -167.3002,-199.47327 20.975,71.86273 38.4963,143.61399 133.2888,217.85791 z" id="path12498"/>
          <path style="color:#000000;display:inline;overflow:visible;visibility:visible;opacity:1;fill:#a80126;fill-opacity:1;fill-rule:evenodd;stroke:none;stroke-width:0.58830827;stroke-linecap:round;stroke-linejoin:round;stroke-miterlimit:4;stroke-dasharray:none;stroke-dashoffset:0;stroke-opacity:1;marker:none;enable-background:accumulate" d="m -1369.5513,362.60714 c 50.5297,47.50445 94.389,81.3501 126.7489,91.64934 31.9861,-19.18623 137.8211,-29.61473 135.5239,-2.54979 -23.1658,-12.83454 -36.93,-6.74784 -50.0493,-2.00169 6.6053,-0.10298 24.0357,-2.2755 29.2796,-0.20296 -2.1318,2.89786 -4.4484,4.14017 -6.8385,5.76748 8.5624,2.10321 16.6491,4.84327 23.3833,9.38558 4.3636,-0.46771 7.2164,-0.34714 8.5499,1.17391 -4.4528,1.31778 -9.8198,7.73867 -12.4497,12.09421 29.4119,0.9413 60.7314,0.61184 64.0243,35.48058 9.2723,-30.88118 -7.307,-46.9358 -39.6496,-53.94965 -4.2387,-10.57482 -11.0706,-19.59771 -17.7011,-29.82074 -88.3877,-5.55362 -176.6731,-12.29711 -260.8217,-67.02627 z" id="path12500"/>
        </g>
        <path id="path12502" d="m 776.39355,777.84362 v -1.76612 h 1.18225 c -0.0468,0.061 -0.0864,0.12474 -0.18639,0.1644 h -0.74024 v 0.46501 h 0.66035 c -0.0374,0.0561 -0.079,0.10815 -0.14911,0.13152 h -0.51124 v 0.62942 c -0.0537,0.14329 -0.12508,0.27641 -0.25562,0.37577 z" style="color:#000000;display:inline;overflow:visible;visibility:visible;opacity:1;fill:#000000;fill-opacity:1;fill-rule:evenodd;stroke:none;stroke-width:0.02;stroke-linecap:round;stroke-linejoin:round;stroke-miterlimit:4;stroke-dasharray:none;stroke-dashoffset:0;stroke-opacity:1;marker:none;enable-background:accumulate"/>
        <path id="path12504" d="m 779.58348,776.26068 v 1.29171 h 0.3355 v -1.21654 c -0.45444,-0.41336 -0.90887,-0.41334 -1.36331,0 v 1.21654 h 0.30355 v -0.71396 h 0.23964 c 0.0558,-0.0289 0.0946,-0.0634 0.11716,-0.10333 h -0.35148 v -0.46972 c 0.26966,-0.18552 0.48464,-0.18521 0.71894,-0.005 z" style="color:#000000;display:inline;overflow:visible;visibility:visible;opacity:1;fill:#000000;fill-opacity:1;fill-rule:evenodd;stroke:none;stroke-width:0.02;stroke-linecap:round;stroke-linejoin:round;stroke-miterlimit:4;stroke-dasharray:none;stroke-dashoffset:0;stroke-opacity:1;marker:none;enable-background:accumulate"/>
        <path id="path12506" d="m 783.08693,777.59467 h -1.36264 v -1.48898 h 0.34083 v 1.36685 h 1.19821 c -0.05,0.0459 -0.0757,0.10658 -0.1764,0.12213 z" style="color:#000000;display:inline;overflow:visible;visibility:visible;opacity:1;fill:#000000;fill-opacity:1;fill-rule:evenodd;stroke:none;stroke-width:0.02;stroke-linecap:round;stroke-linejoin:round;stroke-miterlimit:4;stroke-dasharray:none;stroke-dashoffset:0;stroke-opacity:1;marker:none;enable-background:accumulate"/>
        <path id="path12508" d="m 785.12294,776.078 v 0.29228 c -0.54701,0.74211 0.38554,1.63269 1.4347,0.9798 l 0.0791,-0.0164 c -0.65052,0.73444 -3.03363,0.13829 -1.51374,-1.25563 z" style="color:#000000;display:inline;overflow:visible;visibility:visible;opacity:1;fill:#000000;fill-opacity:1;fill-rule:evenodd;stroke:none;stroke-width:0.02;stroke-linecap:round;stroke-linejoin:round;stroke-miterlimit:4;stroke-dasharray:none;stroke-dashoffset:0;stroke-opacity:1;marker:none;enable-background:accumulate"/>
        <path id="path12510" d="m 784.40296,776.11632 v 0.53901 c 0.52314,-0.9429 1.24853,-1.41209 3.46981,-0.78644 -2.13059,-0.83689 -2.92137,-0.39839 -3.46981,0.24743 z" style="color:#000000;display:inline;overflow:visible;visibility:visible;opacity:1;fill:#000000;fill-opacity:1;fill-rule:evenodd;stroke:none;stroke-width:0.02;stroke-linecap:round;stroke-linejoin:round;stroke-miterlimit:4;stroke-dasharray:none;stroke-dashoffset:0;stroke-opacity:1;marker:none;enable-background:accumulate"/>
        <path id="path12512" transform="translate(60.793184,628.22097)" d="m 727.74805,147.74023 c -0.44504,0.007 -0.89118,0.30411 -0.88867,0.86719 0.005,1.12616 1.77681,1.18357 1.77734,0 2.6e-4,-0.59178 -0.44364,-0.87436 -0.88867,-0.86719 z m -0.004,0.11719 c 0.26392,-0.003 0.52905,0.24468 0.53125,0.75 0.005,1.01064 -1.04599,0.98776 -1.05273,0 -0.004,-0.49388 0.25756,-0.74714 0.52148,-0.75 z" style="color:#000000;display:inline;overflow:visible;visibility:visible;opacity:1;fill:#000000;fill-opacity:1;fill-rule:evenodd;stroke:none;stroke-width:0.02;stroke-linecap:round;stroke-linejoin:round;stroke-miterlimit:4;stroke-dasharray:none;stroke-dashoffset:0;stroke-opacity:1;marker:none;enable-background:accumulate"/>
        <path id="path12514" d="m 791.0877,776.264 v 1.34182 h -0.26472 v -1.40825 l 0.26586,-0.12881 -0.002,0.061 c 0.40971,-0.009 0.69591,0.17823 0.77056,0.28164 v 1.20772 h -0.25804 v -1.18624 c -0.0949,-0.15792 -0.20101,-0.19757 -0.51212,-0.20108 z" style="color:#000000;display:inline;overflow:visible;visibility:visible;opacity:1;fill:#000000;fill-opacity:1;fill-rule:evenodd;stroke:none;stroke-width:0.02;stroke-linecap:round;stroke-linejoin:round;stroke-miterlimit:4;stroke-dasharray:none;stroke-dashoffset:0;stroke-opacity:1;marker:none;enable-background:accumulate"/>
        <path id="path12516" transform="translate(60.793184,628.22097)" d="m 723.35352,150.42188 c -2.7397,0.0125 -2.03035,2.20961 -0.51563,2.16601 0.70614,-0.0203 0.83974,-0.094 1.3125,-0.59961 -0.29549,1.48111 -1.30134,1.4817 -2.51172,1.59961 -0.15206,0.0998 -0.18293,0.12076 -0.28711,0.28125 2.05521,-0.0414 3.77902,-0.40709 3.72852,-2.00195 -0.0353,-1.11572 -0.78209,-1.44932 -1.72656,-1.44531 z m -0.041,0.26562 a 0.90375179,0.71076995 0 0 1 0.9043,0.71094 0.90375179,0.71076995 0 0 1 -0.9043,0.70898 0.90375179,0.71076995 0 0 1 -0.90234,-0.70898 0.90375179,0.71076995 0 0 1 0.90234,-0.71094 z" style="color:#000000;display:inline;overflow:visible;visibility:visible;opacity:1;fill:#000000;fill-opacity:1;fill-rule:evenodd;stroke:none;stroke-width:0.02;stroke-linecap:round;stroke-linejoin:round;stroke-miterlimit:4;stroke-dasharray:none;stroke-dashoffset:0;stroke-opacity:1;marker:none;enable-background:accumulate"/>
      </g>
    </g>
    <path id="path9116" d="m 697.45001,795.65118 1.28163,2.20971 v 21.30159 l -0.53033,3.44715 v 176.40464 l -0.9706,3.68753 v -33.50003 l -0.5,-1.625 v -2.875 l 0.47099,-1.75777 v -15.92973 l -0.55136,-2.05771 v -4.12979 l 0.45537,-2.125 V 828.63926 l -0.4375,-2.4375 v -30.5 z" style="color:#000000;display:inline;overflow:visible;visibility:visible;opacity:1;fill:#101010;fill-opacity:1;fill-rule:evenodd;stroke:#000000;stroke-width:0.40000001;stroke-linecap:round;stroke-linejoin:round;stroke-miterlimit:4;stroke-dasharray:none;stroke-dashoffset:0;stroke-opacity:1;marker:none;enable-background:accumulate"/>
    <path style="fill:none;stroke:#000000;stroke-width:0.40000001;stroke-miterlimit:4;stroke-dasharray:none" d="m 678.81369,1003.9373 h 18.64629" id="path7050"/>
    <path id="path7659" d="m 678.81369,989.9373 h 18.64629" style="fill:none;stroke:#000000;stroke-width:0.40000001;stroke-miterlimit:4;stroke-dasharray:none"/>
    <g transform="translate(87.5)" id="g8452">
      <rect y="1004.3309" x="590.74219" height="0.453125" width="0.4765625" id="rect6974" style="fill:#101010;fill-opacity:1;stroke:none"/>
      <path style="fill:url(#linearGradient8372);fill-opacity:1;stroke:none;stroke-width:0.40000001;stroke-miterlimit:4;stroke-dasharray:none" d="m 593.66425,949.71316 -0.0586,0.004 -0.0605,0.01 -0.0606,0.0156 -0.0605,0.0215 -0.0605,0.0293 -0.0625,0.0332 -0.0625,0.041 -0.0625,0.0469 -0.0645,0.0527 -0.0645,0.0606 -0.0664,0.0664 -0.0664,0.0762 -0.0684,0.084 -0.0703,0.0918 -0.0684,0.0996 -0.0723,0.10937 -0.0723,0.11914 -0.0742,0.12696 -0.0742,0.13672 -0.0762,0.14453 -0.0762,0.15234 -0.0762,0.15821 -0.0762,0.1621 -0.0742,0.16602 -0.0742,0.16992 -0.0723,0.16992 -0.0703,0.17383 -0.0703,0.17188 -0.0664,0.17187 -0.0625,0.16992 -0.0605,0.16797 -0.0566,0.16797 -0.0547,0.16602 -0.0508,0.16601 -0.0449,0.16602 -0.043,0.16601 -0.0391,0.16797 -0.0352,0.16797 -0.0254,0.14649 -0.0137,0.0351 -0.0293,0.0762 -0.0273,0.0762 -0.0527,0.15039 -0.0488,0.14453 -0.0469,0.14453 -0.041,0.14062 -0.041,0.13868 -0.0391,0.13671 -0.0371,0.13672 -0.0352,0.13477 -0.0351,0.13672 -0.0332,0.13867 -0.0312,0.14062 -0.0312,0.14454 -0.0312,0.14843 -0.0137,0.0762 -0.0156,0.0762 -0.0156,0.0801 -0.0137,0.0801 -0.0156,0.084 -0.0137,0.084 -0.0156,0.0859 -0.0137,0.0879 -0.0137,0.0918 -0.0156,0.0918 -0.006,0.0488 -0.002,0.0117 -0.002,0.006 v 0.002 0.002 0.002 0.004 l -0.002,0.0293 -0.0137,0.44922 -0.0605,1.80469 -0.24219,7.21289 -0.48047,14.42578 -0.48242,14.42578 -0.24023,7.21289 -0.004,0.1113 -0.002,0.057 v 0.01 0 l 0.002,0.012 0.004,0.023 0.01,0.047 0.0176,0.092 0.0215,0.094 0.0215,0.094 0.0234,0.094 0.0273,0.094 0.0273,0.094 0.0332,0.094 0.0332,0.092 0.0391,0.092 0.043,0.092 0.0449,0.092 0.0508,0.092 0.0547,0.09 0.0605,0.088 0.0645,0.088 0.0703,0.088 0.0371,0.043 0.0391,0.043 0.041,0.041 0.041,0.043 0.043,0.041 0.0449,0.043 0.0469,0.041 0.0488,0.041 0.0508,0.039 0.0508,0.041 0.0527,0.039 0.0566,0.039 0.0566,0.039 0.0586,0.039 0.0605,0.037 0.0645,0.039 0.0645,0.037 0.0332,0.016 h 0.0156 0.0176 0.0156 0.008 0.008 l 0.008,-0.01 0.01,-0.01 0.008,-0.012 0.008,-0.012 0.008,-0.014 0.006,-0.018 h 0.002 l 0.002,-0.01 0.002,-0.016 0.004,-0.031 0.0137,-0.1269 0.0312,-0.2578 0.0293,-0.2598 0.0293,-0.2617 0.0293,-0.2637 0.0293,-0.2676 0.0293,-0.2676 0.0293,-0.2695 0.0293,-0.2734 0.0293,-0.2734 0.0293,-0.2754 0.0586,-0.5528 0.0586,-0.5586 0.0586,-0.5605 0.0586,-0.56252 0.1211,-1.12695 0.0586,-0.56055 0.0625,-0.55859 0.0605,-0.55274 0.0312,-0.27539 0.0312,-0.27539 0.0312,-0.27148 0.0332,-0.27149 0.0312,-0.26758 0.0312,-0.26757 0.0332,-0.26368 0.0332,-0.26171 0.0332,-0.25977 0.0332,-0.25781 0.0332,-0.25586 0.0332,-0.25 0.0352,-0.25 0.0332,-0.24414 0.0352,-0.24219 0.0351,-0.24023 0.0371,-0.23438 0.0352,-0.23242 0.0352,-0.22656 0.0371,-0.22461 0.0371,-0.21875 0.0371,-0.21485 0.0469,-0.14258 0.0781,-0.15429 0.10938,-0.16211 0.13476,-0.16016 0.16016,-0.15234 0.18164,-0.13672 0.19726,-0.11328 0.21485,-0.084 0.22461,-0.0449 h 0.23437 l 0.24024,0.0527 0.24218,0.11133 0.4043,1.05664 0.42383,1.16601 0.42187,1.16602 0.42383,1.16601 0.42188,1.16602 0.42383,1.16601 0.42187,1.16602 0.42383,1.16601 0.42187,1.16802 0.42383,1.166 0.42188,1.166 0.42383,1.166 0.10742,0.2832 0.0195,0.035 0.0215,0.033 0.0234,0.029 0.0254,0.029 0.0273,0.025 0.0274,0.023 0.0273,0.022 0.0312,0.019 0.0293,0.016 0.0312,0.016 0.0312,0.014 0.0332,0.01 0.0332,0.01 0.0313,0.01 h 0.0332 0.0312 0.0332 0.0293 0.0312 0.0273 0.0274 0.0273 0.0234 0.0391 l 0.0527,-0.025 0.0527,-0.049 0.0508,-0.074 0.0488,-0.094 0.0469,-0.1133 0.043,-0.1269 0.041,-0.1407 0.0371,-0.1503 0.0332,-0.1582 0.0293,-0.1622 0.0234,-0.164 -0.1914,-1.8223 -0.44922,-3.81639 -0.44922,-3.81445 -0.44922,-3.81641 -0.44922,-3.81445 -0.44726,-3.81641 -0.44922,-3.81445 -0.44922,-3.81641 -0.44922,-3.81445 -0.44727,-3.81641 -0.44921,-3.81445 -0.44922,-3.81641 -0.29297,-2.58398 -0.004,-0.25 -0.002,-0.25196 -0.002,-0.25 -0.002,-0.25 -0.002,-0.25195 -0.002,-0.25 -0.002,-0.25195 -0.002,-0.25 -0.002,-0.25 -0.002,-0.25196 -0.002,-0.25 -0.01,-0.31445 -0.0352,-0.48828 -0.0371,-0.44141 -0.0371,-0.40039 -0.0371,-0.35937 -0.041,-0.32422 -0.0391,-0.28906 -0.041,-0.26172 -0.041,-0.23242 -0.043,-0.20899 -0.043,-0.1875 -0.0449,-0.17187 -0.0449,-0.15625 -0.0449,-0.14453 -0.0469,-0.13282 -0.0449,-0.12109 -0.0488,-0.11133 -0.0469,-0.10156 -0.0488,-0.0918 -0.0508,-0.084 -0.0488,-0.0742 -0.0527,-0.0664 -0.0508,-0.0586 -0.0527,-0.0527 -0.0527,-0.0449 -0.0547,-0.0391 -0.0547,-0.0312 -0.0547,-0.0273 -0.0566,-0.0195 -0.0566,-0.0137 -0.0566,-0.008 z" id="path7026"/>
      <path style="color:#000000;display:inline;overflow:visible;visibility:visible;opacity:1;fill:url(#linearGradient8399);fill-opacity:1;fill-rule:evenodd;stroke:none;stroke-width:0.40000001;stroke-linecap:round;stroke-linejoin:round;stroke-miterlimit:4;stroke-dasharray:none;stroke-dashoffset:0;stroke-opacity:1;marker:none;enable-background:accumulate" d="m 590.59008,1005.1549 0.6875,-6.28125 0.17188,-1.96875 0.60937,-4.625 0.0937,-0.64063 0.32818,-0.53125 0.42187,-0.375 0.42188,-0.1875 0.4375,-0.0469 0.29687,0.0469 0.26563,0.20313 5.09375,14.12495 0.29687,0.2657 0.34375,0.062 -0.0156,-0.2339 -7.68752,-20.67188 -0.375,-0.42187 -0.40625,-0.26563 -0.42188,0.10938 -0.17187,0.51562 -1.60938,19.90628 0.39063,0.5 0.39062,0.3593 z" id="path8389"/>
      <path id="path7126" d="m 595.14409,954.56663 -1.23406,-1.30732" style="fill:none;stroke:#000000;stroke-width:0.40000001;stroke-miterlimit:4;stroke-dasharray:none"/>
      <path id="path7128" d="m 593.91003,953.25931 -2.43028,0.008" style="fill:none;stroke:#000000;stroke-width:0.40000001;stroke-miterlimit:4;stroke-dasharray:none"/>
      <path id="path7130" d="m 591.39053,983.6242 0.17448,-24.11936" style="fill:none;stroke:#000000;stroke-width:0.40000001;stroke-miterlimit:4;stroke-dasharray:none"/>
      <path id="path7132" d="m 591.56501,959.50484 2.16051,-2.92528" style="fill:none;stroke:#000000;stroke-width:0.40000001;stroke-miterlimit:4;stroke-dasharray:none"/>
      <path id="path7134" d="m 591.56501,959.50484 -1.03222,-2.67419" style="fill:none;stroke:#000000;stroke-width:0.40000001;stroke-miterlimit:4;stroke-dasharray:none"/>
      <path id="path7136" d="m 593.72552,956.57956 0.18451,-3.32025" style="fill:none;stroke:#000000;stroke-width:0.40000001;stroke-linecap:round;stroke-miterlimit:4;stroke-dasharray:none"/>
      <path id="path7140" d="m 590.6999,1004.254 h 0.61379" style="fill:none;stroke:#000000;stroke-width:0.40000001;stroke-miterlimit:4;stroke-dasharray:none"/>
      <path id="path7142" d="m 590.62482,1004.91 h 0.68887" style="fill:none;stroke:#000000;stroke-width:0.40000001;stroke-miterlimit:4;stroke-dasharray:none"/>
      <path id="path7150" d="m 589.38151,1004.1576 0.11841,-1.5018 0.11841,-1.5018 0.11841,-1.5018 0.1184,-1.5018 0.11841,-1.5018 0.11841,-1.5018 0.11841,-1.5018 0.11841,-1.5018 0.11841,-1.5018 0.1184,-1.5018 0.11841,-1.5018 0.11841,-1.5018 0.11841,-1.5018 0.0498,-0.4765 0.033,-0.1192 0.0392,-0.1024 0.0448,-0.086 0.0498,-0.071 0.054,-0.057 0.0577,-0.043 0.0606,-0.031 0.0629,-0.019 0.0645,-0.01 h 0.0655 l 0.0657,0.01 0.0654,0.018 0.0644,0.025 0.063,0.032 0.0615,0.038 0.06,0.043 0.0584,0.047 0.0568,0.052 0.0551,0.055 0.0533,0.058 0.0514,0.06 0.0495,0.062 0.0476,0.063 0.0455,0.064 0.0435,0.064 0.17689,0.44 0.58285,1.5693 0.58284,1.5693 0.58285,1.5693 0.58285,1.5694 0.58284,1.5693 0.58285,1.5693 0.58285,1.5693 0.58284,1.5693 0.58285,1.5693 0.58284,1.5694 0.58285,1.5693 0.58285,1.5693 0.58284,1.5693" style="fill:none;stroke:#000000;stroke-width:0.40000001;stroke-miterlimit:4;stroke-dasharray:none"/>
      <path id="path8391" d="m 593.66425,949.71316 -0.0586,0.004 -0.0605,0.01 -0.0606,0.0156 -0.0605,0.0215 -0.0605,0.0293 -0.0625,0.0332 -0.0625,0.041 -0.0625,0.0469 -0.0645,0.0527 -0.0645,0.0606 -0.0664,0.0664 -0.0664,0.0762 -0.0684,0.084 -0.0703,0.0918 -0.0684,0.0996 -0.0723,0.10937 -0.0723,0.11914 -0.0742,0.12696 -0.0742,0.13672 -0.0762,0.14453 -0.0762,0.15234 -0.0762,0.15821 -0.0762,0.1621 -0.0742,0.16602 -0.0742,0.16992 -0.0723,0.16992 -0.0703,0.17383 -0.0703,0.17188 -0.0664,0.17187 -0.0625,0.16992 -0.0605,0.16797 -0.0566,0.16797 -0.0547,0.16602 -0.0508,0.16601 -0.0449,0.16602 -0.043,0.16601 -0.0391,0.16797 -0.0352,0.16797 -0.0254,0.14649 -0.0137,0.0351 -0.0293,0.0762 -0.0273,0.0762 -0.0527,0.15039 -0.0488,0.14453 -0.0469,0.14453 -0.041,0.14062 -0.041,0.13868 -0.0391,0.13671 -0.0371,0.13672 -0.0352,0.13477 -0.0351,0.13672 -0.0332,0.13867 -0.0312,0.14062 -0.0312,0.14454 -0.0312,0.14843 -0.0137,0.0762 -0.0156,0.0762 -0.0156,0.0801 -0.0137,0.0801 -0.0156,0.084 -0.0137,0.084 -0.0156,0.0859 -0.0137,0.0879 -0.0137,0.0918 -0.0156,0.0918 -0.006,0.0488 -0.002,0.0117 -0.002,0.006 v 0.002 0.002 0.002 0.004 l -0.002,0.0293 -0.0137,0.44922 -0.0605,1.80469 -0.24219,7.21289 -0.48047,14.42578 -0.48242,14.42578 -0.24023,7.21289 -0.004,0.1113 -0.002,0.057 v 0.01 0 l 0.002,0.012 0.004,0.023 0.01,0.047 0.0176,0.092 0.0215,0.094 0.0215,0.094 0.0234,0.094 0.0273,0.094 0.0273,0.094 0.0332,0.094 0.0332,0.092 0.0391,0.092 0.043,0.092 0.0449,0.092 0.0508,0.092 0.0547,0.09 0.0605,0.088 0.0645,0.088 0.0703,0.088 0.0371,0.043 0.0391,0.043 0.041,0.041 0.041,0.043 0.043,0.041 0.0449,0.043 0.0469,0.041 0.0488,0.041 0.0508,0.039 0.0508,0.041 0.0527,0.039 0.0566,0.039 0.0566,0.039 0.0586,0.039 0.0605,0.037 0.0645,0.039 0.0645,0.037 0.0332,0.016 h 0.0156 0.0176 0.0156 0.008 0.008 l 0.008,-0.01 0.01,-0.01 0.008,-0.012 0.008,-0.012 0.008,-0.014 0.006,-0.018 h 0.002 l 0.002,-0.01 0.002,-0.016 0.004,-0.031 0.0137,-0.1269 0.0312,-0.2578 0.0293,-0.2598 0.0293,-0.2617 0.0293,-0.2637 0.0293,-0.2676 0.0293,-0.2676 0.0293,-0.2695 0.0293,-0.2734 0.0293,-0.2734 0.0293,-0.2754 0.0586,-0.5528 0.0586,-0.5586 0.0586,-0.5605 0.0586,-0.56252 0.1211,-1.12695 0.0586,-0.56055 0.0625,-0.55859 0.0605,-0.55274 0.0312,-0.27539 0.0312,-0.27539 0.0312,-0.27148 0.0332,-0.27149 0.0312,-0.26758 0.0312,-0.26757 0.0332,-0.26368 0.0332,-0.26171 0.0332,-0.25977 0.0332,-0.25781 0.0332,-0.25586 0.0332,-0.25 0.0352,-0.25 0.0332,-0.24414 0.0352,-0.24219 0.0351,-0.24023 0.0371,-0.23438 0.0352,-0.23242 0.0352,-0.22656 0.0371,-0.22461 0.0371,-0.21875 0.0371,-0.21485 0.0469,-0.14258 0.0781,-0.15429 0.10938,-0.16211 0.13476,-0.16016 0.16016,-0.15234 0.18164,-0.13672 0.19726,-0.11328 0.21485,-0.084 0.22461,-0.0449 h 0.23437 l 0.24024,0.0527 0.24218,0.11133 0.4043,1.05664 0.42383,1.16601 0.42187,1.16602 0.42383,1.16601 0.42188,1.16602 0.42383,1.16601 0.42187,1.16602 0.42383,1.16601 0.42187,1.16802 0.42383,1.166 0.42188,1.166 0.42383,1.166 0.10742,0.2832 0.0195,0.035 0.0215,0.033 0.0234,0.029 0.0254,0.029 0.0273,0.025 0.0274,0.023 0.0273,0.022 0.0312,0.019 0.0293,0.016 0.0312,0.016 0.0312,0.014 0.0332,0.01 0.0332,0.01 0.0313,0.01 h 0.0332 0.0312 0.0332 0.0293 0.0312 0.0273 0.0274 0.0273 0.0234 0.0391 l 0.0527,-0.025 0.0527,-0.049 0.0508,-0.074 0.0488,-0.094 0.0469,-0.1133 0.043,-0.1269 0.041,-0.1407 0.0371,-0.1503 0.0332,-0.1582 0.0293,-0.1622 0.0234,-0.164 -0.1914,-1.8223 -0.44922,-3.81639 -0.44922,-3.81445 -0.44922,-3.81641 -0.44922,-3.81445 -0.44726,-3.81641 -0.44922,-3.81445 -0.44922,-3.81641 -0.44922,-3.81445 -0.44727,-3.81641 -0.44921,-3.81445 -0.44922,-3.81641 -0.29297,-2.58398 -0.004,-0.25 -0.002,-0.25196 -0.002,-0.25 -0.002,-0.25 -0.002,-0.25195 -0.002,-0.25 -0.002,-0.25195 -0.002,-0.25 -0.002,-0.25 -0.002,-0.25196 -0.002,-0.25 -0.01,-0.31445 -0.0352,-0.48828 -0.0371,-0.44141 -0.0371,-0.40039 -0.0371,-0.35937 -0.041,-0.32422 -0.0391,-0.28906 -0.041,-0.26172 -0.041,-0.23242 -0.043,-0.20899 -0.043,-0.1875 -0.0449,-0.17187 -0.0449,-0.15625 -0.0449,-0.14453 -0.0469,-0.13282 -0.0449,-0.12109 -0.0488,-0.11133 -0.0469,-0.10156 -0.0488,-0.0918 -0.0508,-0.084 -0.0488,-0.0742 -0.0527,-0.0664 -0.0508,-0.0586 -0.0527,-0.0527 -0.0527,-0.0449 -0.0547,-0.0391 -0.0547,-0.0312 -0.0547,-0.0273 -0.0566,-0.0195 -0.0566,-0.0137 -0.0566,-0.008 z" style="fill:none;fill-opacity:1;stroke:#000000;stroke-width:0.40000001;stroke-miterlimit:4;stroke-dasharray:none"/>
    </g>
    <g transform="matrix(-1,0,0,1,1288.7743,0)" id="g8480">
      <rect style="fill:#101010;fill-opacity:1;stroke:none" id="rect8454" width="0.4765625" height="0.453125" x="590.74219" y="1004.3309"/>
      <path id="path8456" d="m 593.66425,949.71316 -0.0586,0.004 -0.0605,0.01 -0.0606,0.0156 -0.0605,0.0215 -0.0605,0.0293 -0.0625,0.0332 -0.0625,0.041 -0.0625,0.0469 -0.0645,0.0527 -0.0645,0.0606 -0.0664,0.0664 -0.0664,0.0762 -0.0684,0.084 -0.0703,0.0918 -0.0684,0.0996 -0.0723,0.10937 -0.0723,0.11914 -0.0742,0.12696 -0.0742,0.13672 -0.0762,0.14453 -0.0762,0.15234 -0.0762,0.15821 -0.0762,0.1621 -0.0742,0.16602 -0.0742,0.16992 -0.0723,0.16992 -0.0703,0.17383 -0.0703,0.17188 -0.0664,0.17187 -0.0625,0.16992 -0.0605,0.16797 -0.0566,0.16797 -0.0547,0.16602 -0.0508,0.16601 -0.0449,0.16602 -0.043,0.16601 -0.0391,0.16797 -0.0352,0.16797 -0.0254,0.14649 -0.0137,0.0351 -0.0293,0.0762 -0.0273,0.0762 -0.0527,0.15039 -0.0488,0.14453 -0.0469,0.14453 -0.041,0.14062 -0.041,0.13868 -0.0391,0.13671 -0.0371,0.13672 -0.0352,0.13477 -0.0351,0.13672 -0.0332,0.13867 -0.0312,0.14062 -0.0312,0.14454 -0.0312,0.14843 -0.0137,0.0762 -0.0156,0.0762 -0.0156,0.0801 -0.0137,0.0801 -0.0156,0.084 -0.0137,0.084 -0.0156,0.0859 -0.0137,0.0879 -0.0137,0.0918 -0.0156,0.0918 -0.006,0.0488 -0.002,0.0117 -0.002,0.006 v 0.002 0.002 0.002 0.004 l -0.002,0.0293 -0.0137,0.44922 -0.0605,1.80469 -0.24219,7.21289 -0.48047,14.42578 -0.48242,14.42578 -0.24023,7.21289 -0.004,0.1113 -0.002,0.057 v 0.01 0 l 0.002,0.012 0.004,0.023 0.01,0.047 0.0176,0.092 0.0215,0.094 0.0215,0.094 0.0234,0.094 0.0273,0.094 0.0273,0.094 0.0332,0.094 0.0332,0.092 0.0391,0.092 0.043,0.092 0.0449,0.092 0.0508,0.092 0.0547,0.09 0.0605,0.088 0.0645,0.088 0.0703,0.088 0.0371,0.043 0.0391,0.043 0.041,0.041 0.041,0.043 0.043,0.041 0.0449,0.043 0.0469,0.041 0.0488,0.041 0.0508,0.039 0.0508,0.041 0.0527,0.039 0.0566,0.039 0.0566,0.039 0.0586,0.039 0.0605,0.037 0.0645,0.039 0.0645,0.037 0.0332,0.016 h 0.0156 0.0176 0.0156 0.008 0.008 l 0.008,-0.01 0.01,-0.01 0.008,-0.012 0.008,-0.012 0.008,-0.014 0.006,-0.018 h 0.002 l 0.002,-0.01 0.002,-0.016 0.004,-0.031 0.0137,-0.1269 0.0312,-0.2578 0.0293,-0.2598 0.0293,-0.2617 0.0293,-0.2637 0.0293,-0.2676 0.0293,-0.2676 0.0293,-0.2695 0.0293,-0.2734 0.0293,-0.2734 0.0293,-0.2754 0.0586,-0.5528 0.0586,-0.5586 0.0586,-0.5605 0.0586,-0.56252 0.1211,-1.12695 0.0586,-0.56055 0.0625,-0.55859 0.0605,-0.55274 0.0312,-0.27539 0.0312,-0.27539 0.0312,-0.27148 0.0332,-0.27149 0.0312,-0.26758 0.0312,-0.26757 0.0332,-0.26368 0.0332,-0.26171 0.0332,-0.25977 0.0332,-0.25781 0.0332,-0.25586 0.0332,-0.25 0.0352,-0.25 0.0332,-0.24414 0.0352,-0.24219 0.0351,-0.24023 0.0371,-0.23438 0.0352,-0.23242 0.0352,-0.22656 0.0371,-0.22461 0.0371,-0.21875 0.0371,-0.21485 0.0469,-0.14258 0.0781,-0.15429 0.10938,-0.16211 0.13476,-0.16016 0.16016,-0.15234 0.18164,-0.13672 0.19726,-0.11328 0.21485,-0.084 0.22461,-0.0449 h 0.23437 l 0.24024,0.0527 0.24218,0.11133 0.4043,1.05664 0.42383,1.16601 0.42187,1.16602 0.42383,1.16601 0.42188,1.16602 0.42383,1.16601 0.42187,1.16602 0.42383,1.16601 0.42187,1.16802 0.42383,1.166 0.42188,1.166 0.42383,1.166 0.10742,0.2832 0.0195,0.035 0.0215,0.033 0.0234,0.029 0.0254,0.029 0.0273,0.025 0.0274,0.023 0.0273,0.022 0.0312,0.019 0.0293,0.016 0.0312,0.016 0.0312,0.014 0.0332,0.01 0.0332,0.01 0.0313,0.01 h 0.0332 0.0312 0.0332 0.0293 0.0312 0.0273 0.0274 0.0273 0.0234 0.0391 l 0.0527,-0.025 0.0527,-0.049 0.0508,-0.074 0.0488,-0.094 0.0469,-0.1133 0.043,-0.1269 0.041,-0.1407 0.0371,-0.1503 0.0332,-0.1582 0.0293,-0.1622 0.0234,-0.164 -0.1914,-1.8223 -0.44922,-3.81639 -0.44922,-3.81445 -0.44922,-3.81641 -0.44922,-3.81445 -0.44726,-3.81641 -0.44922,-3.81445 -0.44922,-3.81641 -0.44922,-3.81445 -0.44727,-3.81641 -0.44921,-3.81445 -0.44922,-3.81641 -0.29297,-2.58398 -0.004,-0.25 -0.002,-0.25196 -0.002,-0.25 -0.002,-0.25 -0.002,-0.25195 -0.002,-0.25 -0.002,-0.25195 -0.002,-0.25 -0.002,-0.25 -0.002,-0.25196 -0.002,-0.25 -0.01,-0.31445 -0.0352,-0.48828 -0.0371,-0.44141 -0.0371,-0.40039 -0.0371,-0.35937 -0.041,-0.32422 -0.0391,-0.28906 -0.041,-0.26172 -0.041,-0.23242 -0.043,-0.20899 -0.043,-0.1875 -0.0449,-0.17187 -0.0449,-0.15625 -0.0449,-0.14453 -0.0469,-0.13282 -0.0449,-0.12109 -0.0488,-0.11133 -0.0469,-0.10156 -0.0488,-0.0918 -0.0508,-0.084 -0.0488,-0.0742 -0.0527,-0.0664 -0.0508,-0.0586 -0.0527,-0.0527 -0.0527,-0.0449 -0.0547,-0.0391 -0.0547,-0.0312 -0.0547,-0.0273 -0.0566,-0.0195 -0.0566,-0.0137 -0.0566,-0.008 z" style="fill:url(#linearGradient8482);fill-opacity:1;stroke:none;stroke-width:0.40000001;stroke-miterlimit:4;stroke-dasharray:none"/>
      <path id="path8458" d="m 590.59008,1005.1549 0.6875,-6.28125 0.17188,-1.96875 0.60937,-4.625 0.0937,-0.64063 0.32818,-0.53125 0.42187,-0.375 0.42188,-0.1875 0.4375,-0.0469 0.29687,0.0469 0.26563,0.20313 5.09375,14.12495 0.29687,0.2657 0.34375,0.062 -0.0156,-0.2339 -7.68752,-20.67188 -0.375,-0.42187 -0.40625,-0.26563 -0.42188,0.10938 -0.17187,0.51562 -1.60938,19.90628 0.39063,0.5 0.39062,0.3593 z" style="color:#000000;display:inline;overflow:visible;visibility:visible;opacity:1;fill:url(#linearGradient8484);fill-opacity:1;fill-rule:evenodd;stroke:none;stroke-width:0.40000001;stroke-linecap:round;stroke-linejoin:round;stroke-miterlimit:4;stroke-dasharray:none;stroke-dashoffset:0;stroke-opacity:1;marker:none;enable-background:accumulate"/>
      <path style="fill:none;stroke:#000000;stroke-width:0.40000001;stroke-miterlimit:4;stroke-dasharray:none" d="m 595.14409,954.56663 -1.23406,-1.30732" id="path8460"/>
      <path style="fill:none;stroke:#000000;stroke-width:0.40000001;stroke-miterlimit:4;stroke-dasharray:none" d="m 593.91003,953.25931 -2.43028,0.008" id="path8462"/>
      <path style="fill:none;stroke:#000000;stroke-width:0.40000001;stroke-miterlimit:4;stroke-dasharray:none" d="m 591.39053,983.6242 0.17448,-24.11936" id="path8464"/>
      <path style="fill:none;stroke:#000000;stroke-width:0.40000001;stroke-miterlimit:4;stroke-dasharray:none" d="m 591.56501,959.50484 2.16051,-2.92528" id="path8466"/>
      <path style="fill:none;stroke:#000000;stroke-width:0.40000001;stroke-miterlimit:4;stroke-dasharray:none" d="m 591.56501,959.50484 -1.03222,-2.67419" id="path8468"/>
      <path style="fill:none;stroke:#000000;stroke-width:0.40000001;stroke-linecap:round;stroke-miterlimit:4;stroke-dasharray:none" d="m 593.72552,956.57956 0.18451,-3.32025" id="path8470"/>
      <path style="fill:none;stroke:#000000;stroke-width:0.40000001;stroke-miterlimit:4;stroke-dasharray:none" d="m 590.6999,1004.254 h 0.61379" id="path8472"/>
      <path style="fill:none;stroke:#000000;stroke-width:0.40000001;stroke-miterlimit:4;stroke-dasharray:none" d="m 590.62482,1004.91 h 0.68887" id="path8474"/>
      <path style="fill:none;stroke:#000000;stroke-width:0.40000001;stroke-miterlimit:4;stroke-dasharray:none" d="m 589.38151,1004.1576 0.11841,-1.5018 0.11841,-1.5018 0.11841,-1.5018 0.1184,-1.5018 0.11841,-1.5018 0.11841,-1.5018 0.11841,-1.5018 0.11841,-1.5018 0.11841,-1.5018 0.1184,-1.5018 0.11841,-1.5018 0.11841,-1.5018 0.11841,-1.5018 0.0498,-0.4765 0.033,-0.1192 0.0392,-0.1024 0.0448,-0.086 0.0498,-0.071 0.054,-0.057 0.0577,-0.043 0.0606,-0.031 0.0629,-0.019 0.0645,-0.01 h 0.0655 l 0.0657,0.01 0.0654,0.018 0.0644,0.025 0.063,0.032 0.0615,0.038 0.06,0.043 0.0584,0.047 0.0568,0.052 0.0551,0.055 0.0533,0.058 0.0514,0.06 0.0495,0.062 0.0476,0.063 0.0455,0.064 0.0435,0.064 0.17689,0.44 0.58285,1.5693 0.58284,1.5693 0.58285,1.5693 0.58285,1.5694 0.58284,1.5693 0.58285,1.5693 0.58285,1.5693 0.58284,1.5693 0.58285,1.5693 0.58284,1.5694 0.58285,1.5693 0.58285,1.5693 0.58284,1.5693" id="path8476"/>
      <path style="fill:none;fill-opacity:1;stroke:#000000;stroke-width:0.40000001;stroke-miterlimit:4;stroke-dasharray:none" d="m 593.66425,949.71316 -0.0586,0.004 -0.0605,0.01 -0.0606,0.0156 -0.0605,0.0215 -0.0605,0.0293 -0.0625,0.0332 -0.0625,0.041 -0.0625,0.0469 -0.0645,0.0527 -0.0645,0.0606 -0.0664,0.0664 -0.0664,0.0762 -0.0684,0.084 -0.0703,0.0918 -0.0684,0.0996 -0.0723,0.10937 -0.0723,0.11914 -0.0742,0.12696 -0.0742,0.13672 -0.0762,0.14453 -0.0762,0.15234 -0.0762,0.15821 -0.0762,0.1621 -0.0742,0.16602 -0.0742,0.16992 -0.0723,0.16992 -0.0703,0.17383 -0.0703,0.17188 -0.0664,0.17187 -0.0625,0.16992 -0.0605,0.16797 -0.0566,0.16797 -0.0547,0.16602 -0.0508,0.16601 -0.0449,0.16602 -0.043,0.16601 -0.0391,0.16797 -0.0352,0.16797 -0.0254,0.14649 -0.0137,0.0351 -0.0293,0.0762 -0.0273,0.0762 -0.0527,0.15039 -0.0488,0.14453 -0.0469,0.14453 -0.041,0.14062 -0.041,0.13868 -0.0391,0.13671 -0.0371,0.13672 -0.0352,0.13477 -0.0351,0.13672 -0.0332,0.13867 -0.0312,0.14062 -0.0312,0.14454 -0.0312,0.14843 -0.0137,0.0762 -0.0156,0.0762 -0.0156,0.0801 -0.0137,0.0801 -0.0156,0.084 -0.0137,0.084 -0.0156,0.0859 -0.0137,0.0879 -0.0137,0.0918 -0.0156,0.0918 -0.006,0.0488 -0.002,0.0117 -0.002,0.006 v 0.002 0.002 0.002 0.004 l -0.002,0.0293 -0.0137,0.44922 -0.0605,1.80469 -0.24219,7.21289 -0.48047,14.42578 -0.48242,14.42578 -0.24023,7.21289 -0.004,0.1113 -0.002,0.057 v 0.01 0 l 0.002,0.012 0.004,0.023 0.01,0.047 0.0176,0.092 0.0215,0.094 0.0215,0.094 0.0234,0.094 0.0273,0.094 0.0273,0.094 0.0332,0.094 0.0332,0.092 0.0391,0.092 0.043,0.092 0.0449,0.092 0.0508,0.092 0.0547,0.09 0.0605,0.088 0.0645,0.088 0.0703,0.088 0.0371,0.043 0.0391,0.043 0.041,0.041 0.041,0.043 0.043,0.041 0.0449,0.043 0.0469,0.041 0.0488,0.041 0.0508,0.039 0.0508,0.041 0.0527,0.039 0.0566,0.039 0.0566,0.039 0.0586,0.039 0.0605,0.037 0.0645,0.039 0.0645,0.037 0.0332,0.016 h 0.0156 0.0176 0.0156 0.008 0.008 l 0.008,-0.01 0.01,-0.01 0.008,-0.012 0.008,-0.012 0.008,-0.014 0.006,-0.018 h 0.002 l 0.002,-0.01 0.002,-0.016 0.004,-0.031 0.0137,-0.1269 0.0312,-0.2578 0.0293,-0.2598 0.0293,-0.2617 0.0293,-0.2637 0.0293,-0.2676 0.0293,-0.2676 0.0293,-0.2695 0.0293,-0.2734 0.0293,-0.2734 0.0293,-0.2754 0.0586,-0.5528 0.0586,-0.5586 0.0586,-0.5605 0.0586,-0.56252 0.1211,-1.12695 0.0586,-0.56055 0.0625,-0.55859 0.0605,-0.55274 0.0312,-0.27539 0.0312,-0.27539 0.0312,-0.27148 0.0332,-0.27149 0.0312,-0.26758 0.0312,-0.26757 0.0332,-0.26368 0.0332,-0.26171 0.0332,-0.25977 0.0332,-0.25781 0.0332,-0.25586 0.0332,-0.25 0.0352,-0.25 0.0332,-0.24414 0.0352,-0.24219 0.0351,-0.24023 0.0371,-0.23438 0.0352,-0.23242 0.0352,-0.22656 0.0371,-0.22461 0.0371,-0.21875 0.0371,-0.21485 0.0469,-0.14258 0.0781,-0.15429 0.10938,-0.16211 0.13476,-0.16016 0.16016,-0.15234 0.18164,-0.13672 0.19726,-0.11328 0.21485,-0.084 0.22461,-0.0449 h 0.23437 l 0.24024,0.0527 0.24218,0.11133 0.4043,1.05664 0.42383,1.16601 0.42187,1.16602 0.42383,1.16601 0.42188,1.16602 0.42383,1.16601 0.42187,1.16602 0.42383,1.16601 0.42187,1.16802 0.42383,1.166 0.42188,1.166 0.42383,1.166 0.10742,0.2832 0.0195,0.035 0.0215,0.033 0.0234,0.029 0.0254,0.029 0.0273,0.025 0.0274,0.023 0.0273,0.022 0.0312,0.019 0.0293,0.016 0.0312,0.016 0.0312,0.014 0.0332,0.01 0.0332,0.01 0.0313,0.01 h 0.0332 0.0312 0.0332 0.0293 0.0312 0.0273 0.0274 0.0273 0.0234 0.0391 l 0.0527,-0.025 0.0527,-0.049 0.0508,-0.074 0.0488,-0.094 0.0469,-0.1133 0.043,-0.1269 0.041,-0.1407 0.0371,-0.1503 0.0332,-0.1582 0.0293,-0.1622 0.0234,-0.164 -0.1914,-1.8223 -0.44922,-3.81639 -0.44922,-3.81445 -0.44922,-3.81641 -0.44922,-3.81445 -0.44726,-3.81641 -0.44922,-3.81445 -0.44922,-3.81641 -0.44922,-3.81445 -0.44727,-3.81641 -0.44921,-3.81445 -0.44922,-3.81641 -0.29297,-2.58398 -0.004,-0.25 -0.002,-0.25196 -0.002,-0.25 -0.002,-0.25 -0.002,-0.25195 -0.002,-0.25 -0.002,-0.25195 -0.002,-0.25 -0.002,-0.25 -0.002,-0.25196 -0.002,-0.25 -0.01,-0.31445 -0.0352,-0.48828 -0.0371,-0.44141 -0.0371,-0.40039 -0.0371,-0.35937 -0.041,-0.32422 -0.0391,-0.28906 -0.041,-0.26172 -0.041,-0.23242 -0.043,-0.20899 -0.043,-0.1875 -0.0449,-0.17187 -0.0449,-0.15625 -0.0449,-0.14453 -0.0469,-0.13282 -0.0449,-0.12109 -0.0488,-0.11133 -0.0469,-0.10156 -0.0488,-0.0918 -0.0508,-0.084 -0.0488,-0.0742 -0.0527,-0.0664 -0.0508,-0.0586 -0.0527,-0.0527 -0.0527,-0.0449 -0.0547,-0.0391 -0.0547,-0.0312 -0.0547,-0.0273 -0.0566,-0.0195 -0.0566,-0.0137 -0.0566,-0.008 z" id="path8478"/>
    </g>
    <g transform="translate(186.17185,-18)" id="g8572">
      <g id="g7006" style="display:inline" transform="translate(265.14562,-98.587061)">
        <g id="g7008" style="fill:url(#linearGradient7351);fill-opacity:1">
          <path transform="translate(0,652.36218)" id="path7010" d="m 224.04566,168.79829 c -0.0649,-0.99658 -0.0874,-9.84646 -0.0501,-19.6664 0.0739,-19.40408 0.0624,-19.15902 1.12442,-24.12163 1.21193,-5.6633 3.52473,-10.11398 7.43541,-14.30849 1.54737,-1.65967 2.78626,-2.48788 3.72766,-2.49196 l 0.39774,-0.002 v 31.20109 31.20108 h -6.25856 -6.25856 l -0.11804,-1.81196 z" style="fill:url(#linearGradient7347);fill-opacity:1;stroke:none"/>
          <path transform="translate(0,652.36218)" id="path7012" d="m 227.53657,177.1068 c -0.0946,-0.12154 -0.7517,-1.29489 -1.4603,-2.60746 -0.70861,-1.31257 -1.44296,-2.64502 -1.6319,-2.96101 l -0.34353,-0.57452 h 6.28999 6.28999 v 3.18198 3.18198 h -4.48616 c -3.37938,0 -4.52857,-0.0545 -4.65809,-0.22097 z" style="fill:url(#linearGradient7349);fill-opacity:1;stroke:none"/>
        </g>
        <g transform="matrix(-1,0,0,1,473.68836,0)" id="g7014" style="display:inline;fill:url(#linearGradient7357);fill-opacity:1">
          <path transform="translate(0,652.36218)" id="path7016" d="m 224.04566,168.79829 c -0.0649,-0.99658 -0.0874,-9.84646 -0.0501,-19.6664 0.0739,-19.40408 0.0624,-19.15902 1.12442,-24.12163 1.21193,-5.6633 3.52473,-10.11398 7.43541,-14.30849 1.54737,-1.65967 2.78626,-2.48788 3.72766,-2.49196 l 0.39774,-0.002 v 31.20109 31.20108 h -6.25856 -6.25856 l -0.11804,-1.81196 z" style="fill:url(#linearGradient7353);fill-opacity:1;stroke:none"/>
          <path transform="translate(0,652.36218)" id="path7018" d="m 227.53657,177.1068 c -0.0946,-0.12154 -0.7517,-1.29489 -1.4603,-2.60746 -0.70861,-1.31257 -1.44296,-2.64502 -1.6319,-2.96101 l -0.34353,-0.57452 h 6.28999 6.28999 v 3.18198 3.18198 h -4.48616 c -3.37938,0 -4.52857,-0.0545 -4.65809,-0.22097 z" style="fill:url(#linearGradient7355);fill-opacity:1;stroke:none"/>
        </g>
      </g>
      <path id="path7048" d="m 492.64184,731.21889 h 18.64629" style="fill:none;stroke:#000000;stroke-width:0.40000001;stroke-miterlimit:4;stroke-dasharray:none"/>
      <path id="path7056" d="m 489.00233,724.54349 h 25.92532" style="fill:none;stroke:#000000;stroke-width:0.40000001;stroke-miterlimit:4;stroke-dasharray:none"/>
      <path id="path7058" d="m 492.64184,731.21889 -0.38918,-0.71383 -0.38919,-0.71382 -0.38919,-0.71383 -0.38919,-0.71383 -0.38919,-0.71383 -0.38918,-0.71383 -0.38919,-0.71382 -0.38919,-0.71383 -0.38919,-0.71383 -0.13682,-2.86445 v -4.03043 -4.03044 -4.03043 -4.03044 -4.03043 -4.03044 -4.03043 -4.03044 l 0.0147,-2.99114 0.0497,-0.52971 0.0505,-0.52972 0.0518,-0.52976 0.0538,-0.52981 0.0563,-0.52987 0.0594,-0.52995 0.0631,-0.53005 0.0674,-0.53015 0.0723,-0.53028 0.0777,-0.53039 0.0835,-0.5303 0.0894,-0.52988 0.0957,-0.52916 0.10209,-0.52812 0.10876,-0.52677 0.11564,-0.5251 0.12274,-0.52313 0.13007,-0.52083 0.13763,-0.51824 0.1454,-0.51531 0.1534,-0.51209 0.16162,-0.50854 0.17007,-0.50468 0.17873,-0.50051 0.18763,-0.49603 0.19674,-0.49123 0.20608,-0.48612 0.2156,-0.48076 0.22513,-0.47545 0.23456,-0.47037 0.2439,-0.46548 0.25318,-0.46079 0.26235,-0.45631 0.27144,-0.45203 0.28046,-0.44796 0.28938,-0.44408 0.29822,-0.4404 0.30698,-0.43694 0.31564,-0.43367 0.32423,-0.43061 0.33273,-0.42774 0.34115,-0.42509 0.34948,-0.42264 0.35772,-0.42038 0.36588,-0.41833 0.37404,-0.41619 0.38341,-0.40923 0.39501,-0.39366 0.40885,-0.36932 0.42494,-0.33626 0.44328,-0.29445 0.46388,-0.2439 0.4867,-0.18461 0.51186,-0.11775 0.54052,-0.0655 0.56508,-5e-4 0.54083,0.0652 0.51213,0.1171 0.48697,0.18399 0.46413,0.24336 0.44352,0.29399 0.42514,0.33589 0.409,0.36904 0.39511,0.39346 0.38344,0.40914 0.37399,0.41617 0.36577,0.41833 0.35758,0.42038 0.34929,0.42264 0.34095,0.42509 0.33252,0.42775 0.32403,0.43061 0.31547,0.43367 0.30682,0.43693 0.29812,0.44039 0.28934,0.44405 0.28048,0.44793 0.27155,0.45198 0.26256,0.45626 0.25349,0.46072 0.24434,0.4654 0.23513,0.47027 0.22584,0.47534 0.21648,0.48062 0.20711,0.48597 0.19789,0.49107 0.18885,0.49586 0.17999,0.50035 0.17131,0.50452 0.1628,0.50839 0.15448,0.51195 0.14632,0.5152 0.13837,0.51813 0.13057,0.52077 0.12296,0.52309 0.11553,0.52511 0.10828,0.52681 0.10121,0.52821 0.0943,0.52929 0.0876,0.53008 0.0811,0.53055 0.0747,0.53071 0.0687,0.53066 0.0632,0.5306 0.0585,0.53053 0.0544,0.53048 0.0509,0.53045 0.0481,0.5304 0.0459,0.53038 0.0444,0.53036 0.0436,0.53036 0.0129,2.99133 v 4.03044 4.03043 4.03044 4.03043 4.03044 4.03043 4.03044 4.03043 l -0.13683,2.86445 -0.38919,0.71383 -0.38918,0.71383 -0.38919,0.71382 -0.38919,0.71383 -0.38919,0.71383 -0.38919,0.71383 -0.38918,0.71383 -0.38919,0.71382 -0.38919,0.71383" style="fill:none;stroke:#000000;stroke-width:0.40000001;stroke-miterlimit:4;stroke-dasharray:none"/>
      <path id="path7124" d="M 501.96499,731.21889 V 661.80951" style="fill:none;stroke:#000000;stroke-width:0.40000001;stroke-miterlimit:4;stroke-dasharray:none"/>
    </g>
    <g id="g5116">
      <g id="g4962">
        <path id="path4347" d="m 695.49278,789.99211 0.81804,0.38248 0.22267,0.89604 -0.5769,0.74116 -1.07285,0.0553 -0.6096,-0.67655 0.1535,-0.83741 0.43543,-0.50624 z" style="color:#000000;display:inline;overflow:visible;visibility:visible;opacity:1;fill:#1a1a1a;fill-opacity:1;fill-rule:evenodd;stroke:none;stroke-width:0.09577042;stroke-linecap:round;stroke-linejoin:round;stroke-miterlimit:4;stroke-dasharray:none;stroke-dashoffset:0;stroke-opacity:1;marker:none;enable-background:accumulate"/>
        <path id="path4343" d="m 693.7307,792.1556 -0.5263,-0.0664 -1.29552,1.59296 -0.0202,0.92923 -0.16193,0.77435 0.20242,0.84073 -0.18218,0.92922 0.12145,0.77435 -0.14169,0.68585 0.20242,0.68586 -0.18218,0.81861 0.081,0.5531 -0.0607,0.8186 0.64775,0.19913 -0.0203,-7.92053 z" style="color:#000000;display:inline;overflow:visible;visibility:visible;opacity:1;fill:#474747;fill-opacity:1;fill-rule:evenodd;stroke:none;stroke-width:0.09577042;stroke-linecap:round;stroke-linejoin:round;stroke-miterlimit:4;stroke-dasharray:none;stroke-dashoffset:0;stroke-opacity:1;marker:none;enable-background:accumulate"/>
        <path id="path4345" d="m 692.39553,801.74059 5.86855,-0.0312 V 793.762 l -1.71763,-2.59695 -0.69112,0.9694 -0.90624,0.0582 -0.36982,-0.35366 -0.552,-0.26718 -0.28627,0.65706 -1.34547,1.53314 z" style="color:#000000;display:inline;overflow:visible;visibility:visible;opacity:1;fill:#999999;fill-opacity:1;fill-rule:evenodd;stroke:none;stroke-width:0.09577042;stroke-linecap:round;stroke-linejoin:round;stroke-miterlimit:4;stroke-dasharray:none;stroke-dashoffset:0;stroke-opacity:1;marker:none;enable-background:accumulate"/>
        <path id="path4275" d="m 692.43519,793.78174 v 7.86521 h 5.78932 l -5.7882,-7.86588 1.30189,-1.6263 0.38211,-0.99754" style="color:#000000;display:inline;overflow:visible;visibility:visible;opacity:1;fill:none;fill-opacity:1;fill-rule:evenodd;stroke:#000000;stroke-width:0.38308167;stroke-linecap:round;stroke-linejoin:round;stroke-miterlimit:4;stroke-dasharray:none;stroke-dashoffset:0;stroke-opacity:1;marker:none;enable-background:accumulate"/>
        <path id="path4277" d="m 692.44025,795.60148 4.52923,6.02335" style="color:#000000;display:inline;overflow:visible;visibility:visible;opacity:1;fill:none;fill-opacity:1;fill-rule:evenodd;stroke:#000000;stroke-width:0.38308167;stroke-linecap:round;stroke-linejoin:round;stroke-miterlimit:4;stroke-dasharray:none;stroke-dashoffset:0;stroke-opacity:1;marker:none;enable-background:accumulate"/>
        <path id="path4279" d="m 695.77518,801.62483 -3.34,-4.40274" style="color:#000000;display:inline;overflow:visible;visibility:visible;opacity:1;fill:none;fill-opacity:1;fill-rule:evenodd;stroke:#000000;stroke-width:0.38308167;stroke-linecap:round;stroke-linejoin:round;stroke-miterlimit:4;stroke-dasharray:none;stroke-dashoffset:0;stroke-opacity:1;marker:none;enable-background:accumulate"/>
        <path id="path4281" d="m 694.68209,801.60271 -2.24691,-2.74343" style="color:#000000;display:inline;overflow:visible;visibility:visible;opacity:1;fill:none;fill-opacity:1;fill-rule:evenodd;stroke:#000000;stroke-width:0.38308167;stroke-linecap:round;stroke-linejoin:round;stroke-miterlimit:4;stroke-dasharray:none;stroke-dashoffset:0;stroke-opacity:1;marker:none;enable-background:accumulate"/>
        <path id="path4283" d="m 693.48779,801.64695 -1.05261,-1.32746" style="color:#000000;display:inline;overflow:visible;visibility:visible;opacity:1;fill:none;fill-opacity:1;fill-rule:evenodd;stroke:#000000;stroke-width:0.38308167;stroke-linecap:round;stroke-linejoin:round;stroke-miterlimit:4;stroke-dasharray:none;stroke-dashoffset:0;stroke-opacity:1;marker:none;enable-background:accumulate"/>
        <path id="path4285" d="m 698.22449,801.63036 v -7.8984 l -1.14128,-1.72603" style="color:#000000;display:inline;overflow:visible;visibility:visible;opacity:1;fill:none;fill-opacity:1;fill-rule:evenodd;stroke:#000000;stroke-width:0.38308167;stroke-linecap:round;stroke-linejoin:round;stroke-miterlimit:4;stroke-dasharray:none;stroke-dashoffset:0;stroke-opacity:1;marker:none;enable-background:accumulate"/>
        <path id="path4287" d="m 692.45278,801.64672 5.75404,-7.88472" style="color:#000000;display:inline;overflow:visible;visibility:visible;opacity:1;fill:none;fill-opacity:1;fill-rule:evenodd;stroke:#000000;stroke-width:0.38308167;stroke-linecap:round;stroke-linejoin:round;stroke-miterlimit:4;stroke-dasharray:none;stroke-dashoffset:0;stroke-opacity:1;marker:none;enable-background:accumulate"/>
        <path style="color:#000000;display:inline;overflow:visible;visibility:visible;opacity:1;fill:none;fill-opacity:1;fill-rule:evenodd;stroke:#000000;stroke-width:0.38308167;stroke-linecap:round;stroke-linejoin:round;stroke-miterlimit:4;stroke-dasharray:none;stroke-dashoffset:0;stroke-opacity:1;marker:none;enable-background:accumulate" d="m 698.22894,795.60148 -4.52923,6.02335" id="path4289"/>
        <path style="color:#000000;display:inline;overflow:visible;visibility:visible;opacity:1;fill:none;fill-opacity:1;fill-rule:evenodd;stroke:#000000;stroke-width:0.38308167;stroke-linecap:round;stroke-linejoin:round;stroke-miterlimit:4;stroke-dasharray:none;stroke-dashoffset:0;stroke-opacity:1;marker:none;enable-background:accumulate" d="m 694.85428,801.62483 3.34,-4.40274" id="path4291"/>
        <path style="color:#000000;display:inline;overflow:visible;visibility:visible;opacity:1;fill:none;fill-opacity:1;fill-rule:evenodd;stroke:#000000;stroke-width:0.38308167;stroke-linecap:round;stroke-linejoin:round;stroke-miterlimit:4;stroke-dasharray:none;stroke-dashoffset:0;stroke-opacity:1;marker:none;enable-background:accumulate" d="m 695.9849,801.60271 2.23259,-2.72778" id="path4293"/>
        <path style="color:#000000;display:inline;overflow:visible;visibility:visible;opacity:1;fill:none;fill-opacity:1;fill-rule:evenodd;stroke:#000000;stroke-width:0.38308167;stroke-linecap:round;stroke-linejoin:round;stroke-miterlimit:4;stroke-dasharray:none;stroke-dashoffset:0;stroke-opacity:1;marker:none;enable-background:accumulate" d="m 694.68209,801.60271 -2.24691,-2.74343" id="path4295"/>
        <path style="color:#000000;display:inline;overflow:visible;visibility:visible;opacity:1;fill:none;fill-opacity:1;fill-rule:evenodd;stroke:#000000;stroke-width:0.38308167;stroke-linecap:round;stroke-linejoin:round;stroke-miterlimit:4;stroke-dasharray:none;stroke-dashoffset:0;stroke-opacity:1;marker:none;enable-background:accumulate" d="m 697.15854,801.64695 1.05261,-1.32746" id="path4297"/>
        <path id="path4299" d="m 692.45278,800.14487 5.21013,-7.25894" style="color:#000000;display:inline;overflow:visible;visibility:visible;opacity:1;fill:none;fill-opacity:1;fill-rule:evenodd;stroke:#000000;stroke-width:0.38308167;stroke-linecap:round;stroke-linejoin:round;stroke-miterlimit:4;stroke-dasharray:none;stroke-dashoffset:0;stroke-opacity:1;marker:none;enable-background:accumulate"/>
        <path id="path4301" d="m 692.42415,798.64302 4.11549,-5.8653" style="color:#000000;display:inline;overflow:visible;visibility:visible;opacity:1;fill:none;fill-opacity:1;fill-rule:evenodd;stroke:#000000;stroke-width:0.38308167;stroke-linecap:round;stroke-linejoin:round;stroke-miterlimit:4;stroke-dasharray:none;stroke-dashoffset:0;stroke-opacity:1;marker:none;enable-background:accumulate"/>
        <path style="color:#000000;display:inline;overflow:visible;visibility:visible;opacity:1;fill:none;fill-opacity:1;fill-rule:evenodd;stroke:#000000;stroke-width:0.38308167;stroke-linecap:round;stroke-linejoin:round;stroke-miterlimit:4;stroke-dasharray:none;stroke-dashoffset:0;stroke-opacity:1;marker:none;enable-background:accumulate" d="m 698.22122,800.10576 -5.1314,-7.13379" id="path4303"/>
        <path style="color:#000000;display:inline;overflow:visible;visibility:visible;opacity:1;fill:none;fill-opacity:1;fill-rule:evenodd;stroke:#000000;stroke-width:0.38308167;stroke-linecap:round;stroke-linejoin:round;stroke-miterlimit:4;stroke-dasharray:none;stroke-dashoffset:0;stroke-opacity:1;marker:none;enable-background:accumulate" d="m 698.22102,798.54915 -3.98211,-5.67488" id="path4305"/>
        <path id="path4307" d="m 692.41495,796.97871 2.93739,-4.18909 1.24421,-1.51505" style="color:#000000;display:inline;overflow:visible;visibility:visible;opacity:1;fill:none;fill-opacity:1;fill-rule:evenodd;stroke:#000000;stroke-width:0.38308167;stroke-linecap:round;stroke-linejoin:round;stroke-miterlimit:4;stroke-dasharray:none;stroke-dashoffset:0;stroke-opacity:1;marker:none;enable-background:accumulate"/>
        <path style="color:#000000;display:inline;overflow:visible;visibility:visible;opacity:1;fill:none;fill-opacity:1;fill-rule:evenodd;stroke:#000000;stroke-width:0.38308167;stroke-linecap:round;stroke-linejoin:round;stroke-miterlimit:4;stroke-dasharray:none;stroke-dashoffset:0;stroke-opacity:1;marker:none;enable-background:accumulate" d="m 698.24511,796.97871 -2.88728,-4.22038 -1.25183,-1.61674" id="path4309"/>
        <path id="path4311" d="m 692.43518,795.38576 1.80157,-2.50005" style="color:#000000;display:inline;overflow:visible;visibility:visible;opacity:1;fill:none;fill-opacity:1;fill-rule:evenodd;stroke:#000000;stroke-width:0.38308167;stroke-linecap:round;stroke-linejoin:round;stroke-miterlimit:4;stroke-dasharray:none;stroke-dashoffset:0;stroke-opacity:1;marker:none;enable-background:accumulate"/>
        <path id="path4313" d="m 698.20427,795.36363 -1.65987,-2.58302" style="color:#000000;display:inline;overflow:visible;visibility:visible;opacity:1;fill:none;fill-opacity:1;fill-rule:evenodd;stroke:#000000;stroke-width:0.38308167;stroke-linecap:round;stroke-linejoin:round;stroke-miterlimit:4;stroke-dasharray:none;stroke-dashoffset:0;stroke-opacity:1;marker:none;enable-background:accumulate"/>
        <path style="color:#000000;display:inline;overflow:visible;visibility:visible;opacity:1;fill:#474747;fill-opacity:1;fill-rule:evenodd;stroke:#000000;stroke-width:0.38308167;stroke-linecap:round;stroke-linejoin:round;stroke-miterlimit:4;stroke-dasharray:none;stroke-dashoffset:0;stroke-opacity:1;marker:none;enable-background:accumulate" d="m 697.11624,792.06157 -0.23785,-0.0166 -0.32893,0.73567 0.0883,-0.77665 -0.025,-0.74575 z" id="path4317"/>
        <path id="path4319" d="m 693.73327,792.15007 0.19231,0.0221 0.31375,0.71354 -0.10627,-0.87945 -0.0102,-0.84072 z" style="color:#000000;display:inline;overflow:visible;visibility:visible;opacity:1;fill:#474747;fill-opacity:1;fill-rule:evenodd;stroke:#000000;stroke-width:0.38308167;stroke-linecap:round;stroke-linejoin:round;stroke-miterlimit:4;stroke-dasharray:none;stroke-dashoffset:0;stroke-opacity:1;marker:none;enable-background:accumulate"/>
        <path id="path4321" d="m 695.31907,791.23154 v 0.71182 l -0.12525,0.0117 -0.24332,0.23471 0.42224,0.56319 0.52245,-0.50843 -0.22544,-0.26987 -0.12525,-0.0195 -0.004,-0.72752 z" style="color:#000000;display:inline;overflow:visible;visibility:visible;opacity:1;fill:#474747;fill-opacity:1;fill-rule:evenodd;stroke:#000000;stroke-width:0.38308167;stroke-linecap:round;stroke-linejoin:round;stroke-miterlimit:4;stroke-dasharray:none;stroke-dashoffset:0;stroke-opacity:1;marker:none;enable-background:accumulate"/>
        <path id="path4323" d="m 694.92902,792.22886 -0.74431,0.0782" style="color:#000000;display:inline;overflow:visible;visibility:visible;opacity:1;fill:none;fill-opacity:1;fill-rule:evenodd;stroke:#000000;stroke-width:0.38308167;stroke-linecap:round;stroke-linejoin:round;stroke-miterlimit:4;stroke-dasharray:none;stroke-dashoffset:0;stroke-opacity:1;marker:none;enable-background:accumulate"/>
        <path id="path4325" d="m 695.9095,792.22886 0.70136,0.0704" style="color:#000000;display:inline;overflow:visible;visibility:visible;opacity:1;fill:none;fill-opacity:1;fill-rule:evenodd;stroke:#000000;stroke-width:0.38308167;stroke-linecap:round;stroke-linejoin:round;stroke-miterlimit:4;stroke-dasharray:none;stroke-dashoffset:0;stroke-opacity:1;marker:none;enable-background:accumulate"/>
        <path id="path4327" d="m 693.77118,792.12242 -0.56679,-0.0443 c 0,0 -0.106,0.3128 -0.23278,0.4425 -0.12677,0.1297 -0.51617,0.27655 -0.51617,0.27655 0,0 0.006,0.27229 -0.0911,0.43143 -0.0974,0.15913 -0.52631,0.4093 -0.52631,0.4093 0,0 0.13429,0.53777 0.11133,0.8186 -0.023,0.28082 -0.25303,0.81859 -0.25303,0.81859 0,0 0.24384,0.56374 0.24292,0.85179 -9.2e-4,0.28806 -0.23279,0.79649 -0.23279,0.79649 0,0 0.1915,0.61773 0.1923,0.9071 7.9e-4,0.28936 -0.16194,0.7854 -0.16194,0.7854 0,0 0.21297,0.5405 0.20243,0.80755 -0.0105,0.26705 -0.24292,0.71904 -0.24292,0.71904 0,0 0.19695,0.47765 0.19231,0.70797 -0.005,0.23032 -0.19231,0.60843 -0.19231,0.60843 l 0.71861,0.21018" style="color:#000000;display:inline;overflow:visible;visibility:visible;opacity:1;fill:none;fill-opacity:1;fill-rule:evenodd;stroke:#000000;stroke-width:0.38308167;stroke-linecap:round;stroke-linejoin:round;stroke-miterlimit:4;stroke-dasharray:none;stroke-dashoffset:0;stroke-opacity:1;marker:none;enable-background:accumulate"/>
        <path id="path4329" d="m 691.84816,793.63794 0.53642,0.12168" style="color:#000000;display:inline;overflow:visible;visibility:visible;opacity:1;fill:none;fill-opacity:1;fill-rule:evenodd;stroke:#000000;stroke-width:0.38308167;stroke-linecap:round;stroke-linejoin:round;stroke-miterlimit:4;stroke-dasharray:none;stroke-dashoffset:0;stroke-opacity:1;marker:none;enable-background:accumulate"/>
        <path id="path4331" d="m 693.08257,793.01107 -0.0715,1.54879" style="color:#000000;display:inline;overflow:visible;visibility:visible;opacity:1;fill:none;fill-opacity:1;fill-rule:evenodd;stroke:#000000;stroke-width:0.38308167;stroke-linecap:round;stroke-linejoin:round;stroke-miterlimit:4;stroke-dasharray:none;stroke-dashoffset:0;stroke-opacity:1;marker:none;enable-background:accumulate"/>
        <path id="path4333" d="m 694.22766,792.9485 -0.0716,1.45492" style="color:#000000;display:inline;overflow:visible;visibility:visible;opacity:1;fill:none;fill-opacity:1;fill-rule:evenodd;stroke:#000000;stroke-width:0.38308167;stroke-linecap:round;stroke-linejoin:round;stroke-miterlimit:4;stroke-dasharray:none;stroke-dashoffset:0;stroke-opacity:1;marker:none;enable-background:accumulate"/>
        <path id="path4335" d="m 696.53213,792.85463 -0.0143,1.54879" style="color:#000000;display:inline;overflow:visible;visibility:visible;opacity:1;fill:none;fill-opacity:1;fill-rule:evenodd;stroke:#000000;stroke-width:0.38308167;stroke-linecap:round;stroke-linejoin:round;stroke-miterlimit:4;stroke-dasharray:none;stroke-dashoffset:0;stroke-opacity:1;marker:none;enable-background:accumulate"/>
        <path id="path4337" d="m 697.66291,792.93286 v 1.56443" style="color:#000000;display:inline;overflow:visible;visibility:visible;opacity:1;fill:none;fill-opacity:1;fill-rule:evenodd;stroke:#000000;stroke-width:0.38308167;stroke-linecap:round;stroke-linejoin:round;stroke-miterlimit:4;stroke-dasharray:none;stroke-dashoffset:0;stroke-opacity:1;marker:none;enable-background:accumulate"/>
        <path id="path4923" d="m 693.84008,791.21739 0.48438,-0.0156 0.0781,-0.56253 0.32815,-0.46875 0.59375,-0.17187 0.42188,-0.0625 -0.48438,-0.35938 h -0.73437 l -0.5,0.40625 -0.1875,0.67188 z" style="color:#000000;display:inline;overflow:visible;visibility:visible;opacity:1;fill:#4d4d4d;fill-opacity:1;fill-rule:evenodd;stroke:none;stroke-width:0.40000001;stroke-linecap:round;stroke-linejoin:round;stroke-miterlimit:4;stroke-dasharray:none;stroke-dashoffset:0;stroke-opacity:1;marker:none;enable-background:accumulate"/>
        <path id="path4341" d="m 695.95934,790.05354 c 0,0 -0.49066,-0.37351 -0.64973,-0.42011 -0.19542,-0.0572 -0.40544,-0.0934 -0.60727,-0.0664 -0.17968,0.024 -0.36796,0.0817 -0.50607,0.19912 -0.13075,0.11115 -0.20345,0.2816 -0.26315,0.44249 -0.0677,0.18253 -0.0807,0.38162 -0.1012,0.57523 -0.0194,0.18347 -0.0202,0.55311 -0.0202,0.55311 l 0.46557,0.42037" style="color:#000000;display:inline;overflow:visible;visibility:visible;opacity:1;fill:none;fill-opacity:1;fill-rule:evenodd;stroke:#000000;stroke-width:0.38308167;stroke-linecap:round;stroke-linejoin:round;stroke-miterlimit:4;stroke-dasharray:none;stroke-dashoffset:0;stroke-opacity:1;marker:none;enable-background:accumulate"/>
        <path id="path4339" d="m 694.31773,791.13788 c 0,0 0.0115,-0.35179 0.081,-0.50886 0.0917,-0.20735 0.22924,-0.41674 0.42508,-0.53099 0.15941,-0.093 0.36214,-0.0811 0.54655,-0.0885 0.18263,-0.007 0.37518,-0.0193 0.54654,0.0443 0.16438,0.061 0.32099,0.16868 0.4251,0.30975 0.0741,0.10037 0.092,0.23276 0.12145,0.35399 0.0439,0.18109 0.081,0.55311 0.081,0.55311" style="color:#000000;display:inline;overflow:visible;visibility:visible;opacity:1;fill:none;fill-opacity:1;fill-rule:evenodd;stroke:#000000;stroke-width:0.38308167;stroke-linecap:round;stroke-linejoin:round;stroke-miterlimit:4;stroke-dasharray:none;stroke-dashoffset:0;stroke-opacity:1;marker:none;enable-background:accumulate"/>
      </g>
      <g id="g5038" transform="matrix(-1,0,0,1,1376.2536,0)">
        <path style="color:#000000;display:inline;overflow:visible;visibility:visible;opacity:1;fill:#1a1a1a;fill-opacity:1;fill-rule:evenodd;stroke:none;stroke-width:0.09577042;stroke-linecap:round;stroke-linejoin:round;stroke-miterlimit:4;stroke-dasharray:none;stroke-dashoffset:0;stroke-opacity:1;marker:none;enable-background:accumulate" d="m 695.49278,789.99211 0.81804,0.38248 0.22267,0.89604 -0.5769,0.74116 -1.07285,0.0553 -0.6096,-0.67655 0.1535,-0.83741 0.43543,-0.50624 z" id="path4964"/>
        <path style="color:#000000;display:inline;overflow:visible;visibility:visible;opacity:1;fill:#474747;fill-opacity:1;fill-rule:evenodd;stroke:none;stroke-width:0.09577042;stroke-linecap:round;stroke-linejoin:round;stroke-miterlimit:4;stroke-dasharray:none;stroke-dashoffset:0;stroke-opacity:1;marker:none;enable-background:accumulate" d="m 693.7307,792.1556 -0.5263,-0.0664 -1.29552,1.59296 -0.0202,0.92923 -0.16193,0.77435 0.20242,0.84073 -0.18218,0.92922 0.12145,0.77435 -0.14169,0.68585 0.20242,0.68586 -0.18218,0.81861 0.081,0.5531 -0.0607,0.8186 0.64775,0.19913 -0.0203,-7.92053 z" id="path4966"/>
        <path style="color:#000000;display:inline;overflow:visible;visibility:visible;opacity:1;fill:#999999;fill-opacity:1;fill-rule:evenodd;stroke:none;stroke-width:0.09577042;stroke-linecap:round;stroke-linejoin:round;stroke-miterlimit:4;stroke-dasharray:none;stroke-dashoffset:0;stroke-opacity:1;marker:none;enable-background:accumulate" d="m 692.39553,801.74059 5.86855,-0.0312 V 793.762 l -1.71763,-2.59695 -0.69112,0.9694 -0.90624,0.0582 -0.36982,-0.35366 -0.552,-0.26718 -0.28627,0.65706 -1.34547,1.53314 z" id="path4968"/>
        <path style="color:#000000;display:inline;overflow:visible;visibility:visible;opacity:1;fill:none;fill-opacity:1;fill-rule:evenodd;stroke:#000000;stroke-width:0.38308167;stroke-linecap:round;stroke-linejoin:round;stroke-miterlimit:4;stroke-dasharray:none;stroke-dashoffset:0;stroke-opacity:1;marker:none;enable-background:accumulate" d="m 692.43519,793.78174 v 7.86521 h 5.78932 l -5.7882,-7.86588 1.30189,-1.6263 0.38211,-0.99754" id="path4970"/>
        <path style="color:#000000;display:inline;overflow:visible;visibility:visible;opacity:1;fill:none;fill-opacity:1;fill-rule:evenodd;stroke:#000000;stroke-width:0.38308167;stroke-linecap:round;stroke-linejoin:round;stroke-miterlimit:4;stroke-dasharray:none;stroke-dashoffset:0;stroke-opacity:1;marker:none;enable-background:accumulate" d="m 692.44025,795.60148 4.52923,6.02335" id="path4972"/>
        <path style="color:#000000;display:inline;overflow:visible;visibility:visible;opacity:1;fill:none;fill-opacity:1;fill-rule:evenodd;stroke:#000000;stroke-width:0.38308167;stroke-linecap:round;stroke-linejoin:round;stroke-miterlimit:4;stroke-dasharray:none;stroke-dashoffset:0;stroke-opacity:1;marker:none;enable-background:accumulate" d="m 695.77518,801.62483 -3.34,-4.40274" id="path4974"/>
        <path style="color:#000000;display:inline;overflow:visible;visibility:visible;opacity:1;fill:none;fill-opacity:1;fill-rule:evenodd;stroke:#000000;stroke-width:0.38308167;stroke-linecap:round;stroke-linejoin:round;stroke-miterlimit:4;stroke-dasharray:none;stroke-dashoffset:0;stroke-opacity:1;marker:none;enable-background:accumulate" d="m 694.68209,801.60271 -2.24691,-2.74343" id="path4976"/>
        <path style="color:#000000;display:inline;overflow:visible;visibility:visible;opacity:1;fill:none;fill-opacity:1;fill-rule:evenodd;stroke:#000000;stroke-width:0.38308167;stroke-linecap:round;stroke-linejoin:round;stroke-miterlimit:4;stroke-dasharray:none;stroke-dashoffset:0;stroke-opacity:1;marker:none;enable-background:accumulate" d="m 693.48779,801.64695 -1.05261,-1.32746" id="path4978"/>
        <path style="color:#000000;display:inline;overflow:visible;visibility:visible;opacity:1;fill:none;fill-opacity:1;fill-rule:evenodd;stroke:#000000;stroke-width:0.38308167;stroke-linecap:round;stroke-linejoin:round;stroke-miterlimit:4;stroke-dasharray:none;stroke-dashoffset:0;stroke-opacity:1;marker:none;enable-background:accumulate" d="m 698.22449,801.63036 v -7.8984 l -1.14128,-1.72603" id="path4980"/>
        <path style="color:#000000;display:inline;overflow:visible;visibility:visible;opacity:1;fill:none;fill-opacity:1;fill-rule:evenodd;stroke:#000000;stroke-width:0.38308167;stroke-linecap:round;stroke-linejoin:round;stroke-miterlimit:4;stroke-dasharray:none;stroke-dashoffset:0;stroke-opacity:1;marker:none;enable-background:accumulate" d="m 692.45278,801.64672 5.75404,-7.88472" id="path4982"/>
        <path id="path4984" d="m 698.22894,795.60148 -4.52923,6.02335" style="color:#000000;display:inline;overflow:visible;visibility:visible;opacity:1;fill:none;fill-opacity:1;fill-rule:evenodd;stroke:#000000;stroke-width:0.38308167;stroke-linecap:round;stroke-linejoin:round;stroke-miterlimit:4;stroke-dasharray:none;stroke-dashoffset:0;stroke-opacity:1;marker:none;enable-background:accumulate"/>
        <path id="path4986" d="m 694.85428,801.62483 3.34,-4.40274" style="color:#000000;display:inline;overflow:visible;visibility:visible;opacity:1;fill:none;fill-opacity:1;fill-rule:evenodd;stroke:#000000;stroke-width:0.38308167;stroke-linecap:round;stroke-linejoin:round;stroke-miterlimit:4;stroke-dasharray:none;stroke-dashoffset:0;stroke-opacity:1;marker:none;enable-background:accumulate"/>
        <path id="path4988" d="m 695.9849,801.60271 2.23259,-2.72778" style="color:#000000;display:inline;overflow:visible;visibility:visible;opacity:1;fill:none;fill-opacity:1;fill-rule:evenodd;stroke:#000000;stroke-width:0.38308167;stroke-linecap:round;stroke-linejoin:round;stroke-miterlimit:4;stroke-dasharray:none;stroke-dashoffset:0;stroke-opacity:1;marker:none;enable-background:accumulate"/>
        <path id="path4990" d="m 694.68209,801.60271 -2.24691,-2.74343" style="color:#000000;display:inline;overflow:visible;visibility:visible;opacity:1;fill:none;fill-opacity:1;fill-rule:evenodd;stroke:#000000;stroke-width:0.38308167;stroke-linecap:round;stroke-linejoin:round;stroke-miterlimit:4;stroke-dasharray:none;stroke-dashoffset:0;stroke-opacity:1;marker:none;enable-background:accumulate"/>
        <path id="path4992" d="m 697.15854,801.64695 1.05261,-1.32746" style="color:#000000;display:inline;overflow:visible;visibility:visible;opacity:1;fill:none;fill-opacity:1;fill-rule:evenodd;stroke:#000000;stroke-width:0.38308167;stroke-linecap:round;stroke-linejoin:round;stroke-miterlimit:4;stroke-dasharray:none;stroke-dashoffset:0;stroke-opacity:1;marker:none;enable-background:accumulate"/>
        <path style="color:#000000;display:inline;overflow:visible;visibility:visible;opacity:1;fill:none;fill-opacity:1;fill-rule:evenodd;stroke:#000000;stroke-width:0.38308167;stroke-linecap:round;stroke-linejoin:round;stroke-miterlimit:4;stroke-dasharray:none;stroke-dashoffset:0;stroke-opacity:1;marker:none;enable-background:accumulate" d="m 692.45278,800.14487 5.21013,-7.25894" id="path4994"/>
        <path style="color:#000000;display:inline;overflow:visible;visibility:visible;opacity:1;fill:none;fill-opacity:1;fill-rule:evenodd;stroke:#000000;stroke-width:0.38308167;stroke-linecap:round;stroke-linejoin:round;stroke-miterlimit:4;stroke-dasharray:none;stroke-dashoffset:0;stroke-opacity:1;marker:none;enable-background:accumulate" d="m 692.42415,798.64302 4.11549,-5.8653" id="path4996"/>
        <path id="path4998" d="m 698.22122,800.10576 -5.1314,-7.13379" style="color:#000000;display:inline;overflow:visible;visibility:visible;opacity:1;fill:none;fill-opacity:1;fill-rule:evenodd;stroke:#000000;stroke-width:0.38308167;stroke-linecap:round;stroke-linejoin:round;stroke-miterlimit:4;stroke-dasharray:none;stroke-dashoffset:0;stroke-opacity:1;marker:none;enable-background:accumulate"/>
        <path id="path5000" d="m 698.22102,798.54915 -3.98211,-5.67488" style="color:#000000;display:inline;overflow:visible;visibility:visible;opacity:1;fill:none;fill-opacity:1;fill-rule:evenodd;stroke:#000000;stroke-width:0.38308167;stroke-linecap:round;stroke-linejoin:round;stroke-miterlimit:4;stroke-dasharray:none;stroke-dashoffset:0;stroke-opacity:1;marker:none;enable-background:accumulate"/>
        <path style="color:#000000;display:inline;overflow:visible;visibility:visible;opacity:1;fill:none;fill-opacity:1;fill-rule:evenodd;stroke:#000000;stroke-width:0.38308167;stroke-linecap:round;stroke-linejoin:round;stroke-miterlimit:4;stroke-dasharray:none;stroke-dashoffset:0;stroke-opacity:1;marker:none;enable-background:accumulate" d="m 692.41495,796.97871 2.93739,-4.18909 1.24421,-1.51505" id="path5002"/>
        <path id="path5004" d="m 698.24511,796.97871 -2.88728,-4.22038 -1.25183,-1.61674" style="color:#000000;display:inline;overflow:visible;visibility:visible;opacity:1;fill:none;fill-opacity:1;fill-rule:evenodd;stroke:#000000;stroke-width:0.38308167;stroke-linecap:round;stroke-linejoin:round;stroke-miterlimit:4;stroke-dasharray:none;stroke-dashoffset:0;stroke-opacity:1;marker:none;enable-background:accumulate"/>
        <path style="color:#000000;display:inline;overflow:visible;visibility:visible;opacity:1;fill:none;fill-opacity:1;fill-rule:evenodd;stroke:#000000;stroke-width:0.38308167;stroke-linecap:round;stroke-linejoin:round;stroke-miterlimit:4;stroke-dasharray:none;stroke-dashoffset:0;stroke-opacity:1;marker:none;enable-background:accumulate" d="m 692.43518,795.38576 1.80157,-2.50005" id="path5006"/>
        <path style="color:#000000;display:inline;overflow:visible;visibility:visible;opacity:1;fill:none;fill-opacity:1;fill-rule:evenodd;stroke:#000000;stroke-width:0.38308167;stroke-linecap:round;stroke-linejoin:round;stroke-miterlimit:4;stroke-dasharray:none;stroke-dashoffset:0;stroke-opacity:1;marker:none;enable-background:accumulate" d="m 698.20427,795.36363 -1.65987,-2.58302" id="path5008"/>
        <path id="path5010" d="m 697.11624,792.06157 -0.23785,-0.0166 -0.32893,0.73567 0.0883,-0.77665 -0.025,-0.74575 z" style="color:#000000;display:inline;overflow:visible;visibility:visible;opacity:1;fill:#474747;fill-opacity:1;fill-rule:evenodd;stroke:#000000;stroke-width:0.38308167;stroke-linecap:round;stroke-linejoin:round;stroke-miterlimit:4;stroke-dasharray:none;stroke-dashoffset:0;stroke-opacity:1;marker:none;enable-background:accumulate"/>
        <path style="color:#000000;display:inline;overflow:visible;visibility:visible;opacity:1;fill:#474747;fill-opacity:1;fill-rule:evenodd;stroke:#000000;stroke-width:0.38308167;stroke-linecap:round;stroke-linejoin:round;stroke-miterlimit:4;stroke-dasharray:none;stroke-dashoffset:0;stroke-opacity:1;marker:none;enable-background:accumulate" d="m 693.73327,792.15007 0.19231,0.0221 0.31375,0.71354 -0.10627,-0.87945 -0.0102,-0.84072 z" id="path5012"/>
        <path style="color:#000000;display:inline;overflow:visible;visibility:visible;opacity:1;fill:#474747;fill-opacity:1;fill-rule:evenodd;stroke:#000000;stroke-width:0.38308167;stroke-linecap:round;stroke-linejoin:round;stroke-miterlimit:4;stroke-dasharray:none;stroke-dashoffset:0;stroke-opacity:1;marker:none;enable-background:accumulate" d="m 695.31907,791.23154 v 0.71182 l -0.12525,0.0117 -0.24332,0.23471 0.42224,0.56319 0.52245,-0.50843 -0.22544,-0.26987 -0.12525,-0.0195 -0.004,-0.72752 z" id="path5014"/>
        <path style="color:#000000;display:inline;overflow:visible;visibility:visible;opacity:1;fill:none;fill-opacity:1;fill-rule:evenodd;stroke:#000000;stroke-width:0.38308167;stroke-linecap:round;stroke-linejoin:round;stroke-miterlimit:4;stroke-dasharray:none;stroke-dashoffset:0;stroke-opacity:1;marker:none;enable-background:accumulate" d="m 694.92902,792.22886 -0.74431,0.0782" id="path5016"/>
        <path style="color:#000000;display:inline;overflow:visible;visibility:visible;opacity:1;fill:none;fill-opacity:1;fill-rule:evenodd;stroke:#000000;stroke-width:0.38308167;stroke-linecap:round;stroke-linejoin:round;stroke-miterlimit:4;stroke-dasharray:none;stroke-dashoffset:0;stroke-opacity:1;marker:none;enable-background:accumulate" d="m 695.9095,792.22886 0.70136,0.0704" id="path5018"/>
        <path style="color:#000000;display:inline;overflow:visible;visibility:visible;opacity:1;fill:none;fill-opacity:1;fill-rule:evenodd;stroke:#000000;stroke-width:0.38308167;stroke-linecap:round;stroke-linejoin:round;stroke-miterlimit:4;stroke-dasharray:none;stroke-dashoffset:0;stroke-opacity:1;marker:none;enable-background:accumulate" d="m 693.77118,792.12242 -0.56679,-0.0443 c 0,0 -0.106,0.3128 -0.23278,0.4425 -0.12677,0.1297 -0.51617,0.27655 -0.51617,0.27655 0,0 0.006,0.27229 -0.0911,0.43143 -0.0974,0.15913 -0.52631,0.4093 -0.52631,0.4093 0,0 0.13429,0.53777 0.11133,0.8186 -0.023,0.28082 -0.25303,0.81859 -0.25303,0.81859 0,0 0.24384,0.56374 0.24292,0.85179 -9.2e-4,0.28806 -0.23279,0.79649 -0.23279,0.79649 0,0 0.1915,0.61773 0.1923,0.9071 7.9e-4,0.28936 -0.16194,0.7854 -0.16194,0.7854 0,0 0.21297,0.5405 0.20243,0.80755 -0.0105,0.26705 -0.24292,0.71904 -0.24292,0.71904 0,0 0.19695,0.47765 0.19231,0.70797 -0.005,0.23032 -0.19231,0.60843 -0.19231,0.60843 l 0.71861,0.21018" id="path5020"/>
        <path style="color:#000000;display:inline;overflow:visible;visibility:visible;opacity:1;fill:none;fill-opacity:1;fill-rule:evenodd;stroke:#000000;stroke-width:0.38308167;stroke-linecap:round;stroke-linejoin:round;stroke-miterlimit:4;stroke-dasharray:none;stroke-dashoffset:0;stroke-opacity:1;marker:none;enable-background:accumulate" d="m 691.84816,793.63794 0.53642,0.12168" id="path5022"/>
        <path style="color:#000000;display:inline;overflow:visible;visibility:visible;opacity:1;fill:none;fill-opacity:1;fill-rule:evenodd;stroke:#000000;stroke-width:0.38308167;stroke-linecap:round;stroke-linejoin:round;stroke-miterlimit:4;stroke-dasharray:none;stroke-dashoffset:0;stroke-opacity:1;marker:none;enable-background:accumulate" d="m 693.08257,793.01107 -0.0715,1.54879" id="path5024"/>
        <path style="color:#000000;display:inline;overflow:visible;visibility:visible;opacity:1;fill:none;fill-opacity:1;fill-rule:evenodd;stroke:#000000;stroke-width:0.38308167;stroke-linecap:round;stroke-linejoin:round;stroke-miterlimit:4;stroke-dasharray:none;stroke-dashoffset:0;stroke-opacity:1;marker:none;enable-background:accumulate" d="m 694.22766,792.9485 -0.0716,1.45492" id="path5026"/>
        <path style="color:#000000;display:inline;overflow:visible;visibility:visible;opacity:1;fill:none;fill-opacity:1;fill-rule:evenodd;stroke:#000000;stroke-width:0.38308167;stroke-linecap:round;stroke-linejoin:round;stroke-miterlimit:4;stroke-dasharray:none;stroke-dashoffset:0;stroke-opacity:1;marker:none;enable-background:accumulate" d="m 696.53213,792.85463 -0.0143,1.54879" id="path5028"/>
        <path style="color:#000000;display:inline;overflow:visible;visibility:visible;opacity:1;fill:none;fill-opacity:1;fill-rule:evenodd;stroke:#000000;stroke-width:0.38308167;stroke-linecap:round;stroke-linejoin:round;stroke-miterlimit:4;stroke-dasharray:none;stroke-dashoffset:0;stroke-opacity:1;marker:none;enable-background:accumulate" d="m 697.66291,792.93286 v 1.56443" id="path5030"/>
        <path style="color:#000000;display:inline;overflow:visible;visibility:visible;opacity:1;fill:#4d4d4d;fill-opacity:1;fill-rule:evenodd;stroke:none;stroke-width:0.40000001;stroke-linecap:round;stroke-linejoin:round;stroke-miterlimit:4;stroke-dasharray:none;stroke-dashoffset:0;stroke-opacity:1;marker:none;enable-background:accumulate" d="m 693.84008,791.21739 0.48438,-0.0156 0.0781,-0.56253 0.32815,-0.46875 0.59375,-0.17187 0.42188,-0.0625 -0.48438,-0.35938 h -0.73437 l -0.5,0.40625 -0.1875,0.67188 z" id="path5032"/>
        <path style="color:#000000;display:inline;overflow:visible;visibility:visible;opacity:1;fill:none;fill-opacity:1;fill-rule:evenodd;stroke:#000000;stroke-width:0.38308167;stroke-linecap:round;stroke-linejoin:round;stroke-miterlimit:4;stroke-dasharray:none;stroke-dashoffset:0;stroke-opacity:1;marker:none;enable-background:accumulate" d="m 695.95934,790.05354 c 0,0 -0.49066,-0.37351 -0.64973,-0.42011 -0.19542,-0.0572 -0.40544,-0.0934 -0.60727,-0.0664 -0.17968,0.024 -0.36796,0.0817 -0.50607,0.19912 -0.13075,0.11115 -0.20345,0.2816 -0.26315,0.44249 -0.0677,0.18253 -0.0807,0.38162 -0.1012,0.57523 -0.0194,0.18347 -0.0202,0.55311 -0.0202,0.55311 l 0.46557,0.42037" id="path5034"/>
        <path style="color:#000000;display:inline;overflow:visible;visibility:visible;opacity:1;fill:none;fill-opacity:1;fill-rule:evenodd;stroke:#000000;stroke-width:0.38308167;stroke-linecap:round;stroke-linejoin:round;stroke-miterlimit:4;stroke-dasharray:none;stroke-dashoffset:0;stroke-opacity:1;marker:none;enable-background:accumulate" d="m 694.31773,791.13788 c 0,0 0.0115,-0.35179 0.081,-0.50886 0.0917,-0.20735 0.22924,-0.41674 0.42508,-0.53099 0.15941,-0.093 0.36214,-0.0811 0.54655,-0.0885 0.18263,-0.007 0.37518,-0.0193 0.54654,0.0443 0.16438,0.061 0.32099,0.16868 0.4251,0.30975 0.0741,0.10037 0.092,0.23276 0.12145,0.35399 0.0439,0.18109 0.081,0.55311 0.081,0.55311" id="path5036"/>
      </g>
    </g>
  </g>
</svg>